<?xml version="1.0" standalone="no"?>
<!DOCTYPE svg PUBLIC "-//W3C//DTD SVG 1.1//EN" "http://www.w3.org/Graphics/SVG/1.1/DTD/svg11.dtd" >
<svg xmlns="http://www.w3.org/2000/svg" xmlns:xlink="http://www.w3.org/1999/xlink" version="1.1">
<metadata>
Created by FontForge 20170731 at Wed May 19 06:39:28 2021
 By Aleksey,,,
Copyright (c) 1989, 1995, 2002 Adobe Systems Incorporated.  All Rights Reserved.
</metadata>
<defs>
<font id="FolioStd-ExtraBold" horiz-adv-x="1478" >
  <font-face 
    font-family="Folio Std Medium"
    font-weight="750"
    font-stretch="normal"
    units-per-em="2048"
    panose-1="2 11 9 4 4 7 2 4 2 4"
    ascent="1462"
    descent="-586"
    x-height="1114"
    cap-height="1462"
    bbox="-342 -512 2212 1880"
    underline-thickness="102"
    underline-position="-307"
    unicode-range="U+0020-FB02"
  />
<missing-glyph horiz-adv-x="1024" 
d="M0 0v1434h1024v-1434h-1024zM512 809l348 522h-696zM573 717l349 -522v1044zM164 102h696l-348 523zM102 1239v-1044l349 522z" />
    <glyph glyph-name="fi" unicode="fi" horiz-adv-x="1554" 
d="M938 0v1114h528v-1114h-528zM1466 1217h-528v245h528v-245zM121 868h-117v246h117v123q0 92 62 158.5t169 66.5h522v-237h-104q-61 0 -87 -24.5t-26 -86.5h217v-246h-217v-868h-536v868z" />
    <glyph glyph-name="fl" unicode="fl" horiz-adv-x="1554" 
d="M938 0v1462h528v-1462h-528zM121 868h-117v246h117v123q0 92 62 158.5t169 66.5h522v-237h-104q-61 0 -87 -24.5t-26 -86.5h217v-246h-217v-868h-536v868z" />
    <glyph glyph-name=".notdef" horiz-adv-x="1024" 
d="M0 0v1434h1024v-1434h-1024zM512 809l348 522h-696zM573 717l349 -522v1044zM164 102h696l-348 523zM102 1239v-1044l349 522z" />
    <glyph glyph-name=".null" horiz-adv-x="0" 
 />
    <glyph glyph-name="nonmarkingreturn" horiz-adv-x="682" 
 />
    <glyph glyph-name="space" unicode=" " horiz-adv-x="739" 
 />
    <glyph glyph-name="exclam" unicode="!" horiz-adv-x="796" 
d="M618 629h-438l-84 833h606zM154 0v471h491v-471h-491z" />
    <glyph glyph-name="quotedbl" unicode="&#x22;" horiz-adv-x="681" 
d="M401 905v557h271v-557h-271zM10 905v557h271v-557h-271z" />
    <glyph glyph-name="numbersign" unicode="#" 
d="M1212 580l-28 -197h-183l-57 -383h-211l58 383h-193l-57 -383h-211l55 383h-180l28 197h183l33 223h-181l27 196h182l58 390h210l-57 -390h193l57 390h211l-57 -390h182l-27 -196h-182l-35 -223h182zM854 803h-192l-35 -223h192z" />
    <glyph glyph-name="dollar" unicode="$" 
d="M1393 963h-496q-7 102 -21 136q-30 71 -128 72q-66 0 -112 -34.5t-46 -98.5q0 -49 28.5 -83.5t76.5 -54t110.5 -33.5t131.5 -27.5t137.5 -30.5t131 -48.5t110.5 -76t76.5 -118t28.5 -169.5q0 -442 -592 -442v-188h-176v188q-98 0 -178 11.5t-154 42.5t-124 80
t-79.5 128.5t-29.5 183.5h502q0 -50 4.5 -81t18.5 -62t45.5 -46t80.5 -15q68 0 109 35t41 102q0 46 -28 78.5t-75.5 52t-109 34.5t-129.5 30t-135.5 34t-129 51t-109 76t-75.5 115t-28 162q0 111 29.5 193.5t80 133.5t126.5 82t158.5 42.5t188.5 11.5v172h176v-172
q101 0 182 -13t154 -45.5t122 -84.5t77.5 -134t28.5 -190z" />
    <glyph glyph-name="percent" unicode="%" horiz-adv-x="2048" 
d="M594 -45h-197l1037 1479h188zM420 1210v-317q0 -68 65 -68q66 0 66 68v317q0 68 -66 68q-65 0 -65 -68zM1497 496v-318q0 -67 66 -67q65 0 65 67v318q0 67 -65 67q-66 0 -66 -67zM834 1198v-293q0 -235 -349 -235q-348 0 -348 235v293q0 236 348 236q349 0 349 -236z
M1911 483v-293q0 -235 -348 -235q-349 0 -349 235v293q0 236 349 236q348 0 348 -236z" />
    <glyph glyph-name="ampersand" unicode="&#x26;" horiz-adv-x="1705" 
d="M799 1196q-41 0 -73 -26t-32 -60q0 -28 7.5 -56t15 -45.5t26 -41.5t26 -32.5t30.5 -30.5t24 -23q33 39 48.5 59t34 61.5t18.5 81.5q0 113 -125 113zM1743 0h-653l-101 111q-76 -87 -181 -121.5t-255 -34.5q-61 0 -126 9.5t-136 35t-125.5 63.5t-90.5 101t-36 141
q0 76 35 141t93.5 110.5t124 76t136.5 47.5v4q-112 49 -172.5 147.5t-60.5 225.5q0 66 24.5 120t68.5 92.5t101 66.5t126.5 44.5t140 24.5t145.5 8q99 0 193 -21.5t171.5 -61.5t124.5 -105.5t47 -145.5q0 -235 -342 -358l164 -156l135 129h404l-361 -303zM811 281l-205 204
q-39 -32 -61.5 -61.5t-22.5 -69.5q0 -56 49 -90.5t109 -34.5q87 0 131 52z" />
    <glyph glyph-name="quotesingle" unicode="'" horiz-adv-x="454" 
d="M92 905v557h270v-557h-270z" />
    <glyph glyph-name="parenleft" unicode="(" horiz-adv-x="909" 
d="M838 303v-303h-467q-147 0 -223 78t-76 192v928q0 108 78.5 186t220.5 78h467v-303h-99q-87 0 -119 -39t-32 -121v-538q0 -93 34 -125.5t117 -32.5h99z" />
    <glyph glyph-name="parenright" unicode=")" horiz-adv-x="909" 
d="M72 0v303h98q83 0 117.5 32.5t34.5 125.5v538q0 83 -32.5 123t-119.5 37h-98v303h467q142 0 220.5 -78t78.5 -186v-928q0 -114 -76 -192t-223 -78h-467z" />
    <glyph glyph-name="asterisk" unicode="*" horiz-adv-x="1138" 
d="M897 494h-229l-99 411h-4l-100 -411h-229l-66 208l358 226l-4 4l-418 -29l-69 225l188 134l310 -287l4 4l-164 391l192 137l201 -143l-172 -385l4 -4l315 282l185 -133l-74 -229l-416 37l-4 -4l367 -201z" />
    <glyph glyph-name="plus" unicode="+" horiz-adv-x="1228" 
d="M481 690v424h267v-424h423v-266h-423v-424h-267v424h-424v266h424z" />
    <glyph glyph-name="comma" unicode="," horiz-adv-x="739" 
d="M125 0v471h491v-446l-188 -353h-297l129 328h-135z" />
    <glyph glyph-name="hyphen" unicode="-" horiz-adv-x="1024" 
d="M143 389v336h738v-336h-738z" />
    <glyph glyph-name="period" unicode="." horiz-adv-x="739" 
d="M125 0v471h491v-471h-491z" />
    <glyph glyph-name="slash" unicode="/" horiz-adv-x="1175" 
d="M401 -45h-268l639 1552h268z" />
    <glyph glyph-name="zero" unicode="0" 
d="M1405 694q0 -147 -11.5 -252t-41.5 -191t-77.5 -139.5t-123.5 -90t-175.5 -51.5t-236.5 -15t-236.5 15t-175 51.5t-123 90t-77.5 139.5t-41.5 191t-11.5 252t11.5 252t41.5 191t77.5 140t123 90.5t175 51.5t236.5 15t236.5 -15t175.5 -51.5t123.5 -90.5t77.5 -140
t41.5 -191t11.5 -252zM856 360v668q0 55 -29.5 87t-87.5 32t-87 -32t-29 -87v-668q0 -55 29 -86.5t87 -31.5t87.5 31.5t29.5 86.5z" />
    <glyph glyph-name="one" unicode="1" 
d="M182 1085v168l289 136h537v-1389h-537v1085h-289z" />
    <glyph glyph-name="two" unicode="2" 
d="M590 954h-510q-3 108 31 192.5t92.5 138t142.5 88t173.5 48t193.5 13.5q149 0 269.5 -23t217 -71.5t150 -133.5t53.5 -200q0 -97 -29 -171.5t-78 -121.5t-112.5 -81.5t-133.5 -55t-140 -38t-133.5 -36t-112.5 -42.5t-78 -63.5t-29 -93.5h803v-303h-1282v168
q0 109 22 198.5t60 151t88.5 111.5t107 81t116.5 58.5t116.5 45.5t107 40.5t88.5 44t60 55t22 76.5q0 54 -36.5 91.5t-77.5 37.5q-47 0 -80.5 -19t-50 -51t-24 -65t-7.5 -70z" />
    <glyph glyph-name="three" unicode="3" 
d="M59 389h514q0 -75 35 -110q33 -33 111 -33q64 0 95.5 33.5t31.5 105.5q0 91 -50 131.5t-124 40.5h-205v283h201q98 0 142 42.5t44 112.5q0 69 -32.5 104.5t-104.5 35.5q-65 0 -97.5 -29.5t-33.5 -93.5h-498q10 96 49.5 171t97 121.5t136.5 76.5t159 41.5t172 11.5
q147 0 264 -20.5t213.5 -65.5t149.5 -127t53 -195q0 -72 -30 -129.5t-81 -93.5t-112 -56t-129 -24v-4q81 -11 145.5 -36.5t116 -67.5t79.5 -106t28 -147q0 -91 -35.5 -162t-96.5 -116.5t-149 -75t-185.5 -41.5t-213.5 -12q-73 0 -135 4t-132 15.5t-125.5 31t-107.5 53
t-86.5 78t-54.5 109t-19 143.5z" />
    <glyph glyph-name="four" unicode="4" 
d="M1407 260h-207v-260h-483v260h-645v232l420 897h708v-838h207v-291zM428 551h289v608h-4z" />
    <glyph glyph-name="five" unicode="5" 
d="M59 406h516q0 -80 31 -119q36 -45 113 -45q74 0 105.5 54.5t31.5 195.5q0 127 -32 178t-105 51q-62 0 -102 -40t-42 -97h-430v805h1160v-304h-699v-229q60 45 147 68.5t171 23.5q223 0 349 -113.5t126 -338.5q0 -53 -7.5 -103t-27 -105t-50.5 -102t-81 -90.5t-114 -74
t-154.5 -48.5t-198.5 -18q-93 0 -165.5 4.5t-144.5 17.5t-126 34.5t-102.5 55.5t-81 81t-55.5 111.5t-32 146.5z" />
    <glyph glyph-name="six" unicode="6" 
d="M1405 991h-528q3 68 -27 109q-26 39 -98 39q-51 0 -81 -34.5t-30 -94.5v-207q133 92 297 92q101 0 183.5 -25t149 -77t103.5 -142t37 -211q0 -485 -641 -485q-148 0 -256.5 16t-186 54.5t-126.5 91t-77 136.5t-38.5 180t-9.5 231q0 124 5 207.5t20.5 171.5t44.5 143.5
t77.5 107.5t119 79.5t168.5 44t228 16.5q666 0 666 -443zM858 365v196q0 61 -32 89t-74 28q-57 0 -86 -26.5t-29 -90.5v-196q0 -65 29 -92t86 -27q42 0 74 28.5t32 90.5z" />
    <glyph glyph-name="seven" unicode="7" 
d="M137 1077v312h1198v-287l-524 -1102h-584l504 1077h-594z" />
    <glyph glyph-name="eight" unicode="8" 
d="M399 750v2q-129 9 -209.5 83.5t-80.5 202.5q0 86 38 155t100 113t146 73.5t170.5 42t179.5 12.5t180 -12.5t171 -42t146 -73.5t100 -113t38 -155q0 -128 -80.5 -202.5t-210.5 -83.5v-2q74 -16 134.5 -43.5t111 -69.5t78 -104t27.5 -140q0 -100 -45.5 -178.5t-116.5 -126
t-166 -79t-184.5 -43t-182.5 -11.5t-182.5 11.5t-184.5 43t-165.5 79t-116 126t-45.5 178.5q0 78 27.5 140t77.5 104t110.5 69.5t134.5 43.5zM872 428q0 95 -28 138.5t-101 43.5t-101 -43.5t-28 -138.5q0 -42 4.5 -70.5t17 -56t39.5 -41.5t68 -14t68 14t39.5 41.5t17 56
t4.5 70.5zM862 993q0 146 -119 146q-118 0 -118 -146q0 -145 118 -145q119 0 119 145z" />
    <glyph glyph-name="nine" unicode="9" 
d="M74 397h528q-3 -67 27 -108q26 -39 98 -39q51 0 81 34.5t30 94.5v207q-133 -92 -297 -92q-101 0 -183.5 24.5t-149 76.5t-103.5 142t-37 211q0 486 641 486q111 0 199 -9t158 -30t121.5 -50t89.5 -74t62 -96.5t38.5 -123t20 -148.5t5.5 -178q0 -145 -7 -239t-30 -190
t-67 -152.5t-117.5 -103t-182.5 -66t-260 -19.5q-665 0 -665 442zM621 1024v-197q0 -61 32 -88.5t74 -27.5q58 0 86.5 26t28.5 90v197q0 65 -29 92t-86 27q-42 0 -74 -28.5t-32 -90.5z" />
    <glyph glyph-name="colon" unicode=":" horiz-adv-x="739" 
d="M125 0v471h491v-471h-491zM125 588v471h491v-471h-491z" />
    <glyph glyph-name="semicolon" unicode=";" horiz-adv-x="739" 
d="M125 0v471h491v-446l-188 -353h-297l129 328h-135zM125 588v471h491v-471h-491z" />
    <glyph glyph-name="less" unicode="&#x3c;" horiz-adv-x="1228" 
d="M1135 236v-236l-1041 461v192l1041 461v-235l-721 -322z" />
    <glyph glyph-name="equal" unicode="=" horiz-adv-x="1228" 
d="M1171 938v-266h-1114v266h1114zM1171 442v-266h-1114v266h1114z" />
    <glyph glyph-name="greater" unicode="&#x3e;" horiz-adv-x="1228" 
d="M94 0v236l721 321l-721 322v235l1041 -461v-192z" />
    <glyph glyph-name="question" unicode="?" horiz-adv-x="1366" 
d="M950 616h-493v62q0 63 16.5 111t42.5 76t57 50t62.5 40.5t57.5 39t42.5 53t16.5 76.5q0 42 -27 71.5t-72 29.5q-54 0 -83 -45.5t-29 -110.5v-57h-480v116q0 88 32 155t102 118.5t192.5 78.5t294.5 27q610 0 610 -389q0 -85 -19 -146t-49 -94t-66.5 -55t-73 -37.5
t-66.5 -33.5t-49 -52t-19 -84zM948 471v-471h-491v471h491z" />
    <glyph glyph-name="at" unicode="@" horiz-adv-x="1638" 
d="M838 901q-86 0 -146.5 -67t-60.5 -150q0 -75 43 -123.5t117 -48.5q93 0 151.5 63.5t58.5 155.5q0 76 -44.5 123t-118.5 47zM1278 274h205q-110 -157 -267.5 -238t-349.5 -81q-220 0 -404.5 98t-294.5 276.5t-110 399.5q0 163 63 308t170 248t254 162.5t310 59.5
q138 0 269 -45t234 -124.5t165.5 -200t62.5 -260.5q0 -98 -22.5 -182.5t-59.5 -145t-86 -109t-100 -79t-103.5 -51t-94.5 -28.5t-75 -8q-45 0 -76 27.5t-32 75.5l-4 4q-39 -45 -94 -76t-107 -31q-136 0 -239 112.5t-103 262.5q0 124 50 232t147 176.5t221 68.5
q167 0 256 -122l18 102h189l-84 -498q-10 -45 -10 -76q0 -40 36 -40q68 0 124.5 82.5t56.5 236.5q0 243 -149.5 373.5t-395.5 130.5q-170 0 -299 -75t-197.5 -208t-68.5 -303q0 -179 77 -312t212.5 -201.5t312.5 -68.5q235 0 393 127z" />
    <glyph glyph-name="A" unicode="A" horiz-adv-x="1441" 
d="M-39 0l385 1462h758l377 -1462h-566l-41 229h-303l-41 -229h-569zM729 1196l-113 -684h220l-103 684h-4z" />
    <glyph glyph-name="B" unicode="B" horiz-adv-x="1517" 
d="M127 0v1462h766q153 0 258.5 -22.5t166.5 -68.5t87.5 -109.5t26.5 -153.5q0 -169 -90 -251t-263 -112v-4q89 -11 155 -34t119 -64t80 -108t27 -158q0 -58 -13.5 -110t-47 -102t-85.5 -85.5t-134 -57.5t-187 -22h-866zM664 598v-295h110q59 0 92 48.5t33 119.5
q0 65 -30.5 96t-84.5 31h-120zM664 1159v-270h110q51 0 82 39t31 96t-31 96t-82 39h-110z" />
    <glyph glyph-name="C" unicode="C" 
d="M1425 948h-544v133q0 58 -29.5 90.5t-89.5 32.5t-89.5 -32.5t-29.5 -90.5v-700q0 -58 29.5 -90.5t89.5 -32.5t89.5 32.5t29.5 90.5v160h544q0 -279 -122 -414q-153 -172 -541 -172q-107 0 -192.5 10t-154 33.5t-119 55.5t-88 81t-62 106t-39 135t-21 162t-6.5 193
q0 154 13 266t45 201.5t81.5 146t127 94t177 53t236.5 15.5q162 0 280 -26.5t191.5 -72t117.5 -118.5t60 -153.5t16 -188.5z" />
    <glyph glyph-name="D" unicode="D" horiz-adv-x="1517" 
d="M664 1151v-840h88q75 0 105 33.5t30 118.5v536q0 85 -30 118.5t-105 33.5h-88zM119 0v1460l2 2h780q283 0 411 -118t128 -371v-484q0 -253 -128 -371t-411 -118h-782z" />
    <glyph glyph-name="E" unicode="E" horiz-adv-x="1290" 
d="M106 0v1462h1135v-348h-582v-217h535v-311h-535v-238h582v-348h-1135z" />
    <glyph glyph-name="F" unicode="F" horiz-adv-x="1251" 
d="M106 0v1462h1135v-348h-582v-217h535v-311h-535v-586h-553z" />
    <glyph glyph-name="G" unicode="G" horiz-adv-x="1517" 
d="M1450 770v-770h-297l-57 211h-4q-19 -60 -50.5 -104t-86 -79.5t-141 -54t-204.5 -18.5q-528 0 -528 553v371q0 163 36.5 277.5t118.5 194.5t217 118t330 38q55 0 106.5 -3.5t121.5 -16t129 -33.5t119 -59t101.5 -89t68 -127.5t26.5 -170.5h-541v90q0 52 -31.5 81
t-115.5 29q-125 0 -125 -153v-645q0 -95 34 -125.5t109 -30.5q61 0 98.5 31t37.5 100v86h-127v299h655z" />
    <glyph glyph-name="H" unicode="H" horiz-adv-x="1554" 
d="M117 0v1462h553v-481h217v481h553v-1462h-553v559h-217v-559h-553z" />
    <glyph glyph-name="I" unicode="I" horiz-adv-x="796" 
d="M123 0v1462h553v-1462h-553z" />
    <glyph glyph-name="J" unicode="J" horiz-adv-x="1402" 
d="M-25 471h549v-86q0 -57 28 -90t81 -33q60 0 89.5 32.5t29.5 90.5v1077h553v-1005q0 -244 -175.5 -373t-490.5 -129q-111 0 -205 15t-180.5 51.5t-146.5 94t-96 148t-36 207.5z" />
    <glyph glyph-name="K" unicode="K" horiz-adv-x="1593" 
d="M123 0v1462h553v-663h4l330 663h610l-375 -700l387 -762h-622l-330 754h-4v-754h-553z" />
    <glyph glyph-name="L" unicode="L" horiz-adv-x="1175" 
d="M106 0v1462h553v-1114h500v-348h-1053z" />
    <glyph glyph-name="M" unicode="M" horiz-adv-x="2048" 
d="M102 0v1462h797l123 -874h4l141 874h779v-1462h-463v1114h-4l-217 -1114h-476l-217 1114h-4v-1114h-463z" />
    <glyph glyph-name="N" unicode="N" horiz-adv-x="1705" 
d="M102 0v1462h715l311 -884h5v884h471v-1462h-711l-315 862h-5v-862h-471z" />
    <glyph glyph-name="O" unicode="O" horiz-adv-x="1517" 
d="M80 731q0 154 13 266t45 201.5t81.5 146t127 94t177 53t236.5 15.5t236.5 -15.5t177 -53t127 -94t81.5 -146t45 -201.5t13 -266t-13 -266t-45 -201.5t-81.5 -146t-127 -94t-177 -53t-236.5 -15.5t-236.5 15.5t-177 53t-127 94t-81.5 146t-45 201.5t-13 266zM641 1081
v-700q0 -58 29.5 -90.5t89.5 -32.5t89.5 32.5t29.5 90.5v700q0 58 -29.5 90.5t-89.5 32.5t-89.5 -32.5t-29.5 -90.5z" />
    <glyph glyph-name="P" unicode="P" 
d="M119 0v1462h817q272 0 400 -123t128 -395q0 -225 -105 -354t-312 -129h-375v-461h-553zM672 1163v-403h100q67 0 103 62.5t36 164.5q0 76 -42 126t-107 50h-90z" />
    <glyph glyph-name="Q" unicode="Q" horiz-adv-x="1517" 
d="M1130 -150v-258h-352q-262 0 -262 197v184q-127 21 -210 71t-134 143t-71.5 222.5t-20.5 321.5q0 154 13 266t45 201.5t81.5 146t127 94t177 53t236.5 15.5t236.5 -15.5t177 -53t127 -94t81.5 -146t45 -201.5t13 -266q0 -202 -23 -335.5t-80.5 -227t-151.5 -140.5
t-239 -63v-43q0 -43 20 -57.5t64 -14.5h100zM641 1081v-700q0 -58 29.5 -90.5t89.5 -32.5t89.5 32.5t29.5 90.5v700q0 58 -29.5 90.5t-89.5 32.5t-89.5 -32.5t-29.5 -90.5z" />
    <glyph glyph-name="R" unicode="R" horiz-adv-x="1517" 
d="M668 1180v-295h88q70 0 103.5 44t33.5 113q0 138 -150 138h-75zM115 0v1462h856q243 0 359 -96.5t116 -308.5q0 -137 -77.5 -221.5t-213.5 -98.5v-4q47 -5 93.5 -22t91.5 -47.5t72.5 -81.5t27.5 -115v-330q0 -55 22 -89t54 -44l-3 -4h-546q-37 0 -58.5 28.5t-21.5 77.5
v322q0 94 -32.5 134t-109.5 40h-77v-602h-553z" />
    <glyph glyph-name="S" unicode="S" horiz-adv-x="1402" 
d="M1333 1061h-510q0 76 -20 110q-24 41 -107 41q-43 0 -70.5 -32.5t-27.5 -75.5t26.5 -75.5t71 -54t102 -39.5t121.5 -36t128 -39.5t121.5 -55.5t102 -77.5t71 -111t26.5 -152.5q0 -113 -33 -201t-90 -145t-139 -94t-174 -52.5t-201 -15.5q-65 0 -118.5 2t-114.5 8.5
t-110 17t-100 29t-89 43t-71.5 60t-54 79t-30.5 101.5t-6 127h543q3 -98 22 -139q26 -54 90 -54q55 0 91 36.5t36 90.5q0 52 -26 90t-70.5 61.5t-102 41.5t-121 34.5t-127 36t-121 51t-102 73t-70.5 108t-26 152.5q0 260 160 381.5t479 121.5q153 0 267.5 -24t185 -63.5
t113.5 -98.5t59 -121t16 -139z" />
    <glyph glyph-name="T" unicode="T" horiz-adv-x="1175" 
d="M-14 1114v348h1204v-348h-324v-1114h-553v1114h-327z" />
    <glyph glyph-name="U" unicode="U" horiz-adv-x="1554" 
d="M1442 1462v-936q0 -104 -20 -188t-53 -143t-84 -102.5t-105.5 -69.5t-125 -41.5t-134.5 -21t-142 -5.5t-142 5.5t-134 21t-124.5 41.5t-105.5 69.5t-84 102.5t-53 143t-20 188v936h553v-1052q0 -90 22 -117t88 -27t88.5 27t22.5 117v1052h553z" />
    <glyph glyph-name="V" unicode="V" horiz-adv-x="1366" 
d="M317 0l-358 1462h582l137 -999h4l143 999h584l-369 -1462h-723z" />
    <glyph glyph-name="W" unicode="W" horiz-adv-x="2048" 
d="M199 0l-205 1462h450l121 -1102h4l133 1102h644l131 -1102h4l123 1102h450l-205 -1462h-696l-127 991h-4l-127 -991h-696z" />
    <glyph glyph-name="X" unicode="X" horiz-adv-x="1402" 
d="M375 750l-422 712h588l166 -409l165 409h576l-406 -712l433 -750h-598l-170 410l-187 -410h-590z" />
    <glyph glyph-name="Y" unicode="Y" horiz-adv-x="1327" 
d="M389 0v496l-450 966h577l143 -512h5l155 512h570l-447 -966v-496h-553z" />
    <glyph glyph-name="Z" unicode="Z" horiz-adv-x="1290" 
d="M45 1114v348h1208v-299l-575 -807h592v-356h-1270v299l590 815h-545z" />
    <glyph glyph-name="bracketleft" unicode="[" horiz-adv-x="948" 
d="M856 1462v-311h-256v-840h256v-311h-764v1462h764z" />
    <glyph glyph-name="backslash" unicode="\" horiz-adv-x="569" 
d="M739 -45h-268l-639 1552h268z" />
    <glyph glyph-name="bracketright" unicode="]" horiz-adv-x="948" 
d="M92 1151v311h764v-1462h-764v311h256v840h-256z" />
    <glyph glyph-name="asciicircum" unicode="^" horiz-adv-x="1228" 
d="M387 641h-237l356 748h217l356 -748h-239l-226 508z" />
    <glyph glyph-name="underscore" unicode="_" horiz-adv-x="1024" 
d="M1024 -256h-1024v102h1024v-102z" />
    <glyph glyph-name="grave" unicode="`" horiz-adv-x="569" 
d="M-135 1532h426l205 -303h-283z" />
    <glyph glyph-name="a" unicode="a" horiz-adv-x="1366" 
d="M539 762h-430q5 91 33 158t74 110.5t115 69.5t149 36.5t184 10.5q295 0 451.5 -94t156.5 -287v-573q0 -141 90 -189v-4h-535q-10 38 -19 104t-9 105h-4q-22 -81 -87.5 -137.5t-144.5 -80.5t-166 -24q-92 0 -160.5 26.5t-107.5 72.5t-57.5 101.5t-18.5 119.5
q0 91 25.5 158t68 104.5t98 61.5t117 32.5t123 13.5t117 9t98 13.5t68 32.5t25.5 62q0 50 -32 78.5t-83 28.5q-139 0 -139 -119zM799 496v67l-4 4q-16 -28 -50 -47.5t-69 -31t-68.5 -26t-54.5 -43t-21 -71.5t36 -72.5t81 -29.5q150 0 150 250z" />
    <glyph glyph-name="b" unicode="b" horiz-adv-x="1441" 
d="M836 463v188q0 67 -22.5 99t-74.5 32q-47 0 -73.5 -34.5t-26.5 -96.5v-188q0 -64 27 -95.5t69 -31.5q101 0 101 127zM627 180v-180h-525v1462h541v-510h4q40 90 128 142.5t200 52.5q94 0 162 -25.5t118.5 -83t75.5 -155t25 -236.5v-176q0 -270 -95 -387t-280 -117
q-250 0 -350 213h-4z" />
    <glyph glyph-name="c" unicode="c" horiz-adv-x="1327" 
d="M596 741v-372q0 -55 25 -79t77 -24t77.5 24.5t25.5 78.5v82h491q-2 -49 -9 -91.5t-24.5 -93.5t-44.5 -92t-72.5 -81t-105 -67.5t-145.5 -44.5t-191 -18q-187 0 -309.5 34t-194 110t-100 182t-28.5 266t28.5 266t100 182t194 110t309.5 34q144 0 250.5 -26.5t168.5 -67.5
t101 -105t53 -125.5t19 -142.5h-491v61q0 54 -25.5 78.5t-77.5 24.5t-77 -24t-25 -79z" />
    <glyph glyph-name="d" unicode="d" horiz-adv-x="1441" 
d="M606 655v-188q0 -67 22 -99t74 -32q47 0 74 35t27 96v188q0 64 -27 95.5t-69 31.5q-101 0 -101 -127zM815 0v180h-4q-100 -213 -350 -213q-185 0 -280 117t-95 387v176q0 139 25 236.5t75.5 155t118.5 83t162 25.5q112 0 200 -52.5t128 -142.5h4v510h540v-1462h-524z" />
    <glyph glyph-name="e" unicode="e" horiz-adv-x="1402" 
d="M856 377h477q8 -79 -57.5 -181.5t-161.5 -150.5q-155 -78 -414 -78q-150 0 -260.5 28t-180.5 76.5t-112 124.5t-58.5 162t-16.5 199q0 111 19 198.5t64.5 162.5t119 124.5t186 77t260.5 27.5q99 0 178 -10t140.5 -31.5t107.5 -50.5t78 -72t53.5 -90.5t33.5 -112
t16.5 -130t4.5 -150.5h-758q0 -118 12.5 -171.5t40 -70t89.5 -16.5q69 0 99.5 32t39.5 103zM569 696h285q0 189 -141 189q-144 0 -144 -189z" />
    <glyph glyph-name="f" unicode="f" horiz-adv-x="872" 
d="M131 868h-117v246h117v123q0 92 62 158.5t169 66.5h523v-237h-105q-61 0 -86.5 -24.5t-25.5 -86.5h217v-246h-217v-868h-537v868z" />
    <glyph glyph-name="g" unicode="g" horiz-adv-x="1441" 
d="M831 909v205h508v-1134q0 -214 -179 -326.5t-494 -112.5q-135 0 -233 18.5t-174 62.5t-114.5 123t-38.5 194h496q0 -46 29 -74.5t76 -28.5q49 0 72.5 35t23.5 86v248h-4q-51 -104 -140 -146.5t-219 -42.5q-196 0 -275 126.5t-79 430.5q0 219 38.5 344.5t117.5 177.5
t215 52q265 0 370 -238h4zM803 475v205q0 50 -23 70t-67 20t-67 -20t-23 -70v-205q0 -50 23 -70t67 -20t67 20t23 70z" />
    <glyph glyph-name="h" unicode="h" horiz-adv-x="1441" 
d="M90 0v1462h539v-538h4q49 121 131 172t221 51q174 0 270.5 -103t96.5 -276v-768h-537v668q0 64 -20 89t-70 25q-54 0 -76 -28t-22 -101v-653h-537z" />
    <glyph glyph-name="i" unicode="i" horiz-adv-x="720" 
d="M96 0v1114h529v-1114h-529zM625 1217h-529v245h529v-245z" />
    <glyph glyph-name="j" unicode="j" horiz-adv-x="720" 
d="M-117 -422v250q89 0 137 15t65 44t17 82v1145h529v-1241q0 -295 -293 -295h-455zM631 1217h-529v245h529v-245z" />
    <glyph glyph-name="k" unicode="k" 
d="M635 0h-537v1462h537v-850h4l295 502h586l-342 -536l352 -578h-610l-281 555h-4v-555z" />
    <glyph glyph-name="l" unicode="l" horiz-adv-x="720" 
d="M96 0v1462h529v-1462h-529z" />
    <glyph glyph-name="m" unicode="m" horiz-adv-x="2048" 
d="M92 0v1114h486v-194h4q65 112 149 169.5t205 57.5q57 0 102.5 -15t83.5 -48t63.5 -63.5t61.5 -82.5q53 103 142 156t204 53q159 0 261 -113.5t102 -271.5v-762h-504v688q0 41 -23.5 65.5t-68.5 24.5q-36 0 -60 -22t-24 -56v-700h-504v688q0 41 -23.5 65.5t-68.5 24.5
q-36 0 -60 -22t-24 -56v-700h-504z" />
    <glyph glyph-name="n" unicode="n" horiz-adv-x="1441" 
d="M90 0v1114h520v-190h4q62 122 147.5 172.5t223.5 50.5q174 0 270.5 -103t96.5 -276v-768h-537v668q0 64 -20 89t-70 25q-54 0 -76 -28t-22 -101v-653h-537z" />
    <glyph glyph-name="o" unicode="o" horiz-adv-x="1402" 
d="M600 745v-376q0 -95 100 -95q101 0 101 95v376q0 95 -101 95q-100 0 -100 -95zM700 -33q-90 0 -160.5 7t-137.5 24t-116.5 46t-91 74t-67.5 106.5t-40.5 145t-14.5 187.5t14.5 187.5t40.5 145t67.5 106.5t91 74t116.5 46t137.5 24t160.5 7t160.5 -7t137.5 -24t116.5 -46
t91.5 -74t68 -106.5t40.5 -145t14.5 -187.5t-14.5 -187.5t-40.5 -145t-68 -106.5t-91.5 -74t-116.5 -46t-137.5 -24t-160.5 -7z" />
    <glyph glyph-name="p" unicode="p" horiz-adv-x="1441" 
d="M836 459v188q0 67 -22.5 99t-74.5 32q-47 0 -73.5 -34.5t-26.5 -96.5v-188q0 -64 27 -95.5t69 -31.5q101 0 101 127zM627 1114v-180h4q100 213 350 213q185 0 280 -117t95 -387v-176q0 -139 -25 -236.5t-75.5 -155t-118.5 -83t-162 -25.5q-112 0 -200 52.5t-128 142.5h-4
v-584h-541v1536h525z" />
    <glyph glyph-name="q" unicode="q" horiz-adv-x="1441" 
d="M606 651v-188q0 -67 22 -99t74 -32q47 0 74 35t27 96v188q0 64 -27 95.5t-69 31.5q-101 0 -101 -127zM815 934v180h524v-1536h-540v584h-4q-40 -90 -128 -142.5t-200 -52.5q-94 0 -162 25.5t-118.5 83t-75.5 155t-25 236.5v176q0 270 95 387t280 117q250 0 350 -213h4z
" />
    <glyph glyph-name="r" unicode="r" horiz-adv-x="1062" 
d="M106 0v1114h512v-235h5q56 130 169.5 199t262.5 69v-539q-78 37 -170 37q-110 0 -180 -67t-70 -158v-420h-529z" />
    <glyph glyph-name="s" unicode="s" horiz-adv-x="1290" 
d="M1223 791h-455q-3 48 -29 81t-75 33q-52 0 -74.5 -22t-22.5 -72q0 -41 37.5 -64t97 -31.5t132 -15.5t145 -24t132 -48t97 -96.5t37.5 -160.5q0 -207 -139 -305.5t-461 -98.5q-56 0 -109 3.5t-114.5 13.5t-113.5 26.5t-102 44.5t-84.5 64t-55.5 88.5t-21 116.5h479
q0 -54 23 -80q25 -31 80 -31q51 0 78.5 25.5t27.5 58.5q0 34 -28.5 57.5t-75.5 35.5t-106.5 25.5t-122 25.5t-122 37.5t-106.5 60t-75.5 94.5t-28.5 139q0 194 130 284.5t437 90.5q113 0 197.5 -8.5t161 -32t125 -62.5t76.5 -102.5t28 -150.5z" />
    <glyph glyph-name="t" unicode="t" horiz-adv-x="872" 
d="M23 1114h108v246h537v-246h217v-246h-217v-467q0 -58 33.5 -98.5t78.5 -40.5h105v-262h-523q-107 0 -169 66.5t-62 158.5v643h-108v246z" />
    <glyph glyph-name="u" unicode="u" horiz-adv-x="1441" 
d="M1352 1114v-1114h-521v190h-4q-62 -122 -147 -172.5t-223 -50.5q-174 0 -270.5 103t-96.5 276v768h537v-668q0 -64 20 -89t70 -25q54 0 76 28t22 101v653h537z" />
    <glyph glyph-name="v" unicode="v" horiz-adv-x="1327" 
d="M299 0l-334 1114h588l111 -704h4l108 704h588l-334 -1114h-731z" />
    <glyph glyph-name="w" unicode="w" horiz-adv-x="2048" 
d="M236 0l-254 1114h495l92 -811h4l105 811h692l119 -811h4l78 811h495l-260 -1114h-690l-61 815h-4l-119 -815h-696z" />
    <glyph glyph-name="x" unicode="x" horiz-adv-x="1290" 
d="M315 578l-305 536h522l121 -315l131 315h527l-332 -536l350 -578h-551l-127 356l-141 -356h-549z" />
    <glyph glyph-name="y" unicode="y" horiz-adv-x="1327" 
d="M-35 1114h563l140 -723h4l125 723h565l-528 -1329q-32 -80 -137 -143.5t-257 -63.5h-299v242h103q162 0 162 98q0 39 -21 96z" />
    <glyph glyph-name="z" unicode="z" horiz-adv-x="1175" 
d="M485 868h-401v246h1022v-221l-444 -639h471v-254h-1090v221z" />
    <glyph glyph-name="braceleft" unicode="{" horiz-adv-x="909" 
d="M41 575v320q54 0 83.5 19t29.5 75v258q0 106 84.5 160.5t212.5 54.5h387v-303h-86q-50 0 -70 -24.5t-20 -77.5v-127q0 -169 -218 -178v-29q36 -2 60 -5t56.5 -14.5t52.5 -30.5t34.5 -55.5t14.5 -87.5v-124q0 -53 20.5 -78t69.5 -25h86v-303h-387q-128 0 -212.5 54.5
t-84.5 160.5v266q0 56 -29.5 75t-83.5 19z" />
    <glyph glyph-name="bar" unicode="|" horiz-adv-x="454" 
d="M94 1536h266v-2048h-266v2048z" />
    <glyph glyph-name="braceright" unicode="}" horiz-adv-x="909" 
d="M868 895v-320q-54 0 -83 -19t-29 -75v-266q0 -106 -84.5 -160.5t-212.5 -54.5h-387v303h86q49 0 69.5 25t20.5 78v124q0 51 14.5 87.5t34 55.5t52.5 30.5t56.5 14.5t59.5 5v29q-217 9 -217 178v127q0 53 -20.5 77.5t-69.5 24.5h-86v303h387q128 0 212.5 -54.5
t84.5 -160.5v-258q0 -56 29 -75t83 -19z" />
    <glyph glyph-name="asciitilde" unicode="~" horiz-adv-x="1228" 
d="M1014 748l73 -197q-23 -32 -38.5 -52t-41 -46.5t-49.5 -41t-57 -25.5t-70 -11q-85 0 -208 67q-128 72 -236 72q-105 0 -172 -147l-74 196q92 176 256 176q83 0 228 -65q14 -6 44.5 -20t47.5 -21t40.5 -16t42 -13t34.5 -4q29 0 55 11.5t49.5 36.5t38 45t37.5 55z" />
    <glyph glyph-name="uni00A0" unicode="&#xa0;" horiz-adv-x="739" 
 />
    <glyph glyph-name="exclamdown" unicode="&#xa1;" horiz-adv-x="796" 
d="M178 485h438l84 -833h-606zM643 1114v-471h-491v471h491z" />
    <glyph glyph-name="cent" unicode="&#xa2;" 
d="M1339 680h-491v61q0 99 -105 99q-100 0 -100 -103v-364q0 -103 102 -103q58 0 80.5 32t22.5 75v74h491q0 -65 -11.5 -123.5t-45.5 -123.5t-88.5 -112.5t-150 -82.5t-220.5 -42v-205h-176v205q-287 19 -405 148q-123 135 -123 440q0 108 12 187.5t46 154.5t92 123.5
t152.5 81t225.5 41.5v180h176v-180q124 -6 217.5 -34.5t149.5 -70.5t90.5 -102.5t46.5 -121t12 -134.5z" />
    <glyph glyph-name="sterling" unicode="&#xa3;" 
d="M207 627h-174v125h147q-37 142 -37 274q0 79 23 142t59 105t92 72.5t110.5 47.5t127.5 26.5t130 12t130 2.5q107 0 194 -14t164 -48.5t127.5 -89t77.5 -138.5t21 -194h-479q-9 108 -25 146q-26 67 -115 67q-78 0 -107.5 -39.5t-29.5 -156.5v-215h262v-123h-252
q-2 -148 -30.5 -232.5t-104.5 -113.5v-4q68 2 156.5 -17.5t116.5 -19.5q37 0 64.5 6.5t45 23t28 31.5t16.5 45t8 49t5 58h474q2 -83 -3 -145t-21 -121.5t-48 -100t-81.5 -72t-123.5 -46.5t-172 -15q-64 0 -259.5 43t-268.5 43q-54 0 -109 -16.5t-133 -51.5l-133 209
q63 39 114.5 100.5t51.5 110.5q0 29 -6.5 69.5t-17.5 92t-15 72.5z" />
    <glyph glyph-name="currency" unicode="&#xa4;" 
d="M205 289l119 119q-95 109 -95 286q0 87 24.5 165t70.5 122l-119 119l129 129l117 -117q46 40 125.5 65t160.5 25q85 0 161.5 -24t117.5 -62l119 119l139 -139l-115 -115q39 -42 62.5 -121t23.5 -166q0 -84 -24 -161.5t-66 -129.5l115 -114l-123 -123l-119 119
q-46 -46 -124.5 -72.5t-166.5 -26.5q-86 0 -163.5 25.5t-127.5 69.5l-116 -117zM737 412q116 0 189 82.5t73 199.5t-73 200t-189 83q-113 0 -187.5 -82.5t-74.5 -200.5q0 -119 75 -200.5t187 -81.5z" />
    <glyph glyph-name="yen" unicode="&#xa5;" 
d="M1010 467v-467h-553v467h-375v123h317l-73 151h-244v123h184l-256 525h570l157 -486h4l158 486h569l-262 -525h178v-123h-239l-76 -151h315v-123h-374z" />
    <glyph glyph-name="brokenbar" unicode="&#xa6;" horiz-adv-x="454" 
d="M94 1382h266v-716h-266v716zM94 358h266v-716h-266v716z" />
    <glyph glyph-name="section" unicode="&#xa7;" 
d="M1333 1040h-459q-8 81 -22 111q-23 55 -92 55q-56 0 -85.5 -36t-29.5 -93q0 -44 24.5 -74t66 -46t95.5 -26.5t114 -20.5t119.5 -23.5t113.5 -39t95.5 -63t66 -100.5t24.5 -147q0 -284 -283 -338v-4q108 -12 162.5 -80t54.5 -178q0 -340 -585 -340q-89 0 -167.5 11.5
t-154 40.5t-128 74t-81.5 117.5t-22 165.5h454q0 -101 24 -140.5t89 -39.5q57 0 85 32.5t28 90.5q0 44 -20 75t-55 47.5t-81 29.5t-98.5 20t-107 18.5t-107 24.5t-98.5 40t-81 63.5t-55 95.5t-20 135q0 284 293 329v4q-98 15 -156.5 87.5t-58.5 173.5q0 342 589 342
q87 0 161 -11.5t143.5 -39.5t120 -72t84 -113t40.5 -158zM629 518q0 -86 25.5 -126t88.5 -40q64 0 90.5 40t26.5 126t-26.5 126t-90.5 40q-63 0 -88.5 -40t-25.5 -126z" />
    <glyph glyph-name="dieresis" unicode="&#xa8;" horiz-adv-x="569" 
d="M-121 1241v266h348v-266h-348zM342 1241v266h348v-266h-348z" />
    <glyph glyph-name="copyright" unicode="&#xa9;" horiz-adv-x="1638" 
d="M819 -45q-126 0 -244.5 33t-220.5 98.5t-178.5 157.5t-120 217.5t-43.5 269.5t43.5 269.5t120 217.5t178.5 157.5t220.5 98.5t244.5 33q125 0 243.5 -33t220.5 -98.5t178.5 -157.5t120.5 -217.5t44 -269.5t-44 -269.5t-120.5 -217.5t-178.5 -157.5t-220.5 -98.5
t-243.5 -33zM1368 731q0 170 -75 304.5t-200 207t-274 72.5q-113 0 -214 -43t-175 -118.5t-117 -185t-43 -237.5t43 -237.5t117 -185t175 -118.5t214 -43q149 0 274 72.5t200 207t75 304.5zM1026 618h197q-22 -155 -126 -241t-245 -86q-192 0 -311 127.5t-119 318.5
q0 197 115.5 323t310.5 126q144 0 243 -83t123 -237h-188q-13 66 -61.5 96.5t-116.5 30.5q-93 0 -144 -67t-51 -185q0 -111 55.5 -183.5t143.5 -72.5q75 0 121.5 32t52.5 101z" />
    <glyph glyph-name="ordfeminine" unicode="&#xaa;" horiz-adv-x="819" 
d="M303 1204h-278q9 130 98 180t264 50q192 0 295.5 -57t103.5 -173v-344q0 -84 54 -112v-3h-346q-19 59 -19 123h-4q-22 -70 -96 -106.5t-162 -36.5q-114 0 -168.5 55.5t-54.5 137.5q0 69 26.5 115t69 66t93.5 30t102.5 12t94 6t69 19t26.5 44q0 30 -21.5 47t-54.5 17
q-92 0 -92 -70zM475 1042v43h-4q-13 -20 -43 -33.5t-57 -20.5t-48.5 -26.5t-21.5 -50.5q0 -27 19.5 -44t56.5 -17q98 0 98 149z" />
    <glyph glyph-name="guillemotleft" unicode="&#xab;" 
d="M156 557l241 285h371l-244 -285l246 -297h-373zM709 557l241 285h371l-244 -285l246 -297h-373z" />
    <glyph glyph-name="logicalnot" unicode="&#xac;" horiz-adv-x="1228" 
d="M57 672v266h1114v-762h-266v496h-848z" />
    <glyph glyph-name="uni00AD" unicode="&#xad;" horiz-adv-x="1024" 
d="M143 389v336h738v-336h-738z" />
    <glyph glyph-name="registered" unicode="&#xae;" horiz-adv-x="1638" 
d="M694 662v-351h-192v844h315q176 0 265 -58t89 -200q0 -114 -60 -165t-175 -56l213 -365h-193l-190 351h-72zM694 813h162q58 0 84.5 22t26.5 83q0 29 -14.5 47.5t-41 26.5t-47.5 10t-51 2h-119v-191zM819 -45q-126 0 -244.5 33t-220.5 98.5t-178.5 157.5t-120 217.5
t-43.5 269.5t43.5 269.5t120 217.5t178.5 157.5t220.5 98.5t244.5 33q125 0 243.5 -33t220.5 -98.5t178.5 -157.5t120.5 -217.5t44 -269.5t-44 -269.5t-120.5 -217.5t-178.5 -157.5t-220.5 -98.5t-243.5 -33zM1368 731q0 170 -75 304.5t-200 207t-274 72.5q-113 0 -214 -43
t-175 -118.5t-117 -185t-43 -237.5t43 -237.5t117 -185t175 -118.5t214 -43q149 0 274 72.5t200 207t75 304.5z" />
    <glyph glyph-name="macron" unicode="&#xaf;" horiz-adv-x="569" 
d="M-61 1290v185h696v-185h-696z" />
    <glyph glyph-name="degree" unicode="&#xb0;" horiz-adv-x="819" 
d="M117 1141q0 125 84.5 209t208.5 84t208 -84t84 -209t-84 -209t-208 -84t-208.5 84t-84.5 209zM264 1141q0 -63 41.5 -104.5t104.5 -41.5t104 41.5t41 104.5t-41 104t-104 41t-104.5 -41t-41.5 -104z" />
    <glyph glyph-name="plusminus" unicode="&#xb1;" horiz-adv-x="1228" 
d="M479 856v258h266v-258h426v-266h-426v-258h-266v258h-422v266h422zM57 0v266h1114v-266h-1114z" />
    <glyph glyph-name="twosuperior" unicode="&#xb2;" horiz-adv-x="886" 
d="M352 1147h-332q-2 80 31 138t93.5 89.5t131.5 45.5t156 14q97 0 175.5 -13.5t141.5 -42.5t97.5 -80t34.5 -120q0 -74 -30.5 -126.5t-78.5 -80t-107 -46.5t-117.5 -31t-106.5 -26.5t-78.5 -41.5t-30.5 -68h522v-185h-834v101q0 81 22 144.5t58 102t82 68.5t94 46.5
t94 33.5t82 30.5t58 37.5t22 55q0 32 -23.5 55t-49.5 23q-58 0 -82.5 -37.5t-24.5 -85.5z" />
    <glyph glyph-name="threesuperior" unicode="&#xb3;" horiz-adv-x="886" 
d="M8 807h334q0 -46 20 -66q23 -20 74 -20q82 0 82 84q0 54 -31.5 78t-80.5 24h-134v170h131q121 0 121 94q0 82 -88 82q-43 0 -64 -17t-22 -56h-323q7 72 43.5 124t94 79t121.5 39t140 12q95 0 171.5 -12.5t139.5 -39.5t97 -76t34 -116q0 -85 -67.5 -131t-161.5 -51v-4
q110 -13 175 -64.5t65 -148.5q0 -244 -443 -244q-69 0 -123.5 5t-115 21t-100 43.5t-65 76t-24.5 114.5z" />
    <glyph glyph-name="acute" unicode="&#xb4;" horiz-adv-x="569" 
d="M74 1229l202 303h431l-355 -303h-278z" />
    <glyph glyph-name="mu" unicode="&#xb5;" horiz-adv-x="1441" 
d="M627 -6v-416h-537v1536h537v-668q0 -64 20 -89t70 -25q54 0 76 28t22 101v653h537v-1114h-521v190h-4q-77 -152 -200 -196z" />
    <glyph glyph-name="paragraph" unicode="&#xb6;" horiz-adv-x="1269" 
d="M487 -362v1107q-220 0 -338 93.5t-118 259.5q0 107 37.5 180.5t109 112.5t157 55t200.5 16h643v-1824h-246v1640h-199v-1640h-246z" />
    <glyph glyph-name="periodcentered" unicode="&#xb7;" horiz-adv-x="739" 
d="M371 348q-87 0 -148 61t-61 148t61 148t148 61q86 0 147.5 -61.5t61.5 -147.5t-61.5 -147.5t-147.5 -61.5z" />
    <glyph glyph-name="cedilla" unicode="&#xb8;" horiz-adv-x="569" 
d="M221 0h119l-82 -135q27 8 78 8q35 0 66 -6.5t62 -22t49.5 -48t18.5 -79.5q0 -117 -60.5 -159.5t-192.5 -42.5q-169 0 -277 65l43 92q120 -47 180 -47q37 0 70 26t33 54q0 34 -31.5 54t-67.5 20q-11 0 -22 -3t-26 -9.5t-21 -8.5l-54 49z" />
    <glyph glyph-name="onesuperior" unicode="&#xb9;" horiz-adv-x="886" 
d="M100 1225v100l189 82h348v-834h-348v652h-189z" />
    <glyph glyph-name="ordmasculine" unicode="&#xba;" horiz-adv-x="841" 
d="M356 1192v-225q0 -28 18 -43t48 -15q65 0 65 58v225q0 57 -65 57q-66 0 -66 -57zM422 725q-104 0 -174 14t-126.5 52t-83 109t-26.5 179q0 87 18.5 150t51 102.5t85.5 62.5t113 31.5t142 8.5q104 0 174 -14.5t126 -52t82.5 -109t26.5 -179.5t-26.5 -179t-82.5 -109
t-126 -52t-174 -14z" />
    <glyph glyph-name="guillemotright" unicode="&#xbb;" 
d="M1081 842l242 -285l-242 -297h-372l245 297l-243 285h370zM528 842l242 -285l-242 -297h-372l245 297l-243 285h370z" />
    <glyph glyph-name="onequarter" unicode="&#xbc;" horiz-adv-x="2217" 
d="M2161 156h-138v-156h-311v156h-418v139l271 539h458v-506h138v-172zM1524 328h188v366h-4zM1591 1434l-800 -1479h-226l799 1479h227zM100 1225v100l189 82h348v-834h-348v652h-189z" />
    <glyph glyph-name="onehalf" unicode="&#xbd;" horiz-adv-x="2217" 
d="M1683 571h-331q-2 80 31 138t93.5 89.5t131 45.5t155.5 14q97 0 175.5 -13.5t141.5 -42.5t97.5 -80t34.5 -120q0 -74 -30.5 -126.5t-78.5 -80t-106.5 -46.5t-117.5 -31.5t-107 -27t-78.5 -42t-30.5 -68.5h522v-182h-833v100q0 81 22 144.5t58 102t82 68.5t94 46.5
t94 33.5t82 30.5t58 37.5t22 55q0 32 -24 55t-50 23q-58 0 -82.5 -37.5t-24.5 -85.5zM1550 1434l-800 -1479h-226l799 1479h227zM100 1225v100l189 82h348v-834h-348v652h-189z" />
    <glyph glyph-name="threequarters" unicode="&#xbe;" horiz-adv-x="2217" 
d="M8 807h334q0 -46 20 -66q23 -20 74 -20q82 0 82 84q0 54 -31.5 78t-80.5 24h-134v170h131q121 0 121 94q0 82 -88 82q-43 0 -64 -17t-22 -56h-323q7 72 43.5 124t94 79t121.5 39t140 12q95 0 171.5 -12.5t139.5 -39.5t97 -76t34 -116q0 -85 -67.5 -131t-161.5 -51v-4
q110 -13 175 -64.5t65 -148.5q0 -244 -443 -244q-69 0 -123.5 5t-115 21t-100 43.5t-65 76t-24.5 114.5zM1673 1434l-801 -1479h-225l799 1479h227zM2161 156h-138v-156h-311v156h-418v139l271 539h458v-506h138v-172zM1524 328h188v366h-4z" />
    <glyph glyph-name="questiondown" unicode="&#xbf;" horiz-adv-x="1366" 
d="M416 498h493v-62q0 -63 -16.5 -111t-42.5 -76t-57 -50t-62.5 -40.5t-57.5 -39t-42.5 -53t-16.5 -76.5q0 -42 27 -71.5t72 -29.5q54 0 83 45.5t29 110.5v57h480v-116q0 -88 -32 -155t-102 -118.5t-192.5 -78.5t-294.5 -27q-610 0 -610 389q0 85 19 146t49 94t66.5 55
t73 37.5t66.5 33.5t49 52t19 84zM418 643v471h491v-471h-491z" />
    <glyph glyph-name="Agrave" unicode="&#xc0;" horiz-adv-x="1441" 
d="M-39 0l385 1462h758l377 -1462h-566l-41 229h-303l-41 -229h-569zM729 1196l-113 -684h220l-103 684h-4zM301 1878h426l205 -303h-283z" />
    <glyph glyph-name="Aacute" unicode="&#xc1;" horiz-adv-x="1441" 
d="M-39 0l385 1462h758l377 -1462h-566l-41 229h-303l-41 -229h-569zM729 1196l-113 -684h220l-103 684h-4zM510 1575l203 303h430l-355 -303h-278z" />
    <glyph glyph-name="Acircumflex" unicode="&#xc2;" horiz-adv-x="1441" 
d="M-39 0l385 1462h758l377 -1462h-566l-41 229h-303l-41 -229h-569zM729 1196l-113 -684h220l-103 684h-4zM305 1575l248 303h336l250 -303h-305l-113 151l-115 -151h-301z" />
    <glyph glyph-name="Atilde" unicode="&#xc3;" horiz-adv-x="1441" 
d="M-39 0l385 1462h758l377 -1462h-566l-41 229h-303l-41 -229h-569zM729 1196l-113 -684h220l-103 684h-4zM958 1847h160q-35 -270 -266 -270q-56 0 -154 37t-133 37q-31 0 -53 -25.5t-31 -58.5h-162q10 106 74 192q73 94 178 94q59 0 168 -41q102 -40 127 -40
q34 0 58.5 21t33.5 54z" />
    <glyph glyph-name="Adieresis" unicode="&#xc4;" horiz-adv-x="1441" 
d="M-39 0l385 1462h758l377 -1462h-566l-41 229h-303l-41 -229h-569zM729 1196l-113 -684h220l-103 684h-4zM315 1587v266h349v-266h-349zM778 1587v266h348v-266h-348z" />
    <glyph glyph-name="Aring" unicode="&#xc5;" horiz-adv-x="1441" 
d="M-39 0l385 1462h758l377 -1462h-566l-41 229h-303l-41 -229h-569zM729 1196l-113 -684h220l-103 684h-4zM709 1534q-50 0 -95 8t-86 26.5t-65.5 52.5t-24.5 81q0 49 27 86t71 56t89 27.5t92 8.5t92.5 -8t91.5 -26t74.5 -54t28.5 -86q6 -78 -78.5 -125t-216.5 -47z
M721 1636q31 0 54.5 21t23.5 51q0 28 -24.5 49t-53.5 21q-30 0 -54 -20t-24 -50q0 -33 23 -52.5t55 -19.5z" />
    <glyph glyph-name="AE" unicode="&#xc6;" horiz-adv-x="2048" 
d="M692 526h176v637h-4zM-70 0l572 1462h1491v-348h-580v-217h535v-311h-535v-238h580v-348h-1121v227h-266l-63 -227h-613z" />
    <glyph glyph-name="Ccedilla" unicode="&#xc7;" 
d="M1425 948h-544v133q0 58 -29.5 90.5t-89.5 32.5t-89.5 -32.5t-29.5 -90.5v-700q0 -58 29.5 -90.5t89.5 -32.5t89.5 32.5t29.5 90.5v160h544q0 -74 -7 -135t-26.5 -122.5t-51 -109t-82 -89.5t-118.5 -70t-162 -44t-210 -16l-55 -90q27 8 78 8q35 0 66 -6.5t62 -22
t49.5 -48t18.5 -79.5q0 -117 -61 -159.5t-193 -42.5q-168 0 -276 65l43 92q120 -47 180 -47q36 0 69 26t33 54q0 34 -31 54t-67 20q-11 0 -22.5 -3t-26.5 -9.5t-21 -8.5l-53 49l92 154q-119 7 -207.5 30t-152 67.5t-104.5 103.5t-65 147t-33.5 187t-10.5 235q0 154 13 266
t45 201.5t81.5 146t127 94t177 53t236.5 15.5q162 0 280 -26.5t191.5 -72t117.5 -118.5t60 -153.5t16 -188.5z" />
    <glyph glyph-name="Egrave" unicode="&#xc8;" horiz-adv-x="1290" 
d="M106 0v1462h1135v-348h-582v-217h535v-311h-535v-238h582v-348h-1135zM250 1878h426l205 -303h-283z" />
    <glyph glyph-name="Eacute" unicode="&#xc9;" horiz-adv-x="1290" 
d="M106 0v1462h1135v-348h-582v-217h535v-311h-535v-238h582v-348h-1135zM459 1575l203 303h430l-355 -303h-278z" />
    <glyph glyph-name="Ecircumflex" unicode="&#xca;" horiz-adv-x="1290" 
d="M106 0v1462h1135v-348h-582v-217h535v-311h-535v-238h582v-348h-1135zM254 1575l248 303h336l249 -303h-305l-112 151l-115 -151h-301z" />
    <glyph glyph-name="Edieresis" unicode="&#xcb;" horiz-adv-x="1290" 
d="M106 0v1462h1135v-348h-582v-217h535v-311h-535v-238h582v-348h-1135zM264 1587v266h348v-266h-348zM727 1587v266h348v-266h-348z" />
    <glyph glyph-name="Igrave" unicode="&#xcc;" horiz-adv-x="796" 
d="M123 0v1462h553v-1462h-553zM-20 1878h426l204 -303h-282z" />
    <glyph glyph-name="Iacute" unicode="&#xcd;" horiz-adv-x="796" 
d="M123 0v1462h553v-1462h-553zM188 1575l203 303h430l-354 -303h-279z" />
    <glyph glyph-name="Icircumflex" unicode="&#xce;" horiz-adv-x="796" 
d="M123 0v1462h553v-1462h-553zM-16 1575l247 303h336l250 -303h-305l-113 151l-114 -151h-301z" />
    <glyph glyph-name="Idieresis" unicode="&#xcf;" horiz-adv-x="796" 
d="M123 0v1462h553v-1462h-553zM-6 1587v266h348v-266h-348zM457 1587v266h348v-266h-348z" />
    <glyph glyph-name="Eth" unicode="&#xd0;" horiz-adv-x="1517" 
d="M801 981v-422h-137v-248h88q75 0 105 33.5t30 118.5v536q0 85 -30 118.5t-105 33.5h-88v-170h137zM1440 973v-484q0 -253 -128 -371t-411 -118h-782v561h-105v420h105v479l2 2h780q283 0 411 -118t128 -371z" />
    <glyph glyph-name="Ntilde" unicode="&#xd1;" horiz-adv-x="1705" 
d="M102 0v1462h715l311 -884h5v884h471v-1462h-711l-315 862h-5v-862h-471zM1092 1847h159q-35 -270 -266 -270q-55 0 -154 37t-133 37q-31 0 -53 -25.5t-31 -58.5h-161q10 107 73 192q73 94 179 94q58 0 167 -41q102 -40 127 -40q34 0 59 21t34 54z" />
    <glyph glyph-name="Ograve" unicode="&#xd2;" horiz-adv-x="1517" 
d="M80 731q0 154 13 266t45 201.5t81.5 146t127 94t177 53t236.5 15.5t236.5 -15.5t177 -53t127 -94t81.5 -146t45 -201.5t13 -266t-13 -266t-45 -201.5t-81.5 -146t-127 -94t-177 -53t-236.5 -15.5t-236.5 15.5t-177 53t-127 94t-81.5 146t-45 201.5t-13 266zM641 1081
v-700q0 -58 29.5 -90.5t89.5 -32.5t89.5 32.5t29.5 90.5v700q0 58 -29.5 90.5t-89.5 32.5t-89.5 -32.5t-29.5 -90.5zM340 1878h426l205 -303h-283z" />
    <glyph glyph-name="Oacute" unicode="&#xd3;" horiz-adv-x="1517" 
d="M80 731q0 154 13 266t45 201.5t81.5 146t127 94t177 53t236.5 15.5t236.5 -15.5t177 -53t127 -94t81.5 -146t45 -201.5t13 -266t-13 -266t-45 -201.5t-81.5 -146t-127 -94t-177 -53t-236.5 -15.5t-236.5 15.5t-177 53t-127 94t-81.5 146t-45 201.5t-13 266zM641 1081
v-700q0 -58 29.5 -90.5t89.5 -32.5t89.5 32.5t29.5 90.5v700q0 58 -29.5 90.5t-89.5 32.5t-89.5 -32.5t-29.5 -90.5zM549 1575l203 303h430l-355 -303h-278z" />
    <glyph glyph-name="Ocircumflex" unicode="&#xd4;" horiz-adv-x="1517" 
d="M80 731q0 154 13 266t45 201.5t81.5 146t127 94t177 53t236.5 15.5t236.5 -15.5t177 -53t127 -94t81.5 -146t45 -201.5t13 -266t-13 -266t-45 -201.5t-81.5 -146t-127 -94t-177 -53t-236.5 -15.5t-236.5 15.5t-177 53t-127 94t-81.5 146t-45 201.5t-13 266zM641 1081
v-700q0 -58 29.5 -90.5t89.5 -32.5t89.5 32.5t29.5 90.5v700q0 58 -29.5 90.5t-89.5 32.5t-89.5 -32.5t-29.5 -90.5zM344 1575l248 303h336l250 -303h-306l-112 151l-115 -151h-301z" />
    <glyph glyph-name="Otilde" unicode="&#xd5;" horiz-adv-x="1517" 
d="M80 731q0 154 13 266t45 201.5t81.5 146t127 94t177 53t236.5 15.5t236.5 -15.5t177 -53t127 -94t81.5 -146t45 -201.5t13 -266t-13 -266t-45 -201.5t-81.5 -146t-127 -94t-177 -53t-236.5 -15.5t-236.5 15.5t-177 53t-127 94t-81.5 146t-45 201.5t-13 266zM641 1081
v-700q0 -58 29.5 -90.5t89.5 -32.5t89.5 32.5t29.5 90.5v700q0 58 -29.5 90.5t-89.5 32.5t-89.5 -32.5t-29.5 -90.5zM997 1847h160q-35 -270 -266 -270q-55 0 -154 37t-133 37q-31 0 -53 -25.5t-31 -58.5h-162q10 106 74 192q73 94 178 94q59 0 168 -41q102 -40 127 -40
q34 0 58.5 21t33.5 54z" />
    <glyph glyph-name="Odieresis" unicode="&#xd6;" horiz-adv-x="1517" 
d="M80 731q0 154 13 266t45 201.5t81.5 146t127 94t177 53t236.5 15.5t236.5 -15.5t177 -53t127 -94t81.5 -146t45 -201.5t13 -266t-13 -266t-45 -201.5t-81.5 -146t-127 -94t-177 -53t-236.5 -15.5t-236.5 15.5t-177 53t-127 94t-81.5 146t-45 201.5t-13 266zM641 1081
v-700q0 -58 29.5 -90.5t89.5 -32.5t89.5 32.5t29.5 90.5v700q0 58 -29.5 90.5t-89.5 32.5t-89.5 -32.5t-29.5 -90.5zM354 1587v266h348v-266h-348zM817 1587v266h348v-266h-348z" />
    <glyph glyph-name="multiply" unicode="&#xd7;" horiz-adv-x="1228" 
d="M426 557l-369 369l189 188l368 -371l371 371l186 -188l-368 -369l368 -369l-184 -188l-373 371l-372 -371l-185 188z" />
    <glyph glyph-name="Oslash" unicode="&#xd8;" horiz-adv-x="1517" 
d="M879 926v155q0 58 -29.5 90.5t-89.5 32.5t-89.5 -32.5t-29.5 -90.5v-403zM879 381v383l-238 -248v-135q0 -58 29.5 -90.5t89.5 -32.5t89.5 32.5t29.5 90.5zM1520 1430l-164 -170q84 -164 84 -529q0 -154 -13 -266t-45 -201.5t-81.5 -146t-127 -94t-177 -53t-236.5 -15.5
q-192 0 -318 33.5t-202 109.5l-138 -143l-82 78l152 157q-92 164 -92 541q0 154 13 266t45 201.5t81.5 146t127 94t177 53t236.5 15.5q198 0 325.5 -35t204.5 -118l148 153z" />
    <glyph glyph-name="Ugrave" unicode="&#xd9;" horiz-adv-x="1554" 
d="M1442 1462v-936q0 -104 -20 -188t-53 -143t-84 -102.5t-105.5 -69.5t-125 -41.5t-134.5 -21t-142 -5.5t-142 5.5t-134 21t-124.5 41.5t-105.5 69.5t-84 102.5t-53 143t-20 188v936h553v-1052q0 -90 22 -117t88 -27t88.5 27t22.5 117v1052h553zM358 1878h426l205 -303
h-282z" />
    <glyph glyph-name="Uacute" unicode="&#xda;" horiz-adv-x="1554" 
d="M1442 1462v-936q0 -104 -20 -188t-53 -143t-84 -102.5t-105.5 -69.5t-125 -41.5t-134.5 -21t-142 -5.5t-142 5.5t-134 21t-124.5 41.5t-105.5 69.5t-84 102.5t-53 143t-20 188v936h553v-1052q0 -90 22 -117t88 -27t88.5 27t22.5 117v1052h553zM567 1575l203 303h430
l-354 -303h-279z" />
    <glyph glyph-name="Ucircumflex" unicode="&#xdb;" horiz-adv-x="1554" 
d="M1442 1462v-936q0 -104 -20 -188t-53 -143t-84 -102.5t-105.5 -69.5t-125 -41.5t-134.5 -21t-142 -5.5t-142 5.5t-134 21t-124.5 41.5t-105.5 69.5t-84 102.5t-53 143t-20 188v936h553v-1052q0 -90 22 -117t88 -27t88.5 27t22.5 117v1052h553zM362 1575l248 303h336
l250 -303h-305l-113 151l-114 -151h-302z" />
    <glyph glyph-name="Udieresis" unicode="&#xdc;" horiz-adv-x="1554" 
d="M1442 1462v-936q0 -104 -20 -188t-53 -143t-84 -102.5t-105.5 -69.5t-125 -41.5t-134.5 -21t-142 -5.5t-142 5.5t-134 21t-124.5 41.5t-105.5 69.5t-84 102.5t-53 143t-20 188v936h553v-1052q0 -90 22 -117t88 -27t88.5 27t22.5 117v1052h553zM373 1587v266h348v-266
h-348zM836 1587v266h348v-266h-348z" />
    <glyph glyph-name="Yacute" unicode="&#xdd;" horiz-adv-x="1327" 
d="M389 0v496l-450 966h577l143 -512h5l155 512h570l-447 -966v-496h-553zM453 1575l202 303h430l-354 -303h-278z" />
    <glyph glyph-name="Thorn" unicode="&#xde;" 
d="M672 950v-403h100q67 0 103 62.5t36 164.5q0 76 -42 126t-107 50h-90zM672 248v-248h-553v1462h553v-213h264q272 0 400 -123t128 -395q0 -225 -105 -354t-312 -129h-375z" />
    <glyph glyph-name="germandbls" unicode="&#xdf;" 
d="M635 0h-529v1065q0 234 161.5 338t494.5 104q314 0 463 -76t149 -257q0 -67 -22.5 -117t-64.5 -81t-92 -48.5t-116 -26.5v-4q156 -11 240 -90.5t84 -241.5v-254q0 -311 -404 -311h-245v246q106 0 106 100v350q0 51 -29.5 73.5t-80.5 14.5v232q63 0 87.5 20.5t24.5 81.5
q0 47 -24 70.5t-88 23.5q-63 0 -89 -29.5t-26 -92.5v-1090z" />
    <glyph glyph-name="agrave" unicode="&#xe0;" horiz-adv-x="1366" 
d="M539 762h-430q5 91 33 158t74 110.5t115 69.5t149 36.5t184 10.5q295 0 451.5 -94t156.5 -287v-573q0 -141 90 -189v-4h-535q-10 38 -19 104t-9 105h-4q-22 -81 -87.5 -137.5t-144.5 -80.5t-166 -24q-92 0 -160.5 26.5t-107.5 72.5t-57.5 101.5t-18.5 119.5
q0 91 25.5 158t68 104.5t98 61.5t117 32.5t123 13.5t117 9t98 13.5t68 32.5t25.5 62q0 50 -32 78.5t-83 28.5q-139 0 -139 -119zM799 496v67l-4 4q-16 -28 -50 -47.5t-69 -31t-68.5 -26t-54.5 -43t-21 -71.5t36 -72.5t81 -29.5q150 0 150 250zM289 1532h426l205 -303h-283z
" />
    <glyph glyph-name="aacute" unicode="&#xe1;" horiz-adv-x="1366" 
d="M539 762h-430q5 91 33 158t74 110.5t115 69.5t149 36.5t184 10.5q295 0 451.5 -94t156.5 -287v-573q0 -141 90 -189v-4h-535q-10 38 -19 104t-9 105h-4q-22 -81 -87.5 -137.5t-144.5 -80.5t-166 -24q-92 0 -160.5 26.5t-107.5 72.5t-57.5 101.5t-18.5 119.5
q0 91 25.5 158t68 104.5t98 61.5t117 32.5t123 13.5t117 9t98 13.5t68 32.5t25.5 62q0 50 -32 78.5t-83 28.5q-139 0 -139 -119zM799 496v67l-4 4q-16 -28 -50 -47.5t-69 -31t-68.5 -26t-54.5 -43t-21 -71.5t36 -72.5t81 -29.5q150 0 150 250zM498 1229l202 303h430
l-354 -303h-278z" />
    <glyph glyph-name="acircumflex" unicode="&#xe2;" horiz-adv-x="1366" 
d="M539 762h-430q5 91 33 158t74 110.5t115 69.5t149 36.5t184 10.5q295 0 451.5 -94t156.5 -287v-573q0 -141 90 -189v-4h-535q-10 38 -19 104t-9 105h-4q-22 -81 -87.5 -137.5t-144.5 -80.5t-166 -24q-92 0 -160.5 26.5t-107.5 72.5t-57.5 101.5t-18.5 119.5
q0 91 25.5 158t68 104.5t98 61.5t117 32.5t123 13.5t117 9t98 13.5t68 32.5t25.5 62q0 50 -32 78.5t-83 28.5q-139 0 -139 -119zM799 496v67l-4 4q-16 -28 -50 -47.5t-69 -31t-68.5 -26t-54.5 -43t-21 -71.5t36 -72.5t81 -29.5q150 0 150 250zM293 1229l248 303h336
l249 -303h-305l-112 151l-115 -151h-301z" />
    <glyph glyph-name="atilde" unicode="&#xe3;" horiz-adv-x="1366" 
d="M539 762h-430q5 91 33 158t74 110.5t115 69.5t149 36.5t184 10.5q295 0 451.5 -94t156.5 -287v-573q0 -141 90 -189v-4h-535q-10 38 -19 104t-9 105h-4q-22 -81 -87.5 -137.5t-144.5 -80.5t-166 -24q-92 0 -160.5 26.5t-107.5 72.5t-57.5 101.5t-18.5 119.5
q0 91 25.5 158t68 104.5t98 61.5t117 32.5t123 13.5t117 9t98 13.5t68 32.5t25.5 62q0 50 -32 78.5t-83 28.5q-139 0 -139 -119zM799 496v67l-4 4q-16 -28 -50 -47.5t-69 -31t-68.5 -26t-54.5 -43t-21 -71.5t36 -72.5t81 -29.5q150 0 150 250zM946 1501h160
q-35 -270 -266 -270q-56 0 -154 37t-133 37q-31 0 -53 -25.5t-31 -58.5h-162q10 106 74 192q73 94 178 94q59 0 168 -41q7 -3 29 -11.5t30.5 -12t24 -8.5t25.5 -7t18 -2q34 0 58.5 21t33.5 55z" />
    <glyph glyph-name="adieresis" unicode="&#xe4;" horiz-adv-x="1366" 
d="M539 762h-430q5 91 33 158t74 110.5t115 69.5t149 36.5t184 10.5q295 0 451.5 -94t156.5 -287v-573q0 -141 90 -189v-4h-535q-10 38 -19 104t-9 105h-4q-22 -81 -87.5 -137.5t-144.5 -80.5t-166 -24q-92 0 -160.5 26.5t-107.5 72.5t-57.5 101.5t-18.5 119.5
q0 91 25.5 158t68 104.5t98 61.5t117 32.5t123 13.5t117 9t98 13.5t68 32.5t25.5 62q0 50 -32 78.5t-83 28.5q-139 0 -139 -119zM799 496v67l-4 4q-16 -28 -50 -47.5t-69 -31t-68.5 -26t-54.5 -43t-21 -71.5t36 -72.5t81 -29.5q150 0 150 250zM303 1241v266h348v-266h-348z
M766 1241v266h348v-266h-348z" />
    <glyph glyph-name="aring" unicode="&#xe5;" horiz-adv-x="1366" 
d="M539 762h-430q5 91 33 158t74 110.5t115 69.5t149 36.5t184 10.5q295 0 451.5 -94t156.5 -287v-573q0 -141 90 -189v-4h-535q-10 38 -19 104t-9 105h-4q-22 -81 -87.5 -137.5t-144.5 -80.5t-166 -24q-92 0 -160.5 26.5t-107.5 72.5t-57.5 101.5t-18.5 119.5
q0 91 25.5 158t68 104.5t98 61.5t117 32.5t123 13.5t117 9t98 13.5t68 32.5t25.5 62q0 50 -32 78.5t-83 28.5q-139 0 -139 -119zM799 496v67l-4 4q-16 -28 -50 -47.5t-69 -31t-68.5 -26t-54.5 -43t-21 -71.5t36 -72.5t81 -29.5q150 0 150 250zM696 1188q-50 0 -94.5 8
t-86 26.5t-65.5 52.5t-24 81q0 49 27 86t71 56t89 27.5t92 8.5t92.5 -8t91.5 -26t74 -54t28 -86q6 -78 -78.5 -125t-216.5 -47zM709 1290q31 0 54 21t23 51q0 28 -24 49t-53 21q-30 0 -54 -20t-24 -50q0 -33 23 -52.5t55 -19.5z" />
    <glyph glyph-name="ae" unicode="&#xe6;" horiz-adv-x="2009" 
d="M1223 696h247q0 168 -129 168q-32 0 -54 -9.5t-34.5 -23.5t-19.5 -37.5t-8.5 -45t-1.5 -52.5zM547 754h-443q0 393 488 393q167 0 262.5 -36t149.5 -103q125 139 397 139q159 0 263.5 -35.5t168 -116.5t90 -199t27.5 -296h-727v-127q10 -131 120 -131q111 0 121 131h480
q-33 -406 -605 -406q-217 0 -332 52t-165 180q-30 -73 -104.5 -127.5t-159 -79.5t-166.5 -25q-172 0 -260.5 85.5t-88.5 256.5q0 100 30.5 171t80.5 106.5t113.5 56.5t130 24.5t130 7.5t113.5 8.5t80.5 24.5t30.5 58q0 52 -31.5 77t-76.5 25q-47 0 -82 -34.5t-35 -79.5z
M768 481v54l-4 4q-18 -26 -57.5 -46t-74 -31.5t-62 -39t-27.5 -70.5q0 -36 27.5 -59t64.5 -23q70 0 99 49t34 162z" />
    <glyph glyph-name="ccedilla" unicode="&#xe7;" horiz-adv-x="1327" 
d="M1292 680h-491v61q0 54 -25.5 78.5t-77.5 24.5t-77 -24t-25 -79v-372q0 -55 25 -79t77 -24t77.5 24.5t25.5 78.5v82h491q-2 -49 -9 -91.5t-24.5 -93.5t-44.5 -92t-72.5 -81t-105 -67.5t-145.5 -44.5t-191 -18h-4l-59 -98q27 8 78 8q35 0 66 -6.5t62 -22t49.5 -48
t18.5 -79.5q0 -117 -61 -159.5t-193 -42.5q-168 0 -276 65l43 92q120 -47 180 -47q37 0 70 26t33 54q0 34 -31.5 54t-67.5 20q-11 0 -22 -3t-26 -9.5t-21 -8.5l-54 49l97 162q-150 10 -250 49.5t-158 114.5t-82 175.5t-24 246.5q0 160 28.5 266t100 182t194 110t309.5 34
q144 0 250.5 -26.5t168.5 -67.5t101 -105t53 -125.5t19 -142.5z" />
    <glyph glyph-name="egrave" unicode="&#xe8;" horiz-adv-x="1402" 
d="M856 377h477q8 -79 -57.5 -181.5t-161.5 -150.5q-155 -78 -414 -78q-150 0 -260.5 28t-180.5 76.5t-112 124.5t-58.5 162t-16.5 199q0 111 19 198.5t64.5 162.5t119 124.5t186 77t260.5 27.5q99 0 178 -10t140.5 -31.5t107.5 -50.5t78 -72t53.5 -90.5t33.5 -112
t16.5 -130t4.5 -150.5h-758q0 -118 12.5 -171.5t40 -70t89.5 -16.5q69 0 99.5 32t39.5 103zM569 696h285q0 189 -141 189q-144 0 -144 -189zM283 1532h426l204 -303h-282z" />
    <glyph glyph-name="eacute" unicode="&#xe9;" horiz-adv-x="1402" 
d="M856 377h477q8 -79 -57.5 -181.5t-161.5 -150.5q-155 -78 -414 -78q-150 0 -260.5 28t-180.5 76.5t-112 124.5t-58.5 162t-16.5 199q0 111 19 198.5t64.5 162.5t119 124.5t186 77t260.5 27.5q99 0 178 -10t140.5 -31.5t107.5 -50.5t78 -72t53.5 -90.5t33.5 -112
t16.5 -130t4.5 -150.5h-758q0 -118 12.5 -171.5t40 -70t89.5 -16.5q69 0 99.5 32t39.5 103zM569 696h285q0 189 -141 189q-144 0 -144 -189zM492 1229l202 303h430l-354 -303h-278z" />
    <glyph glyph-name="ecircumflex" unicode="&#xea;" horiz-adv-x="1402" 
d="M856 377h477q8 -79 -57.5 -181.5t-161.5 -150.5q-155 -78 -414 -78q-150 0 -260.5 28t-180.5 76.5t-112 124.5t-58.5 162t-16.5 199q0 111 19 198.5t64.5 162.5t119 124.5t186 77t260.5 27.5q99 0 178 -10t140.5 -31.5t107.5 -50.5t78 -72t53.5 -90.5t33.5 -112
t16.5 -130t4.5 -150.5h-758q0 -118 12.5 -171.5t40 -70t89.5 -16.5q69 0 99.5 32t39.5 103zM569 696h285q0 189 -141 189q-144 0 -144 -189zM287 1229l248 303h335l250 -303h-305l-113 151l-114 -151h-301z" />
    <glyph glyph-name="edieresis" unicode="&#xeb;" horiz-adv-x="1402" 
d="M856 377h477q8 -79 -57.5 -181.5t-161.5 -150.5q-155 -78 -414 -78q-150 0 -260.5 28t-180.5 76.5t-112 124.5t-58.5 162t-16.5 199q0 111 19 198.5t64.5 162.5t119 124.5t186 77t260.5 27.5q99 0 178 -10t140.5 -31.5t107.5 -50.5t78 -72t53.5 -90.5t33.5 -112
t16.5 -130t4.5 -150.5h-758q0 -118 12.5 -171.5t40 -70t89.5 -16.5q69 0 99.5 32t39.5 103zM569 696h285q0 189 -141 189q-144 0 -144 -189zM297 1241v266h348v-266h-348zM760 1241v266h348v-266h-348z" />
    <glyph glyph-name="igrave" unicode="&#xec;" horiz-adv-x="720" 
d="M96 0v1114h529v-1114h-529zM-59 1532h426l204 -303h-282z" />
    <glyph glyph-name="iacute" unicode="&#xed;" horiz-adv-x="720" 
d="M96 0v1114h529v-1114h-529zM150 1229l202 303h430l-354 -303h-278z" />
    <glyph glyph-name="icircumflex" unicode="&#xee;" horiz-adv-x="720" 
d="M96 0v1114h529v-1114h-529zM-55 1229l248 303h335l250 -303h-305l-113 151l-114 -151h-301z" />
    <glyph glyph-name="idieresis" unicode="&#xef;" horiz-adv-x="720" 
d="M96 0v1114h529v-1114h-529zM-45 1241v266h348v-266h-348zM418 1241v266h348v-266h-348z" />
    <glyph glyph-name="eth" unicode="&#xf0;" horiz-adv-x="1402" 
d="M600 623v-267q0 -90 100 -90q101 0 101 90v267q0 92 -101 92q-100 0 -100 -92zM178 1354l363 108q21 -13 71 -42.5t78 -47.5l268 90l142 -170l-193 -63q92 -68 162 -138t132 -160.5t95 -202.5t33 -239q0 -67 -7 -122t-25 -110t-48 -97.5t-78.5 -79.5t-113.5 -61t-155 -38
t-202 -14q-155 0 -269 27t-182 71t-108.5 113.5t-54.5 142t-14 168.5q0 91 12 160t47.5 136t94.5 112t157.5 75.5t232.5 37.5q-41 47 -86 92l-233 -78l-125 176l168 55q-64 47 -162 99z" />
    <glyph glyph-name="ntilde" unicode="&#xf1;" horiz-adv-x="1441" 
d="M90 0v1114h520v-190h4q62 122 147.5 172.5t223.5 50.5q174 0 270.5 -103t96.5 -276v-768h-537v668q0 64 -20 89t-70 25q-54 0 -76 -28t-22 -101v-653h-537zM958 1501h160q-35 -270 -266 -270q-56 0 -154 37t-133 37q-31 0 -53 -25.5t-31 -58.5h-162q10 106 74 192
q73 94 178 94q59 0 168 -41q7 -3 29 -11.5t30.5 -12t24 -8.5t25.5 -7t18 -2q34 0 58.5 21t33.5 55z" />
    <glyph glyph-name="ograve" unicode="&#xf2;" horiz-adv-x="1402" 
d="M600 745v-376q0 -95 100 -95q101 0 101 95v376q0 95 -101 95q-100 0 -100 -95zM700 -33q-90 0 -160.5 7t-137.5 24t-116.5 46t-91 74t-67.5 106.5t-40.5 145t-14.5 187.5t14.5 187.5t40.5 145t67.5 106.5t91 74t116.5 46t137.5 24t160.5 7t160.5 -7t137.5 -24t116.5 -46
t91.5 -74t68 -106.5t40.5 -145t14.5 -187.5t-14.5 -187.5t-40.5 -145t-68 -106.5t-91.5 -74t-116.5 -46t-137.5 -24t-160.5 -7zM283 1532h426l204 -303h-282z" />
    <glyph glyph-name="oacute" unicode="&#xf3;" horiz-adv-x="1402" 
d="M600 745v-376q0 -95 100 -95q101 0 101 95v376q0 95 -101 95q-100 0 -100 -95zM700 -33q-90 0 -160.5 7t-137.5 24t-116.5 46t-91 74t-67.5 106.5t-40.5 145t-14.5 187.5t14.5 187.5t40.5 145t67.5 106.5t91 74t116.5 46t137.5 24t160.5 7t160.5 -7t137.5 -24t116.5 -46
t91.5 -74t68 -106.5t40.5 -145t14.5 -187.5t-14.5 -187.5t-40.5 -145t-68 -106.5t-91.5 -74t-116.5 -46t-137.5 -24t-160.5 -7zM492 1229l202 303h430l-354 -303h-278z" />
    <glyph glyph-name="ocircumflex" unicode="&#xf4;" horiz-adv-x="1402" 
d="M600 745v-376q0 -95 100 -95q101 0 101 95v376q0 95 -101 95q-100 0 -100 -95zM700 -33q-90 0 -160.5 7t-137.5 24t-116.5 46t-91 74t-67.5 106.5t-40.5 145t-14.5 187.5t14.5 187.5t40.5 145t67.5 106.5t91 74t116.5 46t137.5 24t160.5 7t160.5 -7t137.5 -24t116.5 -46
t91.5 -74t68 -106.5t40.5 -145t14.5 -187.5t-14.5 -187.5t-40.5 -145t-68 -106.5t-91.5 -74t-116.5 -46t-137.5 -24t-160.5 -7zM287 1229l248 303h335l250 -303h-305l-113 151l-114 -151h-301z" />
    <glyph glyph-name="otilde" unicode="&#xf5;" horiz-adv-x="1402" 
d="M600 745v-376q0 -95 100 -95q101 0 101 95v376q0 95 -101 95q-100 0 -100 -95zM700 -33q-90 0 -160.5 7t-137.5 24t-116.5 46t-91 74t-67.5 106.5t-40.5 145t-14.5 187.5t14.5 187.5t40.5 145t67.5 106.5t91 74t116.5 46t137.5 24t160.5 7t160.5 -7t137.5 -24t116.5 -46
t91.5 -74t68 -106.5t40.5 -145t14.5 -187.5t-14.5 -187.5t-40.5 -145t-68 -106.5t-91.5 -74t-116.5 -46t-137.5 -24t-160.5 -7zM940 1501h160q-35 -270 -266 -270q-55 0 -153.5 37t-133.5 37q-31 0 -53 -25.5t-31 -58.5h-162q10 106 74 192q73 94 178 94q59 0 168 -41
q7 -3 29 -11.5t30.5 -12t24 -8.5t25.5 -7t18 -2q34 0 58.5 21t33.5 55z" />
    <glyph glyph-name="odieresis" unicode="&#xf6;" horiz-adv-x="1402" 
d="M600 745v-376q0 -95 100 -95q101 0 101 95v376q0 95 -101 95q-100 0 -100 -95zM700 -33q-90 0 -160.5 7t-137.5 24t-116.5 46t-91 74t-67.5 106.5t-40.5 145t-14.5 187.5t14.5 187.5t40.5 145t67.5 106.5t91 74t116.5 46t137.5 24t160.5 7t160.5 -7t137.5 -24t116.5 -46
t91.5 -74t68 -106.5t40.5 -145t14.5 -187.5t-14.5 -187.5t-40.5 -145t-68 -106.5t-91.5 -74t-116.5 -46t-137.5 -24t-160.5 -7zM297 1241v266h348v-266h-348zM760 1241v266h348v-266h-348z" />
    <glyph glyph-name="divide" unicode="&#xf7;" horiz-adv-x="1228" 
d="M1171 424h-1114v266h1114v-266zM416 1014q0 85 58.5 144t143.5 59t144 -59t59 -144t-59 -144t-144 -59t-143.5 59t-58.5 144zM416 100q0 85 58.5 144t143.5 59t144 -59t59 -144t-59 -143.5t-144 -58.5t-143.5 58.5t-58.5 143.5z" />
    <glyph glyph-name="oslash" unicode="&#xf8;" horiz-adv-x="1402" 
d="M600 745v-210l201 186v24q0 95 -101 95q-100 0 -100 -95zM1262 1147l81 -86l-108 -100q94 -133 94 -404q0 -104 -14.5 -187.5t-40.5 -145t-68 -106.5t-91.5 -74t-116.5 -46t-137.5 -24t-160.5 -7q-149 0 -256 21t-182 73l-115 -106l-81 86l110 102q-104 135 -104 414
q0 104 14.5 187.5t40.5 145t67.5 106.5t91 74t116.5 46t137.5 24t160.5 7q156 0 266.5 -23t184.5 -80zM801 369v190l-201 -186v-4q0 -95 100 -95q101 0 101 95z" />
    <glyph glyph-name="ugrave" unicode="&#xf9;" horiz-adv-x="1441" 
d="M1352 1114v-1114h-521v190h-4q-62 -122 -147 -172.5t-223 -50.5q-174 0 -270.5 103t-96.5 276v768h537v-668q0 -64 20 -89t70 -25q54 0 76 28t22 101v653h537zM301 1532h426l205 -303h-283z" />
    <glyph glyph-name="uacute" unicode="&#xfa;" horiz-adv-x="1441" 
d="M1352 1114v-1114h-521v190h-4q-62 -122 -147 -172.5t-223 -50.5q-174 0 -270.5 103t-96.5 276v768h537v-668q0 -64 20 -89t70 -25q54 0 76 28t22 101v653h537zM510 1229l203 303h430l-355 -303h-278z" />
    <glyph glyph-name="ucircumflex" unicode="&#xfb;" horiz-adv-x="1441" 
d="M1352 1114v-1114h-521v190h-4q-62 -122 -147 -172.5t-223 -50.5q-174 0 -270.5 103t-96.5 276v768h537v-668q0 -64 20 -89t70 -25q54 0 76 28t22 101v653h537zM305 1229l248 303h336l250 -303h-305l-113 151l-115 -151h-301z" />
    <glyph glyph-name="udieresis" unicode="&#xfc;" horiz-adv-x="1441" 
d="M1352 1114v-1114h-521v190h-4q-62 -122 -147 -172.5t-223 -50.5q-174 0 -270.5 103t-96.5 276v768h537v-668q0 -64 20 -89t70 -25q54 0 76 28t22 101v653h537zM315 1241v266h349v-266h-349zM778 1241v266h348v-266h-348z" />
    <glyph glyph-name="yacute" unicode="&#xfd;" horiz-adv-x="1327" 
d="M-35 1114h563l140 -723h4l125 723h565l-528 -1329q-32 -80 -137 -143.5t-257 -63.5h-299v242h103q162 0 162 98q0 39 -21 96zM453 1229l202 303h430l-354 -303h-278z" />
    <glyph glyph-name="thorn" unicode="&#xfe;" horiz-adv-x="1441" 
d="M836 459v188q0 67 -22.5 99t-74.5 32q-47 0 -73.5 -34.5t-26.5 -96.5v-188q0 -64 27 -95.5t69 -31.5q101 0 101 127zM627 1462v-528h4q100 213 350 213q185 0 280 -117t95 -387v-176q0 -139 -25 -236.5t-75.5 -155t-118.5 -83t-162 -25.5q-112 0 -200 52.5t-128 142.5h-4
v-584h-541v1884h525z" />
    <glyph glyph-name="ydieresis" unicode="&#xff;" horiz-adv-x="1327" 
d="M-35 1114h563l140 -723h4l125 723h565l-528 -1329q-32 -80 -137 -143.5t-257 -63.5h-299v242h103q162 0 162 98q0 39 -21 96zM258 1241v266h348v-266h-348zM721 1241v266h348v-266h-348z" />
    <glyph glyph-name="dotlessi" unicode="&#x131;" horiz-adv-x="720" 
d="M96 0v1114h529v-1114h-529z" />
    <glyph glyph-name="Lslash" unicode="&#x141;" horiz-adv-x="1175" 
d="M659 745v-397h500v-348h-1053v555l-98 -35v320l98 34v588h553v-397l201 70v-320z" />
    <glyph glyph-name="lslash" unicode="&#x142;" horiz-adv-x="720" 
d="M625 682v-682h-529v526l-92 -26v352l92 27v583h529v-428l92 27v-352z" />
    <glyph glyph-name="OE" unicode="&#x152;" horiz-adv-x="2048" 
d="M860 381v700q0 58 -29.5 90.5t-89.5 32.5t-89 -32.5t-29 -90.5v-700q0 -58 29 -90.5t89 -32.5t89.5 32.5t29.5 90.5zM1993 1462v-348h-580v-217h533v-311h-533v-238h580v-348h-826q-18 0 -32 -1t-29 -4l-22.5 -4.5t-25 -6.5l-24.5 -7q-82 -22 -243 -22q-117 0 -209.5 9.5
t-166.5 32t-128 53.5t-94 80t-65 105t-40 135t-21 164t-6 197q0 147 12.5 254.5t43 198t81 149t129 99t184.5 58t249 17.5q141 0 231 -22l32 -8t33.5 -8t26.5 -4.5t33 -2.5h877z" />
    <glyph glyph-name="oe" unicode="&#x153;" horiz-adv-x="2048" 
d="M1264 696h235q0 75 -29.5 121.5t-83.5 46.5q-126 0 -122 -168zM797 369v376q0 95 -101 95q-100 0 -100 -95v-376q0 -95 100 -95q101 0 101 95zM1491 377h483q0 -91 -33.5 -162.5t-89 -117t-131 -76t-154.5 -42.5t-165 -12q-136 0 -230.5 34.5t-142.5 94.5
q-35 -54 -131.5 -91.5t-237.5 -37.5q-143 0 -247.5 28t-184 94t-119.5 182t-40 284q0 312 146.5 452t444.5 140q143 0 229 -35.5t138 -105.5q57 67 152 104t268 37q295 0 419.5 -157.5t112.5 -489.5h-727q0 -109 12 -164t36.5 -74.5t72.5 -19.5q56 0 83 32t36 103z" />
    <glyph glyph-name="Scaron" unicode="&#x160;" horiz-adv-x="1402" 
d="M1333 1061h-510q0 76 -20 110q-24 41 -107 41q-43 0 -70.5 -32.5t-27.5 -75.5t26.5 -75.5t71 -54t102 -39.5t121.5 -36t128 -39.5t121.5 -55.5t102 -77.5t71 -111t26.5 -152.5q0 -113 -33 -201t-90 -145t-139 -94t-174 -52.5t-201 -15.5q-65 0 -118.5 2t-114.5 8.5
t-110 17t-100 29t-89 43t-71.5 60t-54 79t-30.5 101.5t-6 127h543q3 -98 22 -139q26 -54 90 -54q55 0 91 36.5t36 90.5q0 52 -26 90t-70.5 61.5t-102 41.5t-121 34.5t-127 36t-121 51t-102 73t-70.5 108t-26 152.5q0 260 160 381.5t479 121.5q153 0 267.5 -24t185 -63.5
t113.5 -98.5t59 -121t16 -139zM535 1575l-248 303h301l114 -152l113 152h305l-250 -303h-335z" />
    <glyph glyph-name="scaron" unicode="&#x161;" horiz-adv-x="1290" 
d="M1223 791h-455q-3 48 -29 81t-75 33q-52 0 -74.5 -22t-22.5 -72q0 -41 37.5 -64t97 -31.5t132 -15.5t145 -24t132 -48t97 -96.5t37.5 -160.5q0 -207 -139 -305.5t-461 -98.5q-56 0 -109 3.5t-114.5 13.5t-113.5 26.5t-102 44.5t-84.5 64t-55.5 88.5t-21 116.5h479
q0 -54 23 -80q25 -31 80 -31q51 0 78.5 25.5t27.5 58.5q0 34 -28.5 57.5t-75.5 35.5t-106.5 25.5t-122 25.5t-122 37.5t-106.5 60t-75.5 94.5t-28.5 139q0 194 130 284.5t437 90.5q113 0 197.5 -8.5t161 -32t125 -62.5t76.5 -102.5t28 -150.5zM477 1229l-248 303h301
l115 -152l113 152h305l-250 -303h-336z" />
    <glyph glyph-name="Ydieresis" unicode="&#x178;" horiz-adv-x="1327" 
d="M389 0v496l-450 966h577l143 -512h5l155 512h570l-447 -966v-496h-553zM258 1587v266h348v-266h-348zM721 1587v266h348v-266h-348z" />
    <glyph glyph-name="Zcaron" unicode="&#x17d;" horiz-adv-x="1290" 
d="M45 1114v348h1208v-299l-575 -807h592v-356h-1270v299l590 815h-545zM477 1575l-248 303h301l115 -152l113 152h305l-250 -303h-336z" />
    <glyph glyph-name="zcaron" unicode="&#x17e;" horiz-adv-x="1175" 
d="M485 868h-401v246h1022v-221l-444 -639h471v-254h-1090v221zM420 1229l-248 303h301l115 -152l112 152h306l-250 -303h-336z" />
    <glyph glyph-name="florin" unicode="&#x192;" 
d="M137 -459l25 238h117q67 3 85 32t33 154l82 662h-217l19 123h215l34 313q11 101 33 168t64 114t106.5 68t159.5 21h407l-22 -230h-115q-99 0 -112 -121l-41 -333h211l-15 -123h-211l-86 -705q-7 -59 -15 -100t-21.5 -84t-32 -71t-46.5 -54t-66 -40.5t-90 -23t-118 -8.5
h-383z" />
    <glyph glyph-name="circumflex" unicode="&#x2c6;" horiz-adv-x="569" 
d="M-131 1229l248 303h336l249 -303h-305l-112 151l-115 -151h-301z" />
    <glyph glyph-name="caron" unicode="&#x2c7;" horiz-adv-x="569" 
d="M117 1229l-248 303h301l115 -152l112 152h305l-249 -303h-336z" />
    <glyph glyph-name="uni02C9" unicode="&#x2c9;" horiz-adv-x="569" 
d="M-61 1290v185h696v-185h-696z" />
    <glyph glyph-name="breve" unicode="&#x2d8;" horiz-adv-x="569" 
d="M-86 1540h162q12 -127 246 -127q143 0 176 127h159q-9 -155 -95.5 -233t-229.5 -78q-418 0 -418 311z" />
    <glyph glyph-name="dotaccent" unicode="&#x2d9;" horiz-adv-x="569" 
d="M111 1241v266h348v-266h-348z" />
    <glyph glyph-name="ring" unicode="&#x2da;" horiz-adv-x="569" 
d="M272 1188q-50 0 -94.5 8t-86 26.5t-65.5 52.5t-24 81q0 49 27 86t71 56t89 27.5t92 8.5t92.5 -8t91.5 -26t74 -54t28 -86q6 -78 -78.5 -125t-216.5 -47zM285 1290q31 0 54 21t23 51q0 28 -24 49t-53 21q-30 0 -54 -20t-24 -50q0 -33 23 -52.5t55 -19.5z" />
    <glyph glyph-name="ogonek" unicode="&#x2db;" horiz-adv-x="569" 
d="M492 43v-25q-41 -18 -67 -30t-70.5 -38t-71 -51t-47.5 -61.5t-21 -75.5q0 -46 30.5 -71t76.5 -25q11 0 21.5 1.5t22.5 5.5t20.5 6.5t22 9.5t20 10t21.5 12.5t18.5 12t20 13t17.5 11.5l41 -74q-88 -58 -160 -90.5t-149 -32.5q-228 0 -228 187q0 63 26.5 111.5t67.5 79.5
t108 54t129.5 35.5t150.5 24.5z" />
    <glyph glyph-name="tilde" unicode="&#x2dc;" horiz-adv-x="569" 
d="M522 1501h160q-35 -270 -266 -270q-56 0 -154 37t-133 37q-31 0 -53 -25.5t-31 -58.5h-162q10 106 74 192q73 94 178 94q59 0 168 -41q7 -3 29 -11.5t30.5 -12t24 -8.5t25.5 -7t18 -2q34 0 58.5 21t33.5 55z" />
    <glyph glyph-name="hungarumlaut" unicode="&#x2dd;" horiz-adv-x="569" 
d="M-117 1229l99 297h368l-196 -297h-271zM633 1229h-266l110 297h379z" />
    <glyph glyph-name="uni03A9" unicode="&#x3a9;" horiz-adv-x="1894" 
d="M424 311v8q-57 32 -108 76.5t-98 106t-75 144.5t-28 175q0 130 58 244t163.5 199t263.5 134.5t348 49.5t347.5 -48.5t262.5 -133.5t162.5 -201t57.5 -250q0 -90 -24 -165.5t-70 -135t-99 -104.5t-125 -91v-8h344v-311h-792v244q79 50 132.5 95.5t98.5 104.5t66.5 132
t21.5 163q0 170 -106 286t-273 116q-164 0 -276.5 -110.5t-112.5 -299.5q0 -157 86.5 -286.5t235.5 -200.5v-244h-799v311h338z" />
    <glyph glyph-name="uni03BC" unicode="&#x3bc;" horiz-adv-x="1441" 
d="M627 -6v-416h-537v1536h537v-668q0 -64 20 -89t70 -25q54 0 76 28t22 101v653h537v-1114h-521v190h-4q-77 -152 -200 -196z" />
    <glyph glyph-name="pi" unicode="&#x3c0;" horiz-adv-x="1599" 
d="M1536 760h-150v-389q0 -232 27 -371h-434q-43 48 -43 336v424h-236q-2 -202 -37 -434t-85 -326h-439q50 157 87.5 382.5t33.5 377.5q-143 0 -223 -17l-39 248q73 82 459 82h1116z" />
    <glyph glyph-name="endash" unicode="&#x2013;" horiz-adv-x="1024" 
d="M0 389v336h1024v-336h-1024z" />
    <glyph glyph-name="emdash" unicode="&#x2014;" horiz-adv-x="2048" 
d="M0 389v336h2048v-336h-2048z" />
    <glyph glyph-name="quoteleft" unicode="&#x2018;" horiz-adv-x="757" 
d="M625 1135v-471h-492v446l189 352h296l-129 -327h136z" />
    <glyph glyph-name="quoteright" unicode="&#x2019;" horiz-adv-x="757" 
d="M133 991v471h492v-446l-189 -352h-297l129 327h-135z" />
    <glyph glyph-name="quotesinglbase" unicode="&#x201a;" horiz-adv-x="757" 
d="M133 0v471h492v-446l-189 -353h-297l129 328h-135z" />
    <glyph glyph-name="quotedblleft" unicode="&#x201c;" 
d="M1309 1135v-471h-492v446l189 352h297l-129 -327h135zM664 1135v-471h-492v446l188 352h297l-129 -327h136z" />
    <glyph glyph-name="quotedblright" unicode="&#x201d;" 
d="M170 991v471h492v-446l-189 -352h-297l129 327h-135zM815 991v471h492v-446l-189 -352h-297l129 327h-135z" />
    <glyph glyph-name="quotedblbase" unicode="&#x201e;" 
d="M170 0v471h492v-446l-189 -353h-297l129 328h-135zM815 0v471h492v-446l-189 -353h-297l129 328h-135z" />
    <glyph glyph-name="dagger" unicode="&#x2020;" 
d="M514 0v819h-268v328h268v315h451v-315h268v-328h-268v-819h-451z" />
    <glyph glyph-name="daggerdbl" unicode="&#x2021;" 
d="M512 831h-266v328h266v230h451v-230h270v-328h-270v-276h270v-328h-272v-227h-449v227h-266v328h266v276z" />
    <glyph glyph-name="bullet" unicode="&#x2022;" horiz-adv-x="1024" 
d="M879 731q0 -152 -107 -258t-260 -106q-151 0 -258 106t-107 258q-3 152 104 259.5t261 107.5q152 0 259.5 -107.5t107.5 -259.5z" />
    <glyph glyph-name="ellipsis" unicode="&#x2026;" horiz-adv-x="2048" 
d="M96 0v471h492v-471h-492zM778 0v471h492v-471h-492zM1460 0v471h492v-471h-492z" />
    <glyph glyph-name="perthousand" unicode="&#x2030;" horiz-adv-x="2048" 
d="M254 1243v-313q0 -25 13.5 -40.5t39.5 -15.5t39.5 15.5t13.5 40.5v313q0 25 -13.5 40t-39.5 15t-39.5 -15t-13.5 -40zM0 985v203q0 131 70 188.5t237 57.5t237 -57.5t70 -188.5v-203q0 -131 -70 -188.5t-237 -57.5t-237 57.5t-70 188.5zM244 -45h-174l1026 1479h174z
M731 197v202q0 131 70 188.5t237 57.5t237.5 -57.5t70.5 -188.5v-202q0 -131 -70.5 -188.5t-237.5 -57.5t-237 57.5t-70 188.5zM985 455v-314q0 -25 13.5 -40t39.5 -15t40 15t14 40v314q0 25 -14 40t-40 15t-39.5 -15t-13.5 -40zM1436 197v202q0 131 70 188.5t237 57.5
t237 -57.5t70 -188.5v-202q0 -131 -70 -188.5t-237 -57.5t-237 57.5t-70 188.5zM1690 455v-314q0 -25 13.5 -40t39.5 -15t39.5 15t13.5 40v314q0 25 -13.5 40t-39.5 15t-39.5 -15t-13.5 -40z" />
    <glyph glyph-name="guilsinglleft" unicode="&#x2039;" horiz-adv-x="909" 
d="M147 557l242 285h371l-244 -285l246 -297h-373z" />
    <glyph glyph-name="guilsinglright" unicode="&#x203a;" horiz-adv-x="909" 
d="M520 842l242 -285l-242 -297h-373l246 297l-243 285h370z" />
    <glyph glyph-name="fraction" unicode="&#x2044;" horiz-adv-x="342" 
d="M-117 -45h-225l799 1479h227z" />
    <glyph glyph-name="Euro" unicode="&#x20ac;" 
d="M1335 1343v-333q-39 39 -121 64.5t-200 25.5q-152 0 -228 -54.5t-104 -152.5h555l-78 -174h-495q-2 -12 -2 -45q0 -30 4 -58h448l-76 -174h-340q26 -78 100.5 -116.5t215.5 -38.5q96 0 188.5 25t132.5 61v-338q-123 -78 -377 -78q-171 0 -300 32t-216 95.5t-139.5 151
t-77.5 206.5h-196l77 174h99q-2 18 -2 54q0 31 2 49h-176l77 174h113q23 97 57.5 174t93 147t137.5 116.5t193.5 74t257.5 27.5q135 0 234.5 -27.5t142.5 -61.5z" />
    <glyph glyph-name="afii61289" unicode="&#x2113;" horiz-adv-x="1443" 
d="M1200 471l184 -184q-57 -89 -132 -154t-158 -101.5t-165.5 -53.5t-168.5 -17q-187 0 -300.5 65.5t-170.5 219.5q-1 3 -2 7.5t-2 6.5q-54 -33 -101 -57l-121 203q23 14 98 59.5t113 69.5v378q0 320 128 472.5t378 152.5q108 0 192.5 -31.5t135.5 -86.5t77.5 -123.5
t26.5 -147.5q0 -97 -32.5 -184t-101.5 -172.5t-159 -165t-223 -176.5l4 -25q9 -57 54.5 -93t117.5 -36q89 0 176.5 49t151.5 125zM696 1047v-256q93 85 146 181t53 175q0 62 -23 95.5t-65 33.5q-49 0 -80 -55t-31 -174z" />
    <glyph glyph-name="trademark" unicode="&#x2122;" horiz-adv-x="2048" 
d="M778 1462v-184h-229v-660h-246v660h-229v184h704zM1290 1462l183 -489l182 489h319v-844h-221v553h-4l-186 -553h-181l-186 553h-4v-553h-221v844h319z" />
    <glyph glyph-name="Omega" unicode="&#x2126;" horiz-adv-x="1894" 
d="M424 311v8q-57 32 -108 76.5t-98 106t-75 144.5t-28 175q0 130 58 244t163.5 199t263.5 134.5t348 49.5t347.5 -48.5t262.5 -133.5t162.5 -201t57.5 -250q0 -90 -24 -165.5t-70 -135t-99 -104.5t-125 -91v-8h344v-311h-792v244q79 50 132.5 95.5t98.5 104.5t66.5 132
t21.5 163q0 170 -106 286t-273 116q-164 0 -276.5 -110.5t-112.5 -299.5q0 -157 86.5 -286.5t235.5 -200.5v-244h-799v311h338z" />
    <glyph glyph-name="estimated" unicode="&#x212e;" horiz-adv-x="1781" 
d="M1712 674h-1331q-10 0 -10 -8v-404q0 -27 18 -45q99 -102 228.5 -159.5t273.5 -57.5q156 0 293.5 64.5t236.5 177.5h117q-111 -131 -282.5 -208t-366.5 -77q-167 0 -318.5 58t-261 157t-174.5 235.5t-65 286.5t65 287t174.5 236.5t261 158t318.5 58.5q168 0 320.5 -58.5
t262.5 -158t175 -236.5t65 -287v-20zM1409 727v403q0 29 -18 50q-100 98 -228.5 153.5t-271.5 55.5q-142 0 -271 -58t-229 -160q-20 -17 -20 -49v-395q0 -14 10 -14h1020q8 0 8 14z" />
    <glyph glyph-name="partialdiff" unicode="&#x2202;" horiz-adv-x="1503" 
d="M233 1184l-124 266q32 20 72 39t107.5 43.5t159.5 39.5t191 15q227 0 405 -101t277.5 -284.5t99.5 -417.5q0 -192 -61 -349t-167.5 -260t-249 -158.5t-306.5 -55.5q-116 0 -214.5 33t-164.5 86t-112.5 120t-67.5 134.5t-21 130.5q0 108 38.5 205.5t108.5 171.5t177 118
t235 44q73 0 138.5 -18t111 -47.5t75 -57t48.5 -54.5h4v27q0 81 -25.5 154.5t-74 132.5t-129 94t-182.5 35q-180 0 -349 -86zM686 270h2q98 0 172 83t88 186q-11 55 -72 109t-149 54q-104 0 -168.5 -67t-64.5 -170q0 -88 55.5 -141.5t136.5 -53.5z" />
    <glyph glyph-name="Delta" unicode="&#x2206;" horiz-adv-x="1697" 
d="M45 0v195l539 1257h534l533 -1257v-195h-1606zM526 315h609l-211 557q-74 194 -97 271h-10q-37 -118 -84 -256z" />
    <glyph glyph-name="product" unicode="&#x220f;" horiz-adv-x="1814" 
d="M1780 1081h-250v-1278h-420v1278h-405v-1278h-422v1278h-248v340h1745v-340z" />
    <glyph glyph-name="summation" unicode="&#x2211;" horiz-adv-x="1443" 
d="M1417 -197h-1374v217l543 580l-510 561v260h1280v-340h-678v-8l401 -436l-446 -483v-11h784v-340z" />
    <glyph glyph-name="minus" unicode="&#x2212;" horiz-adv-x="1228" 
d="M1171 424h-1114v266h1114v-266z" />
    <glyph glyph-name="uni2215" unicode="&#x2215;" horiz-adv-x="342" 
d="M-117 -45h-225l799 1479h227z" />
    <glyph glyph-name="uni2219" unicode="&#x2219;" horiz-adv-x="739" 
d="M371 348q-87 0 -148 61t-61 148t61 148t148 61q86 0 147.5 -61.5t61.5 -147.5t-61.5 -147.5t-147.5 -61.5z" />
    <glyph glyph-name="radical" unicode="&#x221a;" horiz-adv-x="1533" 
d="M1610 1698l-600 -2011h-328l-387 868l-174 -72l-70 189l490 202l245 -628q31 -76 64 -180h4l47 188l404 1444h305z" />
    <glyph glyph-name="infinity" unicode="&#x221e;" horiz-adv-x="1712" 
d="M1618 594v-2q0 -94 -32 -172t-84.5 -128.5t-119.5 -78t-139 -27.5q-46 0 -87 8t-93.5 30.5t-107 71.5t-105.5 122q-91 -115 -181 -173.5t-210 -58.5q-149 0 -258 108t-109 281q0 178 110.5 289t278.5 111q121 0 214 -54.5t175 -166.5q7 8 28.5 32t34 37t37 36.5t43 37
t47.5 31t56.5 26.5t62.5 15.5t72 5.5q153 -2 260 -106.5t107 -274.5zM481 389h4q123 0 256 178q-72 105 -102 136q-69 71 -162 71q-75 0 -125.5 -51.5t-50.5 -144.5q0 -76 53 -132.5t127 -56.5zM1231 774h-2q-27 0 -52 -7t-51 -25.5t-42 -31t-42.5 -43t-34 -40t-34.5 -43.5
q85 -117 143 -156t127 -39q74 0 119 59.5t45 126.5q0 87 -48 143t-128 56z" />
    <glyph glyph-name="integral" unicode="&#x222b;" horiz-adv-x="933" 
d="M928 1753l-37 -244q-44 13 -92 13q-42 0 -75.5 -17.5t-51.5 -46.5q-27 -41 -37 -113.5t-10 -201.5q0 -163 20.5 -447.5t20.5 -482.5q0 -254 -78 -393q-57 -100 -153 -148.5t-208 -48.5q-143 0 -215 35l43 256q52 -18 107 -18q73 0 114 47q33 39 46.5 101t13.5 177
q0 201 -21.5 496t-21.5 471q0 179 39 292t123 193q53 53 138.5 80t178.5 27q91 0 156 -27z" />
    <glyph glyph-name="approxequal" unicode="&#x2248;" horiz-adv-x="1318" 
d="M1104 997l147 -153q-82 -113 -175.5 -168t-180.5 -55q-72 0 -128 19t-136 62q-41 22 -60.5 32t-57.5 21t-73 11q-69 0 -126 -37.5t-119 -107.5l-142 151q58 91 167.5 157t219.5 66q134 0 242 -67q78 -49 113.5 -64.5t83.5 -15.5q111 0 225 149zM1104 559l147 -151
q-83 -113 -175.5 -169.5t-184.5 -56.5q-70 0 -126.5 20t-133.5 62q-42 23 -65 34.5t-57 21.5t-67 10q-72 0 -127.5 -37.5t-119.5 -110.5l-142 154q59 90 169.5 156.5t219.5 66.5q127 0 238 -65q10 -6 35.5 -22.5t38 -23.5t34 -17.5t42 -14.5t44.5 -4q63 0 114.5 35
t115.5 112z" />
    <glyph glyph-name="notequal" unicode="&#x2260;" horiz-adv-x="1318" 
d="M997 1079l-71 -157h284v-222h-383l-114 -245h497v-222h-598l-112 -245l-183 84l76 161h-287v222h386l114 245h-500v222h599l110 241z" />
    <glyph glyph-name="lessequal" unicode="&#x2264;" horiz-adv-x="1318" 
d="M1210 293l-1101 459v235l1099 459v-242l-856 -332v-4l858 -336v-239zM1210 -4h-1104v227h1104v-227z" />
    <glyph glyph-name="greaterequal" unicode="&#x2265;" horiz-adv-x="1318" 
d="M109 1446l1101 -461v-235l-1099 -457v239l856 336v4l-858 332v242zM1196 -4h-1087v227h1087v-227z" />
    <glyph glyph-name="lozenge" unicode="&#x25ca;" horiz-adv-x="1533" 
d="M1434 709l-508 -803h-324l-504 803l506 802h322zM1069 700l-266 451q-35 62 -41 76h-4q-6 -13 -41 -76l-256 -436l268 -453q4 -9 19 -37t18 -37h6q28 56 39 74z" />
    </font>
</defs>
</svg>
