<?xml version="1.0" standalone="no"?>
<!DOCTYPE svg PUBLIC "-//W3C//DTD SVG 1.1//EN" "http://www.w3.org/Graphics/SVG/1.1/DTD/svg11.dtd" >
<svg xmlns="http://www.w3.org/2000/svg" xmlns:xlink="http://www.w3.org/1999/xlink" version="1.1">
<metadata>
Created by FontForge 20170731 at Wed May 19 06:39:28 2021
 By Aleksey,,,
Copyright (c) 1989, 1995, 2002 Adobe Systems Incorporated.  All Rights Reserved.
</metadata>
<defs>
<font id="FolioStd-Light" horiz-adv-x="1138" >
  <font-face 
    font-family="Folio Std Light"
    font-weight="300"
    font-stretch="normal"
    units-per-em="2048"
    panose-1="2 11 4 3 3 5 2 2 2 4"
    ascent="1462"
    descent="-586"
    x-height="946"
    cap-height="1462"
    bbox="-342 -512 2048 1944"
    underline-thickness="102"
    underline-position="-307"
    unicode-range="U+0020-FB02"
  />
<missing-glyph horiz-adv-x="1024" 
d="M0 0v1434h1024v-1434h-1024zM512 809l348 522h-696zM573 717l349 -522v1044zM164 102h696l-348 523zM102 1239v-1044l349 522z" />
    <glyph glyph-name="fi" unicode="fi" horiz-adv-x="985" 
d="M688 0v946h148v-946h-148zM682 1143v160h160v-160h-160zM168 0v836h-129v110h129v205q0 185 67 264.5t214 79.5q75 0 149 -25v-137q-84 39 -129 39q-83 0 -118.5 -58t-35.5 -188v-180h285v-110h-285v-836h-147z" />
    <glyph glyph-name="fl" unicode="fl" horiz-adv-x="985" 
d="M688 0v1462h148v-1462h-148zM168 0v836h-129v110h129v205q0 185 67 264.5t214 79.5q75 0 149 -25v-137q-84 39 -129 39q-83 0 -118.5 -58t-35.5 -188v-180h285v-110h-285v-836h-147z" />
    <glyph glyph-name=".notdef" horiz-adv-x="1024" 
d="M0 0v1434h1024v-1434h-1024zM512 809l348 522h-696zM573 717l349 -522v1044zM164 102h696l-348 523zM102 1239v-1044l349 522z" />
    <glyph glyph-name=".null" horiz-adv-x="0" 
 />
    <glyph glyph-name="nonmarkingreturn" horiz-adv-x="682" 
 />
    <glyph glyph-name="space" unicode=" " horiz-adv-x="569" 
 />
    <glyph glyph-name="exclam" unicode="!" horiz-adv-x="569" 
d="M199 1360h172l-41 -1053h-90zM205 160h160v-160h-160v160z" />
    <glyph glyph-name="quotedbl" unicode="&#x22;" horiz-adv-x="681" 
d="M160 905v557h119v-557h-119zM403 905v557h119v-557h-119z" />
    <glyph glyph-name="numbersign" unicode="#" 
d="M991 539l6 -99h-211l-61 -440h-111l64 440h-268l-60 -440h-110l63 440h-213l-6 99h231l43 299h-211l-6 98h230l61 440h111l-64 -440h269l59 440h111l-64 -440h195l6 -98h-213l-41 -299h190zM733 838h-268l-41 -299h268z" />
    <glyph glyph-name="dollar" unicode="$" 
d="M504 1409v199h127v-199q110 -5 204.5 -46.5t160.5 -123.5t77 -190h-151q-8 64 -42 110.5t-85.5 71.5t-108.5 36t-123 11q-50 0 -98 -6.5t-96.5 -24t-85 -43.5t-59.5 -68t-23 -96q0 -55 31 -95.5t83.5 -64.5t120.5 -41.5t143.5 -33t150.5 -34t143 -48.5t120.5 -72
t83.5 -110t31 -156q0 -78 -26.5 -145t-72 -115t-106.5 -83t-129.5 -53.5t-142.5 -21.5v-254h-127v254q-210 9 -341.5 122.5t-152.5 316.5h162q22 -158 128 -233t271 -75q65 0 130.5 16.5t123.5 48.5t94.5 88t36.5 126q0 60 -25.5 106t-69 73.5t-101.5 50t-123.5 35t-134 29
t-134 32t-123.5 43.5t-101.5 63.5t-69 92.5t-25.5 130q0 92 39.5 164t106.5 115.5t145 67.5t164 30z" />
    <glyph glyph-name="percent" unicode="%" horiz-adv-x="1820" 
d="M467 766q79 0 120.5 68t41.5 202q0 133 -42 202t-120 69q-77 0 -119.5 -69.5t-42.5 -201.5q0 -133 42 -201.5t120 -68.5zM1337 1358l-796 -1391l-84 51l796 1391zM1352 70q161 0 161 270q0 133 -41.5 201.5t-119.5 68.5q-77 0 -119.5 -69t-42.5 -201q0 -133 42 -201.5
t120 -68.5zM467 664q-126 0 -199 108.5t-73 263.5q0 99 30.5 182.5t93.5 137t148 53.5q127 0 199.5 -109.5t72.5 -263.5q0 -155 -72.5 -263.5t-199.5 -108.5zM1352 -33q-126 0 -199.5 109t-73.5 264q0 99 30.5 182.5t94 137t148.5 53.5q127 0 199.5 -109.5t72.5 -263.5
q0 -155 -72.5 -264t-199.5 -109z" />
    <glyph glyph-name="ampersand" unicode="&#x26;" horiz-adv-x="1175" 
d="M602 766l322 -414q48 101 59 195h139q-27 -179 -114 -303l192 -244h-176l-104 135q-65 -78 -159.5 -121t-203.5 -43q-116 0 -214 49.5t-158 145t-60 217.5q0 245 270 418q-73 84 -109 150.5t-36 152.5q0 124 88.5 198t214.5 74q128 0 204.5 -69t76.5 -197
q0 -35 -6.5 -66.5t-15 -56t-28 -51t-33 -43t-42 -41.5t-44.5 -37.5t-50 -38.5q-9 -7 -13 -10zM840 240l-361 452q-40 -30 -65 -51t-55 -52t-47 -59t-28.5 -65.5t-11.5 -79.5q0 -68 28.5 -124t71.5 -89.5t90 -51.5t89 -18q175 0 289 138zM514 877q102 69 141 118t39 115
q0 60 -41 97.5t-102 37.5q-67 0 -110.5 -48t-43.5 -114q0 -46 37 -105.5t80 -100.5z" />
    <glyph glyph-name="quotesingle" unicode="'" horiz-adv-x="454" 
d="M168 905v557h119v-557h-119z" />
    <glyph glyph-name="parenleft" unicode="(" horiz-adv-x="645" 
d="M555 1462v-139q-91 -27 -155.5 -87.5t-98.5 -144t-48.5 -171.5t-14.5 -189t14.5 -189t48.5 -171.5t98.5 -144t155.5 -87.5v-139q-123 28 -215 98.5t-145 170.5t-79 215.5t-26 246.5t26 246.5t79 215.5t145 170.5t215 98.5z" />
    <glyph glyph-name="parenright" unicode=")" horiz-adv-x="645" 
d="M90 0v139q91 27 155.5 87.5t98.5 144t49 171.5t15 189t-15 189t-49 171.5t-98.5 144t-155.5 87.5v139q123 -28 215 -98.5t145 -170.5t79 -215.5t26 -246.5t-26 -246.5t-79 -215.5t-145 -170.5t-215 -98.5z" />
    <glyph glyph-name="asterisk" unicode="*" horiz-adv-x="757" 
d="M35 1257l92 60l229 -154l-69 273l96 71l84 -75l-74 -263l236 148l94 -70l-45 -106l-270 -15l204 -170l-39 -100l-108 4l-94 250l-103 -250l-118 -4l-27 115l215 162l-268 14z" />
    <glyph glyph-name="plus" unicode="+" horiz-adv-x="1228" 
d="M141 418v110h418v418h111v-418h417v-110h-417v-418h-111v418h-418z" />
    <glyph glyph-name="comma" unicode="," horiz-adv-x="569" 
d="M197 0v176h176v-82q0 -157 -64 -291h-108q54 81 67 197h-71z" />
    <glyph glyph-name="hyphen" unicode="-" horiz-adv-x="606" 
d="M100 412v123h404v-123h-404z" />
    <glyph glyph-name="period" unicode="." horiz-adv-x="569" 
d="M197 0v176h176v-176h-176z" />
    <glyph glyph-name="slash" unicode="/" horiz-adv-x="909" 
d="M184 -45h-127l668 1552h127z" />
    <glyph glyph-name="zero" unicode="0" 
d="M229 688q0 -263 94 -426.5t246 -163.5t246 163.5t94 426.5t-94 426.5t-246 163.5t-246 -163.5t-94 -426.5zM78 688q0 344 134.5 532.5t356.5 188.5t357 -188.5t135 -532.5t-135 -532.5t-357 -188.5t-356.5 188.5t-134.5 532.5z" />
    <glyph glyph-name="one" unicode="1" 
d="M551 1376h127v-1376h-152v1151l-180 -188l-80 88z" />
    <glyph glyph-name="two" unicode="2" 
d="M1004 0h-885q5 75 29.5 142.5t54 115.5t84.5 103.5t92.5 87t107.5 86.5q27 21 72.5 55.5t71.5 54.5t63 51t58 53t46 53t37.5 59.5t21.5 63.5t9 72q0 126 -82.5 199.5t-201.5 73.5q-172 0 -245 -83t-73 -257h-151v69q0 196 130.5 303t331.5 107q194 0 318.5 -112.5
t124.5 -303.5q0 -59 -13 -112t-41.5 -99.5t-58 -83t-77.5 -77.5t-83 -68.5t-93 -70t-91 -68.5q-111 -88 -169 -147t-79 -120h691v-147z" />
    <glyph glyph-name="three" unicode="3" 
d="M78 352h151q16 -131 98 -188.5t220 -57.5q139 0 228 89t89 223q0 130 -100 203t-236 73q-18 0 -51 -4t-51 -4v148h82q57 0 109.5 12.5t98 37.5t72.5 70t27 105q0 96 -73.5 153.5t-172.5 57.5q-134 0 -211.5 -68.5t-87.5 -195.5h-151q18 201 140 302t325 101
q161 0 272 -96t111 -254q0 -108 -62 -181t-170 -110v-4q131 -42 206 -139t75 -236q0 -102 -40 -184t-108.5 -133t-156.5 -78t-187 -27q-181 0 -310.5 103.5t-135.5 281.5z" />
    <glyph glyph-name="four" unicode="4" 
d="M55 360v119l682 897h133v-876h166v-140h-166v-360h-151v360h-664zM719 500v647h-4l-479 -647h483z" />
    <glyph glyph-name="five" unicode="5" 
d="M195 631v745h782v-147h-631v-418q67 39 122.5 56.5t137.5 17.5q189 0 311.5 -125t122.5 -324q0 -209 -134 -339t-345 -130q-420 0 -465 400h158q15 -119 91 -190t202 -71q153 0 247.5 80.5t94.5 231.5q0 152 -78.5 235.5t-226.5 83.5q-180 0 -246 -106h-143z" />
    <glyph glyph-name="six" unicode="6" 
d="M1044 1053h-151q-15 118 -79 171.5t-183 53.5q-93 0 -166 -41t-115.5 -103.5t-70 -147t-37.5 -161.5t-11 -157h5q54 104 150.5 166.5t205.5 62.5q220 0 343.5 -126t123.5 -339t-123.5 -339t-343.5 -126q-121 0 -212.5 36t-147.5 96t-91 149t-48 183t-13 210
q0 179 32.5 318.5t100.5 241t177.5 155t258.5 53.5q169 0 273.5 -94.5t121.5 -261.5zM276 432q0 -149 84.5 -241.5t231.5 -92.5t231 92.5t84 241.5t-84 241.5t-231 92.5t-231.5 -92.5t-84.5 -241.5z" />
    <glyph glyph-name="seven" unicode="7" 
d="M143 1229v147h850v-110q-170 -270 -286.5 -603t-163.5 -663h-181q139 689 472 1229h-691z" />
    <glyph glyph-name="eight" unicode="8" 
d="M285 1032q0 -118 84 -182t200 -64t200.5 64t84.5 182t-84.5 182t-200.5 64t-200 -64t-84 -182zM133 1030q0 117 59.5 204.5t157 131t219.5 43.5t220 -43.5t157.5 -131t59.5 -204.5q0 -108 -54 -191t-153 -122q125 -61 182 -147t57 -222q0 -83 -27 -149t-72 -108.5
t-107 -71t-127 -40.5t-136 -12t-136 12t-127 40.5t-107 71t-72 108.5t-27 149q0 136 57.5 222t182.5 147q-99 39 -153 122t-54 191zM252 377q0 -138 86 -208.5t231 -70.5t231.5 70.5t86.5 208.5q0 120 -95 199t-223 79t-222.5 -79t-94.5 -199z" />
    <glyph glyph-name="nine" unicode="9" 
d="M94 324h152q15 -118 79 -172t183 -54q68 0 124.5 21.5t97 57t72 86t50.5 104t32 115.5t18 116.5t5 110.5h-4q-54 -105 -151 -167.5t-205 -62.5q-220 0 -343.5 126t-123.5 339t123.5 339t343.5 126q121 0 212.5 -36t147.5 -96t91 -149t48 -183t13 -210q0 -179 -33 -318.5
t-100.5 -241t-177.5 -155t-259 -53.5q-169 0 -273.5 95t-121.5 262zM862 944q0 149 -84 241.5t-231 92.5t-231.5 -92.5t-84.5 -241.5t84.5 -241.5t231.5 -92.5t231 92.5t84 241.5z" />
    <glyph glyph-name="colon" unicode=":" horiz-adv-x="569" 
d="M197 0v176h176v-176h-176zM197 635v176h176v-176h-176z" />
    <glyph glyph-name="semicolon" unicode=";" horiz-adv-x="569" 
d="M197 0v176h176v-82q0 -157 -64 -291h-108q54 81 67 197h-71zM197 635v176h176v-176h-176z" />
    <glyph glyph-name="less" unicode="&#x3c;" horiz-adv-x="1228" 
d="M1087 -14l-946 434v106l946 435v-115l-813 -373l813 -373v-114z" />
    <glyph glyph-name="equal" unicode="=" horiz-adv-x="1228" 
d="M141 602v111h946v-111h-946zM141 233v111h946v-111h-946z" />
    <glyph glyph-name="greater" unicode="&#x3e;" horiz-adv-x="1228" 
d="M141 961l946 -435v-106l-946 -434v114l813 373l-813 373v115z" />
    <glyph glyph-name="question" unicode="?" horiz-adv-x="985" 
d="M571 303h-139v258q0 74 32 138t77 109.5t90.5 87.5t77.5 90.5t32 98.5q0 89 -67 145t-170 56q-63 0 -109 -13.5t-74.5 -36.5t-46 -59.5t-24 -76.5t-6.5 -92h-152q0 108 32 187.5t90 125t129.5 67t158.5 21.5q107 0 195 -35t142 -104.5t54 -161.5q0 -59 -24 -114.5
t-59.5 -96.5t-77.5 -85.5t-77.5 -81.5t-59.5 -83.5t-24 -93.5v-250zM422 0v160h160v-160h-160z" />
    <glyph glyph-name="at" unicode="@" horiz-adv-x="1638" 
d="M698 385q70 0 135.5 49.5t109.5 122.5t70.5 156t26.5 151q0 91 -51 146t-119 55q-74 0 -141.5 -46.5t-112 -117t-70.5 -152t-26 -153.5q0 -93 50.5 -152t127.5 -59zM1106 1012l49 135h123l-193 -602q-24 -82 -24 -113q0 -59 49 -59q78 0 154.5 76.5t123 190.5t46.5 222
q0 161 -81 285.5t-212 189t-287 64.5q-183 0 -333 -92t-233 -247t-83 -339q0 -181 86.5 -333t237.5 -240.5t331 -88.5q156 0 300.5 72.5t236.5 196.5h119q-96 -173 -275 -274t-381 -101q-217 0 -396 104.5t-280.5 284t-101.5 393.5q0 157 61.5 299.5t165 245.5t245.5 164
t296 61q144 0 274 -48.5t225 -132.5t151 -204.5t56 -257.5q0 -123 -46 -237t-117 -191.5t-155.5 -123.5t-162.5 -46q-57 0 -95 36t-42 104l-4 -3q-129 -137 -266 -137q-129 0 -210 92t-81 226q0 146 61 282.5t177.5 227t258.5 90.5q165 0 232 -172z" />
    <glyph glyph-name="A" unicode="A" horiz-adv-x="1366" 
d="M692 1282l-336 -811h664zM-10 0l639 1462h141l608 -1462h-172l-133 332h-772l-139 -332h-172z" />
    <glyph glyph-name="B" unicode="B" horiz-adv-x="1366" 
d="M319 1323v-467h390q152 0 237.5 63.5t85.5 182.5q0 106 -74 163.5t-227 57.5h-412zM160 0v1462h626q98 0 176.5 -28.5t128 -77.5t75.5 -112.5t26 -135.5q0 -102 -54.5 -182.5t-148.5 -118.5v-4q145 -39 220 -140.5t75 -248.5q0 -196 -135.5 -305t-419.5 -109h-569z
M319 717v-578h443q173 0 267.5 71t94.5 214t-105.5 218t-285.5 75h-414z" />
    <glyph glyph-name="C" unicode="C" horiz-adv-x="1517" 
d="M1432 1055h-164q-51 152 -177.5 232.5t-293.5 80.5q-148 0 -271.5 -86.5t-193.5 -233t-70 -317.5q0 -100 20 -191.5t62.5 -173.5t104.5 -142t151 -95t197 -35q117 0 223 48t177.5 134.5t86.5 192.5h170q-57 -246 -234 -380t-423 -134q-209 0 -372 102t-251 278.5
t-88 395.5q0 161 59.5 306.5t157.5 247.5t227.5 162t266.5 60q250 0 417 -119t218 -333z" />
    <glyph glyph-name="D" unicode="D" horiz-adv-x="1517" 
d="M152 0v1462h510q223 0 397 -91t271 -258t97 -382t-97 -382t-271 -258t-397 -91h-510zM311 1323v-1184h334q270 0 438 167.5t168 424.5t-168 424.5t-438 167.5h-334z" />
    <glyph glyph-name="E" unicode="E" 
d="M152 0v1462h925v-147h-766v-459h664v-147h-664v-562h766v-147h-925z" />
    <glyph glyph-name="F" unicode="F" horiz-adv-x="1099" 
d="M152 0v1462h925v-147h-766v-459h664v-147h-664v-709h-159z" />
    <glyph glyph-name="G" unicode="G" horiz-adv-x="1593" 
d="M1448 1024h-164q-15 139 -149.5 241.5t-303.5 102.5q-122 0 -228.5 -51t-179.5 -137.5t-115 -203t-42 -245.5q0 -100 20 -191.5t62.5 -173.5t104.5 -142t151 -95t197 -35q216 0 351 123t138 346h-274v148h422v-711h-115l-18 203h-5q-46 -84 -128.5 -141t-175.5 -82
t-195 -25q-209 0 -372 102t-251 278.5t-88 395.5q0 161 60 306t160.5 247.5t236.5 162.5t284 60q239 0 410 -129t207 -354z" />
    <glyph glyph-name="H" unicode="H" horiz-adv-x="1402" 
d="M152 0v1462h159v-606h781v606h159v-1462h-159v717h-781v-717h-159z" />
    <glyph glyph-name="I" unicode="I" horiz-adv-x="454" 
d="M147 0v1462h160v-1462h-160z" />
    <glyph glyph-name="J" unicode="J" horiz-adv-x="1062" 
d="M750 1462h159v-979q0 -278 -112 -403t-365 -125q-180 0 -289.5 112.5t-109.5 284.5v80h160q0 -159 63.5 -244.5t212.5 -85.5t215 92.5t66 284.5v983z" />
    <glyph glyph-name="K" unicode="K" horiz-adv-x="1327" 
d="M160 0v1462h159v-786l725 786h218l-584 -620l686 -842h-211l-580 733l-254 -272v-461h-159z" />
    <glyph glyph-name="L" unicode="L" horiz-adv-x="1099" 
d="M156 0v1462h159v-1315h766v-147h-925z" />
    <glyph glyph-name="M" unicode="M" horiz-adv-x="1820" 
d="M156 0v1462h174l581 -1233l596 1233h156v-1462h-160v1124h-4l-528 -1124h-127l-525 1124h-4v-1124h-159z" />
    <glyph glyph-name="N" unicode="N" horiz-adv-x="1517" 
d="M145 0v1462h158l905 -1188h4v1188h160v-1462h-160l-903 1206h-4v-1206h-160z" />
    <glyph glyph-name="O" unicode="O" horiz-adv-x="1593" 
d="M86 731q0 161 59.5 306.5t157.5 247.5t227.5 162t266.5 60q157 0 290.5 -59.5t225 -163t143 -246.5t51.5 -307q0 -161 -59.5 -306.5t-157 -247.5t-227 -162t-266.5 -60q-209 0 -372 102t-251 278.5t-88 395.5zM1331 731q0 100 -19.5 191.5t-62.5 173.5t-104.5 142
t-150.5 95t-197 35q-148 0 -271.5 -86.5t-193.5 -233t-70 -317.5q0 -100 20 -191.5t62.5 -173.5t104.5 -142t151 -95t197 -35q148 0 271.5 86.5t193 233t69.5 317.5z" />
    <glyph glyph-name="P" unicode="P" horiz-adv-x="1251" 
d="M328 1323v-618h385q149 0 238 76t89 233t-89 233t-238 76h-385zM168 0v1462h528q227 0 365.5 -118t138.5 -330t-138.5 -330.5t-365.5 -118.5h-368v-565h-160z" />
    <glyph glyph-name="Q" unicode="Q" horiz-adv-x="1593" 
d="M1087 -238v-139h-157q-113 0 -163 42.5t-50 152.5v141q-188 19 -332 124t-221.5 273.5t-77.5 374.5q0 161 59.5 306.5t157.5 247.5t227.5 162t266.5 60q157 0 290.5 -59.5t225 -163t143 -246.5t51.5 -307q0 -149 -51 -285.5t-137 -237t-201 -166.5t-241 -83v-96
q0 -56 21 -78.5t77 -22.5h112zM1331 731q0 100 -19.5 191.5t-62.5 173.5t-104.5 142t-150.5 95t-197 35q-148 0 -271.5 -86.5t-193.5 -233t-70 -317.5q0 -100 20 -191.5t62.5 -173.5t104.5 -142t151 -95t197 -35q148 0 271.5 86.5t193 233t69.5 317.5z" />
    <glyph glyph-name="R" unicode="R" horiz-adv-x="1366" 
d="M1286 0h-192q-17 36 -24.5 56.5t-14 61t-6.5 97.5v219q0 126 -52.5 173.5t-187.5 47.5h-469v-655h-160v1462h635q189 0 301.5 -104t112.5 -295q0 -113 -65.5 -198t-172.5 -124v-4q71 -21 110.5 -41.5t65 -56.5t33.5 -85t8 -132v-164q0 -171 78 -258zM340 1323v-528h451
q124 0 201 67.5t77 196.5t-77 196.5t-201 67.5h-451z" />
    <glyph glyph-name="S" unicode="S" horiz-adv-x="1366" 
d="M1233 1073h-160q-9 147 -118 221t-271 74q-203 0 -309.5 -70.5t-106.5 -203.5q0 -67 33.5 -112.5t90.5 -70t131 -40t155.5 -27.5t162.5 -27t155 -44t131 -72t90.5 -118t33.5 -177q0 -90 -38 -170.5t-110 -143.5t-186.5 -100t-257.5 -37q-118 0 -218 30t-177 88.5
t-123.5 153t-52.5 215.5h160q13 -186 127 -267t315 -81q180 0 291 88t111 213q0 76 -33.5 129.5t-90.5 82.5t-131 47t-155.5 30.5t-162.5 26t-155 39t-131 64.5t-90.5 107.5t-33.5 163.5q0 110 45 193.5t124.5 132.5t177 72.5t212.5 23.5q266 0 405.5 -108t159.5 -326z" />
    <glyph glyph-name="T" unicode="T" horiz-adv-x="1099" 
d="M14 1462h1069v-147h-454v-1315h-160v1315h-455v147z" />
    <glyph glyph-name="U" unicode="U" horiz-adv-x="1478" 
d="M1182 1462h159v-966q0 -134 -43.5 -238t-123.5 -170t-189.5 -99.5t-245.5 -33.5q-138 0 -244.5 28t-188.5 89.5t-125.5 168.5t-43.5 255v966h160v-958q0 -210 116.5 -310t325.5 -100t326 100t117 310v958z" />
    <glyph glyph-name="V" unicode="V" horiz-adv-x="1402" 
d="M625 0l-617 1462h172l522 -1278l527 1278h168l-619 -1462h-153z" />
    <glyph glyph-name="W" unicode="W" horiz-adv-x="1972" 
d="M483 272l447 1190h119l430 -1200h4l327 1200h160l-418 -1462h-133l-436 1204l-451 -1204h-131l-397 1462h162l313 -1190h4z" />
    <glyph glyph-name="X" unicode="X" horiz-adv-x="1251" 
d="M14 0l525 750l-500 712h197l395 -590l405 590h193l-508 -712l516 -750h-195l-413 616l-420 -616h-195z" />
    <glyph glyph-name="Y" unicode="Y" horiz-adv-x="1290" 
d="M561 0v532l-557 930h186l455 -766l457 766h186l-567 -930v-532h-160z" />
    <glyph glyph-name="Z" unicode="Z" horiz-adv-x="1251" 
d="M90 1315v147h1098v-147l-967 -1168h959v-147h-1147v156l950 1159h-893z" />
    <glyph glyph-name="bracketleft" unicode="[" horiz-adv-x="606" 
d="M176 1462h373v-131h-225v-1200h225v-131h-373v1462z" />
    <glyph glyph-name="backslash" unicode="\" horiz-adv-x="569" 
d="M682 -45h-127l-668 1552h127z" />
    <glyph glyph-name="bracketright" unicode="]" horiz-adv-x="606" 
d="M430 0h-373v131h226v1200h-226v131h373v-1462z" />
    <glyph glyph-name="asciicircum" unicode="^" horiz-adv-x="1228" 
d="M227 469h-131l459 907h119l459 -907h-129l-392 770z" />
    <glyph glyph-name="underscore" unicode="_" horiz-adv-x="1024" 
d="M1024 -256h-1024v102h1024v-102z" />
    <glyph glyph-name="grave" unicode="`" horiz-adv-x="417" 
d="M311 1116h-127l-215 293h203z" />
    <glyph glyph-name="a" unicode="a" horiz-adv-x="1024" 
d="M262 686h-147q14 72 42 125t64.5 86t89 52.5t107.5 26.5t127 7q198 0 280 -87t82 -282v-426q0 -122 43 -188h-157q-19 56 -33 141q-72 -90 -155 -134t-193 -44q-91 0 -166 30t-123.5 95t-48.5 154q0 102 38 169t98.5 96.5t133.5 44.5t146 21.5t133.5 17.5t98.5 42t38 86
q0 52 -40.5 88.5t-93 50.5t-108.5 14q-235 0 -256 -186zM760 367v190q-113 -70 -363 -106q-75 -11 -125.5 -59.5t-50.5 -121.5q0 -92 62.5 -144t158.5 -52q128 0 223 87t95 206z" />
    <glyph glyph-name="b" unicode="b" horiz-adv-x="1099" 
d="M123 0v1462h147v-651h4q62 87 141 129.5t193 42.5q98 0 177.5 -41t130 -112t77.5 -162.5t27 -194.5t-27 -194.5t-77.5 -162.5t-130 -112t-177.5 -41q-208 0 -334 176h-4v-139h-147zM270 473q0 -66 10.5 -124t34 -109t58 -87.5t85.5 -57.5t113 -21t113 21t85.5 57.5
t58 87.5t34 109t10.5 124t-10.5 124t-34 109t-58 87.5t-85.5 57.5t-113 21t-113 -21t-85.5 -57.5t-58 -87.5t-34 -109t-10.5 -124z" />
    <glyph glyph-name="c" unicode="c" horiz-adv-x="1024" 
d="M930 645h-148q-6 107 -75.5 167t-178.5 60q-62 0 -113 -21t-85.5 -57.5t-58 -87.5t-34 -109t-10.5 -124t10.5 -124t34 -109t58 -87.5t85.5 -57.5t113 -21q119 0 181.5 61.5t89.5 175.5h143q-37 -183 -134.5 -265.5t-279.5 -82.5q-112 0 -199 41t-140.5 112.5t-81 162
t-27.5 194.5t27.5 194.5t81 162t140.5 112.5t199 41q163 0 276.5 -89t125.5 -249z" />
    <glyph glyph-name="d" unicode="d" horiz-adv-x="1099" 
d="M977 1462v-1462h-148v139h-4q-126 -176 -333 -176q-98 0 -177.5 41t-130 112t-77.5 162.5t-27 194.5t27 194.5t77.5 162.5t130 112t177.5 41q114 0 192.5 -42t140.5 -130h4v651h148zM227 473q0 -66 10.5 -124t34 -109t58 -87.5t85.5 -57.5t113 -21t113 21t85.5 57.5
t58 87.5t34 109t10.5 124t-10.5 124t-34 109t-58 87.5t-85.5 57.5t-113 21t-113 -21t-85.5 -57.5t-58 -87.5t-34 -109t-10.5 -124z" />
    <glyph glyph-name="e" unicode="e" horiz-adv-x="1099" 
d="M1028 449h-790q3 -169 88 -272t239 -103q120 0 192 42t111 136h152q-27 -100 -93 -166t-153 -94.5t-196 -28.5q-227 0 -357.5 127.5t-130.5 384.5q0 108 27.5 198t84 160.5t151.5 110t220 39.5q437 0 455 -534zM238 559h630q-18 160 -86 236.5t-209 76.5
q-147 0 -236 -90.5t-99 -222.5z" />
    <glyph glyph-name="f" unicode="f" horiz-adv-x="606" 
d="M190 0v836h-129v110h129v205q0 185 67 264.5t214 79.5q76 0 150 -25v-137q-84 39 -129 39q-83 0 -118.5 -58t-35.5 -188v-180h285v-110h-285v-836h-148z" />
    <glyph glyph-name="g" unicode="g" horiz-adv-x="1099" 
d="M829 946h148v-901q0 -84 -13 -153t-46 -131.5t-85.5 -105.5t-135.5 -68t-191 -25q-169 0 -273 90.5t-104 200.5v4h143q14 -97 81.5 -141t166.5 -44q136 0 222.5 89t86.5 247v123h-4q-129 -168 -333 -168q-98 0 -177.5 41t-130 112t-77.5 162.5t-27 194.5t27 194.5
t77.5 162.5t130 112t177.5 41q114 0 192.5 -42t140.5 -130h4v135zM227 473q0 -66 10.5 -124t34 -109t58 -87.5t85.5 -57.5t113 -21t113 21t85.5 57.5t58 87.5t34 109t10.5 124t-10.5 124t-34 109t-58 87.5t-85.5 57.5t-113 21t-113 -21t-85.5 -57.5t-58 -87.5t-34 -109
t-10.5 -124z" />
    <glyph glyph-name="h" unicode="h" horiz-adv-x="1062" 
d="M924 0h-148v655q0 93 -49.5 155t-144.5 62q-126 0 -211.5 -95.5t-85.5 -268.5v-508h-148v1462h148v-678h4q111 199 321 199q142 0 228 -95t86 -249v-639z" />
    <glyph glyph-name="i" unicode="i" horiz-adv-x="417" 
d="M135 0v946h148v-946h-148zM129 1143v160h160v-160h-160z" />
    <glyph glyph-name="j" unicode="j" horiz-adv-x="417" 
d="M135 946h148v-1102q0 -154 -59 -224.5t-148 -70.5q-85 0 -146 27v152q44 -47 101 -47q41 0 72.5 37.5t31.5 105.5v1122zM129 1143v160h160v-160h-160z" />
    <glyph glyph-name="k" unicode="k" horiz-adv-x="1024" 
d="M158 0v1462h147v-954l481 438h209l-379 -340l422 -606h-184l-346 512l-203 -184v-328h-147z" />
    <glyph glyph-name="l" unicode="l" horiz-adv-x="417" 
d="M135 0v1462h148v-1462h-148z" />
    <glyph glyph-name="m" unicode="m" horiz-adv-x="1630" 
d="M1499 0h-147v618q0 133 -43.5 193.5t-134.5 60.5q-121 0 -198 -96.5t-77 -222.5v-553h-147v618q0 133 -44 193.5t-135 60.5q-121 0 -197.5 -96.5t-76.5 -222.5v-553h-147v946h147v-137h4q98 174 283 174q203 0 288 -197q73 102 148 149.5t188 47.5q122 0 205.5 -77.5
t83.5 -225.5v-680z" />
    <glyph glyph-name="n" unicode="n" horiz-adv-x="1062" 
d="M924 0h-148v655q0 93 -49.5 155t-144.5 62q-126 0 -211.5 -95.5t-85.5 -268.5v-508h-148v946h148v-162h4q111 199 321 199q142 0 228 -95t86 -249v-639z" />
    <glyph glyph-name="o" unicode="o" 
d="M569 74q158 0 250 107t92 292t-92 292t-250 107t-250 -107t-92 -292t92 -292t250 -107zM569 -37q-100 0 -188 33t-155.5 95t-106.5 160.5t-39 221.5t39 221.5t106.5 160.5t155.5 95t188 33t188 -33t156 -95t107 -160.5t39 -221.5t-39 -221.5t-107 -160.5t-156 -95
t-188 -33z" />
    <glyph glyph-name="p" unicode="p" horiz-adv-x="1099" 
d="M123 -512v1458h147v-139h4q126 176 334 176q98 0 177.5 -41t130 -112t77.5 -162.5t27 -194.5t-27 -194.5t-77.5 -162.5t-130 -112t-177.5 -41q-114 0 -193 42.5t-141 129.5h-4v-647h-147zM270 473q0 -66 10.5 -124t34 -109t58 -87.5t85.5 -57.5t113 -21t113 21t85.5 57.5
t58 87.5t34 109t10.5 124t-10.5 124t-34 109t-58 87.5t-85.5 57.5t-113 21t-113 -21t-85.5 -57.5t-58 -87.5t-34 -109t-10.5 -124z" />
    <glyph glyph-name="q" unicode="q" horiz-adv-x="1099" 
d="M977 946v-1458h-148v647h-4q-62 -88 -140.5 -130t-192.5 -42q-98 0 -177.5 41t-130 112t-77.5 162.5t-27 194.5t27 194.5t77.5 162.5t130 112t177.5 41q207 0 333 -176h4v139h148zM227 473q0 -66 10.5 -124t34 -109t58 -87.5t85.5 -57.5t113 -21t113 21t85.5 57.5
t58 87.5t34 109t10.5 124t-10.5 124t-34 109t-58 87.5t-85.5 57.5t-113 21t-113 -21t-85.5 -57.5t-58 -87.5t-34 -109t-10.5 -124z" />
    <glyph glyph-name="r" unicode="r" horiz-adv-x="681" 
d="M150 0v946h147v-203h4q124 240 420 240v-123q-211 0 -317.5 -98.5t-106.5 -290.5v-471h-147z" />
    <glyph glyph-name="s" unicode="s" horiz-adv-x="1024" 
d="M102 301h144q15 -117 83 -172t191 -55q105 0 186.5 48t81.5 126q0 57 -36.5 93.5t-94.5 52.5t-128.5 27.5t-140.5 27t-128 41.5t-94.5 81t-36.5 136q0 60 23.5 108t61.5 79t89 51.5t103.5 29t107.5 8.5q181 0 286.5 -81t112.5 -234h-131q-1 96 -72.5 150t-193.5 54
q-117 0 -178.5 -43t-61.5 -114q0 -56 35.5 -90t92.5 -49t125.5 -25.5t137 -25.5t125.5 -41.5t92.5 -82.5t35.5 -139q0 -69 -25 -122.5t-65 -86t-96 -53.5t-112.5 -29t-119.5 -8q-174 0 -278 84t-122 254z" />
    <glyph glyph-name="t" unicode="t" horiz-adv-x="645" 
d="M199 946v311h147v-311h232v-110h-232v-607q0 -143 92 -143q31 0 72.5 14t71.5 35v-137q-7 -2 -30.5 -9.5t-33.5 -10t-29 -7.5t-35 -6.5t-32 -1.5q-117 0 -170 61.5t-53 196.5v615h-138v110h138z" />
    <glyph glyph-name="u" unicode="u" horiz-adv-x="1062" 
d="M137 946h148v-655q0 -93 49.5 -155t144.5 -62q126 0 211.5 95.5t85.5 268.5v508h148v-946h-148v162h-4q-111 -199 -321 -199q-142 0 -228 95t-86 249v639z" />
    <glyph glyph-name="v" unicode="v" horiz-adv-x="985" 
d="M434 0l-440 946h160l338 -745l342 745h157l-444 -946h-113z" />
    <glyph glyph-name="w" unicode="w" horiz-adv-x="1478" 
d="M342 0l-340 946h158l252 -721l278 721h119l278 -721l5 2l235 719h150l-328 -946h-113l-291 752l-286 -752h-117z" />
    <glyph glyph-name="x" unicode="x" horiz-adv-x="948" 
d="M240 946l239 -319l256 319h191l-359 -432l389 -514h-184l-293 403l-313 -403h-174l405 514l-342 432h185z" />
    <glyph glyph-name="y" unicode="y" horiz-adv-x="985" 
d="M150 946l352 -780l350 780h154l-461 -1005q-8 -17 -26.5 -60t-29 -66t-31.5 -63t-38 -63t-43 -52.5t-52 -45t-60 -26.5t-72 -11q-76 0 -164 30v164q62 -55 131 -55q67 0 120 59.5t142 247.5l-426 946h154z" />
    <glyph glyph-name="z" unicode="z" horiz-adv-x="909" 
d="M94 827v119h744v-139l-598 -688h598v-119h-772v137l596 690h-568z" />
    <glyph glyph-name="braceleft" unicode="{" horiz-adv-x="606" 
d="M508 131v-131h-141q-86 0 -138.5 53.5t-52.5 143.5v233q0 65 -14.5 116t-49.5 85t-87 35v131q52 1 87 35t49.5 84.5t14.5 115.5v234q0 90 52.5 143t138.5 53h141v-131h-111q-29 0 -43 -10.5t-22 -48.5t-8 -117v-188q0 -88 -43 -146t-109 -88v-4q66 -30 109 -87.5
t43 -145.5v-189q0 -79 8 -117t22 -48.5t43 -10.5h111z" />
    <glyph glyph-name="bar" unicode="|" horiz-adv-x="454" 
d="M172 1536h111v-2048h-111v2048z" />
    <glyph glyph-name="braceright" unicode="}" horiz-adv-x="606" 
d="M98 0v131h111q29 0 43.5 10.5t22.5 48.5t8 117v189q0 163 151 233v4q-65 30 -108 88t-43 146v188q0 79 -8 117t-22.5 48.5t-43.5 10.5h-111v131h142q86 0 138 -53t52 -143v-234q0 -65 14.5 -115.5t50 -84.5t87.5 -35v-131q-52 -1 -87.5 -35t-50 -85t-14.5 -116v-233
q0 -90 -52.5 -143.5t-137.5 -53.5h-142z" />
    <glyph glyph-name="asciitilde" unicode="~" horiz-adv-x="1228" 
d="M1014 608l73 -86q-23 -32 -38.5 -52t-41 -46.5t-49.5 -41t-57 -25.5t-70 -11q-12 0 -24.5 1t-22.5 2.5t-23 5t-20.5 5.5t-22 8t-20 8t-21 9.5t-19.5 9.5t-21.5 11t-20.5 10q-44 22 -73.5 34.5t-76 23.5t-93.5 11q-91 0 -158 -147l-74 86q92 176 256 176q74 0 234 -70
q132 -58 176 -66q16 -3 29 -3q29 0 54 11.5t48.5 36t38 44.5t37.5 55z" />
    <glyph glyph-name="uni00A0" unicode="&#xa0;" horiz-adv-x="569" 
 />
    <glyph glyph-name="exclamdown" unicode="&#xa1;" horiz-adv-x="569" 
d="M371 -414h-172l41 1053h90zM365 786h-160v160h160v-160z" />
    <glyph glyph-name="cent" unicode="&#xa2;" 
d="M510 983v197h119v-197q52 -4 99.5 -18t93.5 -41t80.5 -64.5t58 -92t28.5 -120.5h-147q-42 225 -256 225q-134 0 -215.5 -106.5t-81.5 -273.5q0 -183 80 -298.5t233 -115.5q109 0 169 61t87 174h143q-62 -338 -372 -346v-231h-119v231q-82 10 -147 44.5t-107 85t-69 118.5
t-38.5 138.5t-11.5 150.5q0 187 98 319.5t275 159.5z" />
    <glyph glyph-name="sterling" unicode="&#xa3;" 
d="M391 748h328v-119h-283q29 -82 29 -172q0 -114 -94 -250l4 -4q60 26 110 26q71 0 179 -53q4 -2 16.5 -8t17 -8t16 -7t16 -7t14.5 -6.5t15.5 -6t14 -4t14 -3.5t12.5 -2t13 -1q41 0 69.5 21t42.5 56.5t20 70t7 73.5h152q-2 -69 -19 -133t-49 -120t-86 -90t-123 -34
q-74 0 -202 68q-119 63 -199 63q-106 0 -217 -123l-107 105q103 97 157 175t54 159q0 31 -5.5 66.5t-11 58.5t-14 52.5t-10.5 37.5h-180v119h137q-43 86 -63.5 146.5t-20.5 129.5q0 177 122 281t306 104q102 0 179 -18.5t138.5 -61.5t97 -117.5t44.5 -181.5h-151
q-1 109 -77 178.5t-188 69.5q-64 0 -119 -13.5t-101 -41t-72.5 -76.5t-26.5 -115q0 -44 31 -133.5t63 -150.5z" />
    <glyph glyph-name="currency" unicode="&#xa4;" 
d="M995 1200l86 -86l-112 -110q108 -122 108 -316q0 -193 -108 -315l112 -111l-86 -86l-114 115q-129 -111 -312 -111q-182 0 -311 111l-115 -115l-86 86l113 111q-109 123 -109 315q0 193 109 316l-113 110l86 86l115 -115q129 111 311 111q183 0 312 -111zM569 1077
q-159 0 -274 -114t-115 -275t115 -275t274 -114t274 114t115 275t-115 275t-274 114z" />
    <glyph glyph-name="yen" unicode="&#xa5;" 
d="M496 397h-414v119h405l-79 143h-326v119h260l-332 598h164l395 -721l396 721h163l-335 -598h256v-119h-324l-82 -143h406v-119h-414v-397h-139v397z" />
    <glyph glyph-name="brokenbar" unicode="&#xa6;" horiz-adv-x="454" 
d="M172 1382h111v-716h-111v716zM172 358h111v-716h-111v716z" />
    <glyph glyph-name="section" unicode="&#xa7;" 
d="M909 1116h-155q-6 76 -57.5 119t-129.5 43t-128 -48t-50 -126q0 -47 26 -81t68 -52.5t96.5 -38t110.5 -35t110.5 -45.5t96.5 -68t68 -104t26 -152q0 -118 -67.5 -202.5t-182.5 -122.5v-4q84 -29 140.5 -96.5t56.5 -153.5q0 -90 -52.5 -163.5t-133.5 -112t-170 -38.5
q-162 0 -265 80.5t-112 239.5h155q0 -91 63 -139.5t155 -48.5q85 0 144.5 50t59.5 130q0 44 -21.5 75.5t-58.5 51t-84.5 34t-100.5 28t-105.5 30t-100 44t-84.5 65t-58.5 97.5t-21.5 138q0 239 265 346v4q-70 19 -124.5 87.5t-54.5 139.5q0 155 95.5 238.5t251.5 83.5
q139 0 224.5 -77t104.5 -216zM836 524q0 118 -71.5 184t-195.5 66q-103 0 -184.5 -73.5t-81.5 -176.5q0 -118 71 -184t195 -66q103 0 185 73.5t82 176.5z" />
    <glyph glyph-name="dieresis" unicode="&#xa8;" horiz-adv-x="417" 
d="M-10 1147v168h160v-168h-160zM268 1147v168h160v-168h-160z" />
    <glyph glyph-name="copyright" unicode="&#xa9;" horiz-adv-x="1638" 
d="M41 731q0 159 62 303t166.5 247.5t248.5 164.5t301 61t301 -61t248.5 -164.5t166.5 -247.5t62 -303t-62 -303t-166.5 -247.5t-248.5 -164.5t-301 -61t-301 61t-248.5 164.5t-166.5 247.5t-62 303zM164 731q0 -186 85.5 -339.5t236 -242t333.5 -88.5t333.5 88.5t236.5 242
t86 339.5t-86 339.5t-236.5 242t-333.5 88.5t-333.5 -88.5t-236 -242t-85.5 -339.5zM1110 578h123q-32 -152 -137 -242t-252 -90q-138 0 -245 64.5t-163.5 175t-56.5 247.5q0 210 128.5 349t336.5 139q152 0 260 -87t129 -239h-123q-19 91 -90.5 149t-175.5 58
q-149 0 -241.5 -108.5t-92.5 -260.5t92.5 -260t241.5 -108q107 0 179 59.5t87 153.5z" />
    <glyph glyph-name="ordfeminine" unicode="&#xaa;" horiz-adv-x="614" 
d="M139 1231h-96q22 103 90.5 140.5t190.5 37.5q129 0 182 -52t53 -169v-256q0 -74 29 -113h-103q-10 24 -22 84q-92 -106 -225 -106q-93 0 -157.5 44t-64.5 124q0 61 24.5 101t64 57.5t87 26.5t94.5 13t86 10.5t62.5 25.5t22.5 52q0 76 -152 76q-73 0 -116 -19.5t-50 -76.5
zM457 1038v99q-28 -18 -70.5 -32t-69 -19.5t-90.5 -16.5q-108 -22 -108 -104q0 -39 37.5 -59.5t99.5 -20.5q84 0 142.5 44t58.5 109z" />
    <glyph glyph-name="guillemotleft" unicode="&#xab;" horiz-adv-x="1099" 
d="M719 227l-213 246l213 246h139l-213 -246l213 -246h-139zM455 227l-213 246l213 246h139l-213 -246l213 -246h-139z" />
    <glyph glyph-name="logicalnot" unicode="&#xac;" horiz-adv-x="1228" 
d="M977 233v369h-836v111h946v-480h-110z" />
    <glyph glyph-name="uni00AD" unicode="&#xad;" horiz-adv-x="606" 
d="M100 412v123h404v-123h-404z" />
    <glyph glyph-name="registered" unicode="&#xae;" horiz-adv-x="1638" 
d="M643 676v-402h-115v918h349q309 0 309 -260q0 -114 -65.5 -175.5t-170.5 -76.5l269 -406h-140l-254 402h-182zM643 786h205q104 0 159.5 38.5t55.5 109.5t-55.5 109t-159.5 38h-205v-295zM41 731q0 159 62 303t166.5 247.5t248.5 164.5t301 61t301 -61t248.5 -164.5
t166.5 -247.5t62 -303t-62 -303t-166.5 -247.5t-248.5 -164.5t-301 -61t-301 61t-248.5 164.5t-166.5 247.5t-62 303zM164 731q0 -186 85.5 -339.5t236 -242t333.5 -88.5t333.5 88.5t236.5 242t86 339.5t-86 339.5t-236.5 242t-333.5 88.5t-333.5 -88.5t-236 -242
t-85.5 -339.5z" />
    <glyph glyph-name="macron" unicode="&#xaf;" horiz-adv-x="417" 
d="M-61 1167v111h540v-111h-540z" />
    <glyph glyph-name="degree" unicode="&#xb0;" horiz-adv-x="819" 
d="M193 1116q0 -92 63.5 -159.5t153.5 -67.5t153.5 67.5t63.5 159.5t-63.5 159.5t-153.5 67.5t-153.5 -67.5t-63.5 -159.5zM119 1116q0 123 84 208t207 85t206.5 -85t83.5 -208t-83.5 -208t-206.5 -85t-207 85t-84 208z" />
    <glyph glyph-name="plusminus" unicode="&#xb1;" horiz-adv-x="1228" 
d="M559 618v328h111v-328h417v-110h-417v-326h-111v326h-418v110h418zM141 0v111h946v-111h-946z" />
    <glyph glyph-name="twosuperior" unicode="&#xb2;" horiz-adv-x="681" 
d="M627 563h-576q3 45 19.5 86t35 69t55.5 62.5t59.5 52t70.5 52.5q17 12 47 33t46 32.5t41 30.5t38 31.5t29.5 31.5t24.5 36t14 38t6 43q0 74 -53 114t-132 40q-113 0 -160 -46t-47 -149h-98v43q0 118 84.5 182t216.5 64q126 0 206.5 -67.5t80.5 -182.5q0 -35 -8.5 -67
t-27 -59.5t-37.5 -49.5t-50.5 -47t-54 -41.5t-60.5 -42t-59 -41.5q-73 -53 -110.5 -86t-51.5 -63h451v-99z" />
    <glyph glyph-name="threesuperior" unicode="&#xb3;" horiz-adv-x="681" 
d="M37 774h98q10 -78 62.5 -109.5t144.5 -31.5q91 0 148 50t57 130q0 78 -64 120t-153 42q-12 0 -34 -2t-34 -2v94h53q51 0 94.5 12t75 43.5t31.5 77.5q0 58 -47.5 89.5t-112.5 31.5q-88 0 -138 -38.5t-56 -113.5h-99q12 120 91 181t211 61q105 0 177 -58t72 -153
q0 -125 -151 -174v-4q86 -24 134 -81.5t48 -141.5q0 -120 -92 -187t-227 -67q-116 0 -201 62.5t-88 168.5z" />
    <glyph glyph-name="acute" unicode="&#xb4;" horiz-adv-x="417" 
d="M233 1116h-127l140 293h203z" />
    <glyph glyph-name="mu" unicode="&#xb5;" horiz-adv-x="1062" 
d="M924 946v-946h-148v162h-4q-111 -199 -321 -199q-102 0 -166 45v-520h-148v1458h148v-655q0 -93 49.5 -155t144.5 -62q126 0 211.5 95.5t85.5 268.5v508h148z" />
    <glyph glyph-name="paragraph" unicode="&#xb6;" horiz-adv-x="1228" 
d="M545 -365v1045q-196 0 -312 106.5t-116 284.5t116 284.5t312 106.5h499v-1827h-118v1717h-262v-1717h-119z" />
    <glyph glyph-name="periodcentered" unicode="&#xb7;" horiz-adv-x="569" 
d="M178 473q0 43 31.5 75t75.5 32t75 -32t31 -75t-31 -74.5t-75 -31.5t-75.5 31.5t-31.5 74.5z" />
    <glyph glyph-name="cedilla" unicode="&#xb8;" horiz-adv-x="417" 
d="M-8 -426l26 68q66 -27 136 -27q43 0 76.5 20t33.5 60q0 43 -25.5 63.5t-68.5 20.5q-51 0 -82 -15l-31 37l119 176h90l-86 -127q44 7 74 7q71 0 116.5 -43t45.5 -101q0 -47 -22.5 -82.5t-59 -55t-75 -29t-77.5 -9.5q-126 0 -190 37z" />
    <glyph glyph-name="onesuperior" unicode="&#xb9;" horiz-adv-x="681" 
d="M334 1389h82v-826h-99v690l-116 -112l-54 53z" />
    <glyph glyph-name="ordmasculine" unicode="&#xba;" horiz-adv-x="684" 
d="M344 1323q-103 0 -160 -58t-57 -161t57.5 -162t159.5 -59t158.5 59t56.5 162t-56.5 161t-158.5 58zM344 797q-136 0 -227.5 80.5t-91.5 226.5t91 225.5t228 79.5q136 0 227 -79.5t91 -225.5t-91 -226.5t-227 -80.5z" />
    <glyph glyph-name="guillemotright" unicode="&#xbb;" horiz-adv-x="1099" 
d="M381 719l213 -246l-213 -246h-139l213 246l-213 246h139zM645 719l213 -246l-213 -246h-139l213 246l-213 246h139z" />
    <glyph glyph-name="onequarter" unicode="&#xbc;" horiz-adv-x="1708" 
d="M991 217v70l445 538h86v-526h108v-82h-108v-217h-99v217h-432zM1423 299v389h-4l-309 -389h313zM358 -33l895 1442h131l-895 -1442h-131zM334 1389h82v-826h-99v690l-116 -112l-54 53z" />
    <glyph glyph-name="onehalf" unicode="&#xbd;" horiz-adv-x="1708" 
d="M285 -33l895 1442h131l-895 -1442h-131zM334 1389h82v-826h-99v690l-116 -112l-54 53zM1638 0h-575q3 45 19.5 86t35 69t55.5 62.5t59.5 52t70.5 52.5q16 11 53.5 37t52.5 37.5t43.5 34t41 38t27.5 37.5t21 44.5t6 47.5q0 74 -53 114t-131 40q-113 0 -160 -46t-47 -149
h-98v43q0 118 84.5 182t216.5 64q126 0 206.5 -67.5t80.5 -182.5q0 -35 -8.5 -67t-27 -59.5t-37.5 -49.5t-50.5 -47t-54 -41.5t-60.5 -42t-59 -41.5q-72 -52 -110 -86t-52 -64h450v-98z" />
    <glyph glyph-name="threequarters" unicode="&#xbe;" horiz-adv-x="1708" 
d="M78 774h98q10 -78 62.5 -109.5t144.5 -31.5q91 0 148 50t57 130q0 78 -64 120t-153 42q-11 0 -34 -2t-34 -2v94h53q51 0 94.5 12t75 43.5t31.5 77.5q0 58 -47.5 89.5t-112.5 31.5q-88 0 -138 -38.5t-56 -113.5h-99q12 120 91 181t211 61q105 0 177 -58t72 -153
q0 -125 -151 -174v-4q86 -24 134 -81.5t48 -141.5q0 -120 -92 -187t-227 -67q-116 0 -201 62.5t-88 168.5zM422 -33l895 1442h131l-895 -1442h-131zM991 217v70l445 538h86v-526h108v-82h-108v-217h-99v217h-432zM1423 299v389h-4l-309 -389h313z" />
    <glyph glyph-name="questiondown" unicode="&#xbf;" horiz-adv-x="985" 
d="M414 643h139v-258q0 -62 -23 -118t-57 -95t-74.5 -79.5t-74.5 -73t-57 -74t-23 -84.5q0 -89 67 -145t170 -56q78 0 130.5 20t80 59t38.5 86.5t11 113.5h152q0 -108 -32 -187.5t-90 -125.5t-129.5 -67.5t-158.5 -21.5q-107 0 -195 35t-142 104.5t-54 161.5q0 59 24 114.5
t59.5 96.5t77.5 85.5t77.5 81.5t59.5 83.5t24 93.5v250zM563 946v-160h-160v160h160z" />
    <glyph glyph-name="Agrave" unicode="&#xc0;" horiz-adv-x="1366" 
d="M692 1282l-336 -811h664zM-10 0l639 1462h141l608 -1462h-172l-133 332h-772l-139 -332h-172zM811 1569h-127l-215 293h203z" />
    <glyph glyph-name="Aacute" unicode="&#xc1;" horiz-adv-x="1366" 
d="M692 1282l-336 -811h664zM-10 0l639 1462h141l608 -1462h-172l-133 332h-772l-139 -332h-172zM733 1569h-127l139 293h203z" />
    <glyph glyph-name="Acircumflex" unicode="&#xc2;" horiz-adv-x="1366" 
d="M692 1282l-336 -811h664zM-10 0l639 1462h141l608 -1462h-172l-133 332h-772l-139 -332h-172zM788 1862l203 -293h-162l-124 182l-127 -182h-152l205 293h157z" />
    <glyph glyph-name="Atilde" unicode="&#xc3;" horiz-adv-x="1366" 
d="M692 1282l-336 -811h664zM-10 0l639 1462h141l608 -1462h-172l-133 332h-772l-139 -332h-172zM514 1591h-102q2 83 52 154.5t128 71.5q54 0 137 -36t105 -36q28 0 44.5 26t22.5 58h105q-7 -46 -17.5 -80.5t-30.5 -69t-54 -53t-81 -18.5q-40 0 -123 36.5t-110 36.5
q-28 0 -54 -31t-22 -59z" />
    <glyph glyph-name="Adieresis" unicode="&#xc4;" horiz-adv-x="1366" 
d="M692 1282l-336 -811h664zM-10 0l639 1462h141l608 -1462h-172l-133 332h-772l-139 -332h-172zM489 1599v168h160v-168h-160zM768 1599v168h160v-168h-160z" />
    <glyph glyph-name="Aring" unicode="&#xc5;" horiz-adv-x="1366" 
d="M692 1282l-336 -811h664zM-10 0l639 1462h141l608 -1462h-172l-133 332h-772l-139 -332h-172zM918 1735q0 -86 -61.5 -147.5t-147.5 -61.5t-147.5 61.5t-61.5 147.5t61.5 147.5t147.5 61.5t147.5 -61.5t61.5 -147.5zM827 1735q0 49 -34.5 83.5t-83.5 34.5
q-50 0 -84.5 -34.5t-34.5 -83.5t35 -84t84 -35t83.5 34.5t34.5 84.5z" />
    <glyph glyph-name="AE" unicode="&#xc6;" horiz-adv-x="2048" 
d="M1065 1462h924v-147h-729v-459h622v-147h-622v-562h741v-147h-901v332h-674l-233 -332h-193zM526 471h574v807l-4 4z" />
    <glyph glyph-name="Ccedilla" unicode="&#xc7;" horiz-adv-x="1517" 
d="M1432 1055h-164q-51 152 -177.5 232.5t-293.5 80.5q-148 0 -271.5 -86.5t-193.5 -233t-70 -317.5q0 -100 20 -191.5t62.5 -173.5t104.5 -142t151 -95t197 -35q117 0 223 48t177.5 134.5t86.5 192.5h170q-55 -232 -216 -365t-388 -145l-72 -109q44 7 74 7q71 0 116.5 -43
t45.5 -101q0 -47 -22.5 -82.5t-59 -55t-75 -29t-77.5 -9.5q-126 0 -190 37l26 68q66 -27 136 -27q43 0 76.5 20t33.5 60q0 43 -25.5 63.5t-68.5 20.5q-51 0 -82 -15l-31 37l105 156q-199 9 -353.5 112.5t-237.5 276t-83 385.5q0 161 59.5 306.5t157.5 247.5t227.5 162
t266.5 60q250 0 417 -119t218 -333z" />
    <glyph glyph-name="Egrave" unicode="&#xc8;" 
d="M152 0v1462h925v-147h-766v-459h664v-147h-664v-562h766v-147h-925zM707 1569h-127l-215 293h202z" />
    <glyph glyph-name="Eacute" unicode="&#xc9;" 
d="M152 0v1462h925v-147h-766v-459h664v-147h-664v-562h766v-147h-925zM629 1569h-127l139 293h203z" />
    <glyph glyph-name="Ecircumflex" unicode="&#xca;" 
d="M152 0v1462h925v-147h-766v-459h664v-147h-664v-562h766v-147h-925zM684 1862l203 -293h-162l-125 182l-127 -182h-151l204 293h158z" />
    <glyph glyph-name="Edieresis" unicode="&#xcb;" 
d="M152 0v1462h925v-147h-766v-459h664v-147h-664v-562h766v-147h-925zM385 1599v168h160v-168h-160zM664 1599v168h159v-168h-159z" />
    <glyph glyph-name="Igrave" unicode="&#xcc;" horiz-adv-x="454" 
d="M147 0v1462h160v-1462h-160zM330 1569h-127l-215 293h202z" />
    <glyph glyph-name="Iacute" unicode="&#xcd;" horiz-adv-x="454" 
d="M147 0v1462h160v-1462h-160zM252 1569h-127l139 293h203z" />
    <glyph glyph-name="Icircumflex" unicode="&#xce;" horiz-adv-x="454" 
d="M147 0v1462h160v-1462h-160zM307 1862l203 -293h-162l-125 182l-127 -182h-151l205 293h157z" />
    <glyph glyph-name="Idieresis" unicode="&#xcf;" horiz-adv-x="454" 
d="M147 0v1462h160v-1462h-160zM8 1599v168h160v-168h-160zM287 1599v168h159v-168h-159z" />
    <glyph glyph-name="Eth" unicode="&#xd0;" horiz-adv-x="1517" 
d="M152 1462h510q223 0 397 -91t271 -258t97 -382t-97 -382t-271 -258t-397 -91h-510v717h-181v139h181v606zM758 856v-139h-447v-578h334q270 0 438 167.5t168 424.5t-168 424.5t-438 167.5h-334v-467h447z" />
    <glyph glyph-name="Ntilde" unicode="&#xd1;" horiz-adv-x="1517" 
d="M145 0v1462h158l905 -1188h4v1188h160v-1462h-160l-903 1206h-4v-1206h-160zM600 1591h-102q2 83 52 154.5t128 71.5q54 0 137 -36t105 -36q28 0 44.5 26t22.5 58h105q-7 -46 -17.5 -80.5t-30.5 -69t-54 -53t-81 -18.5q-40 0 -123 36.5t-110 36.5q-28 0 -54 -31t-22 -59z
" />
    <glyph glyph-name="Ograve" unicode="&#xd2;" horiz-adv-x="1593" 
d="M86 731q0 161 59.5 306.5t157.5 247.5t227.5 162t266.5 60q157 0 290.5 -59.5t225 -163t143 -246.5t51.5 -307q0 -161 -59.5 -306.5t-157 -247.5t-227 -162t-266.5 -60q-209 0 -372 102t-251 278.5t-88 395.5zM1331 731q0 100 -19.5 191.5t-62.5 173.5t-104.5 142
t-150.5 95t-197 35q-148 0 -271.5 -86.5t-193.5 -233t-70 -317.5q0 -100 20 -191.5t62.5 -173.5t104.5 -142t151 -95t197 -35q148 0 271.5 86.5t193 233t69.5 317.5zM899 1569h-127l-215 293h203z" />
    <glyph glyph-name="Oacute" unicode="&#xd3;" horiz-adv-x="1593" 
d="M86 731q0 161 59.5 306.5t157.5 247.5t227.5 162t266.5 60q157 0 290.5 -59.5t225 -163t143 -246.5t51.5 -307q0 -161 -59.5 -306.5t-157 -247.5t-227 -162t-266.5 -60q-209 0 -372 102t-251 278.5t-88 395.5zM1331 731q0 100 -19.5 191.5t-62.5 173.5t-104.5 142
t-150.5 95t-197 35q-148 0 -271.5 -86.5t-193.5 -233t-70 -317.5q0 -100 20 -191.5t62.5 -173.5t104.5 -142t151 -95t197 -35q148 0 271.5 86.5t193 233t69.5 317.5zM821 1569h-127l140 293h202z" />
    <glyph glyph-name="Ocircumflex" unicode="&#xd4;" horiz-adv-x="1593" 
d="M86 731q0 161 59.5 306.5t157.5 247.5t227.5 162t266.5 60q157 0 290.5 -59.5t225 -163t143 -246.5t51.5 -307q0 -161 -59.5 -306.5t-157 -247.5t-227 -162t-266.5 -60q-209 0 -372 102t-251 278.5t-88 395.5zM1331 731q0 100 -19.5 191.5t-62.5 173.5t-104.5 142
t-150.5 95t-197 35q-148 0 -271.5 -86.5t-193.5 -233t-70 -317.5q0 -100 20 -191.5t62.5 -173.5t104.5 -142t151 -95t197 -35q148 0 271.5 86.5t193 233t69.5 317.5zM877 1862l202 -293h-161l-125 182l-127 -182h-152l205 293h158z" />
    <glyph glyph-name="Otilde" unicode="&#xd5;" horiz-adv-x="1593" 
d="M86 731q0 161 59.5 306.5t157.5 247.5t227.5 162t266.5 60q157 0 290.5 -59.5t225 -163t143 -246.5t51.5 -307q0 -161 -59.5 -306.5t-157 -247.5t-227 -162t-266.5 -60q-209 0 -372 102t-251 278.5t-88 395.5zM1331 731q0 100 -19.5 191.5t-62.5 173.5t-104.5 142
t-150.5 95t-197 35q-148 0 -271.5 -86.5t-193.5 -233t-70 -317.5q0 -100 20 -191.5t62.5 -173.5t104.5 -142t151 -95t197 -35q148 0 271.5 86.5t193 233t69.5 317.5zM602 1591h-102q2 83 52 154.5t128 71.5q54 0 137 -36t105 -36q28 0 44.5 26t22.5 58h105
q-7 -46 -17.5 -80.5t-30.5 -69t-54 -53t-81 -18.5q-40 0 -123 36.5t-110 36.5q-28 0 -54 -31t-22 -59z" />
    <glyph glyph-name="Odieresis" unicode="&#xd6;" horiz-adv-x="1593" 
d="M86 731q0 161 59.5 306.5t157.5 247.5t227.5 162t266.5 60q157 0 290.5 -59.5t225 -163t143 -246.5t51.5 -307q0 -161 -59.5 -306.5t-157 -247.5t-227 -162t-266.5 -60q-209 0 -372 102t-251 278.5t-88 395.5zM1331 731q0 100 -19.5 191.5t-62.5 173.5t-104.5 142
t-150.5 95t-197 35q-148 0 -271.5 -86.5t-193.5 -233t-70 -317.5q0 -100 20 -191.5t62.5 -173.5t104.5 -142t151 -95t197 -35q148 0 271.5 86.5t193 233t69.5 317.5zM578 1599v168h159v-168h-159zM856 1599v168h160v-168h-160z" />
    <glyph glyph-name="multiply" unicode="&#xd7;" horiz-adv-x="1228" 
d="M614 551l390 395l83 -84l-395 -389l395 -393l-83 -80l-390 395l-391 -395l-82 82l396 391l-396 389l82 84z" />
    <glyph glyph-name="Oslash" unicode="&#xd8;" horiz-adv-x="1593" 
d="M1221 1145l-775 -916q135 -135 351 -135q148 0 271.5 86.5t193 233t69.5 317.5q0 246 -110 414zM377 315l772 918q-138 135 -352 135q-148 0 -271.5 -86.5t-193.5 -233t-70 -317.5q0 -246 115 -416zM348 115l-147 -174l-84 65l155 184q-186 217 -186 541
q0 161 59.5 306.5t157.5 247.5t227.5 162t266.5 60q262 0 448 -159l137 163l88 -69l-145 -172q182 -216 182 -539q0 -161 -59.5 -306.5t-157 -247.5t-227 -162t-266.5 -60q-262 0 -449 160z" />
    <glyph glyph-name="Ugrave" unicode="&#xd9;" horiz-adv-x="1478" 
d="M1182 1462h159v-966q0 -134 -43.5 -238t-123.5 -170t-189.5 -99.5t-245.5 -33.5q-138 0 -244.5 28t-188.5 89.5t-125.5 168.5t-43.5 255v966h160v-958q0 -210 116.5 -310t325.5 -100t326 100t117 310v958zM842 1569h-127l-215 293h202z" />
    <glyph glyph-name="Uacute" unicode="&#xda;" horiz-adv-x="1478" 
d="M1182 1462h159v-966q0 -134 -43.5 -238t-123.5 -170t-189.5 -99.5t-245.5 -33.5q-138 0 -244.5 28t-188.5 89.5t-125.5 168.5t-43.5 255v966h160v-958q0 -210 116.5 -310t325.5 -100t326 100t117 310v958zM764 1569h-127l139 293h203z" />
    <glyph glyph-name="Ucircumflex" unicode="&#xdb;" horiz-adv-x="1478" 
d="M1182 1462h159v-966q0 -134 -43.5 -238t-123.5 -170t-189.5 -99.5t-245.5 -33.5q-138 0 -244.5 28t-188.5 89.5t-125.5 168.5t-43.5 255v966h160v-958q0 -210 116.5 -310t325.5 -100t326 100t117 310v958zM819 1862l203 -293h-162l-125 182l-127 -182h-151l205 293h157z
" />
    <glyph glyph-name="Udieresis" unicode="&#xdc;" horiz-adv-x="1478" 
d="M1182 1462h159v-966q0 -134 -43.5 -238t-123.5 -170t-189.5 -99.5t-245.5 -33.5q-138 0 -244.5 28t-188.5 89.5t-125.5 168.5t-43.5 255v966h160v-958q0 -210 116.5 -310t325.5 -100t326 100t117 310v958zM520 1599v168h160v-168h-160zM799 1599v168h159v-168h-159z" />
    <glyph glyph-name="Yacute" unicode="&#xdd;" horiz-adv-x="1290" 
d="M561 0v532l-557 930h186l455 -766l457 766h186l-567 -930v-532h-160zM670 1569h-127l139 293h203z" />
    <glyph glyph-name="Thorn" unicode="&#xde;" horiz-adv-x="1251" 
d="M168 0v1462h160v-229h368q227 0 365.5 -118.5t138.5 -330.5t-138.5 -330t-365.5 -118h-368v-336h-160zM328 1094v-619h385q149 0 238 76t89 233t-89 233.5t-238 76.5h-385z" />
    <glyph glyph-name="germandbls" unicode="&#xdf;" 
d="M291 0h-148v1083q0 200 105 306t315 106q68 0 133 -19.5t118 -55.5t85.5 -95t32.5 -131q0 -110 -62.5 -179.5t-171.5 -96.5v-5q173 -49 252.5 -159t79.5 -301q0 -98 -29 -184t-83.5 -152t-140.5 -104t-193 -38q-106 0 -197 29v150q73 -56 182 -56q97 0 170.5 52.5
t108.5 132.5t35 172q0 181 -97 284t-264 103h-53v123h92q80 0 151.5 55.5t71.5 157.5q0 88 -67.5 141t-167.5 53q-127 0 -192.5 -74t-65.5 -196v-1102z" />
    <glyph glyph-name="agrave" unicode="&#xe0;" horiz-adv-x="1024" 
d="M262 686h-147q14 72 42 125t64.5 86t89 52.5t107.5 26.5t127 7q198 0 280 -87t82 -282v-426q0 -122 43 -188h-157q-19 56 -33 141q-72 -90 -155 -134t-193 -44q-91 0 -166 30t-123.5 95t-48.5 154q0 102 38 169t98.5 96.5t133.5 44.5t146 21.5t133.5 17.5t98.5 42t38 86
q0 52 -40.5 88.5t-93 50.5t-108.5 14q-235 0 -256 -186zM760 367v190q-113 -70 -363 -106q-75 -11 -125.5 -59.5t-50.5 -121.5q0 -92 62.5 -144t158.5 -52q128 0 223 87t95 206zM614 1116h-127l-215 293h203z" />
    <glyph glyph-name="aacute" unicode="&#xe1;" horiz-adv-x="1024" 
d="M262 686h-147q14 72 42 125t64.5 86t89 52.5t107.5 26.5t127 7q198 0 280 -87t82 -282v-426q0 -122 43 -188h-157q-19 56 -33 141q-72 -90 -155 -134t-193 -44q-91 0 -166 30t-123.5 95t-48.5 154q0 102 38 169t98.5 96.5t133.5 44.5t146 21.5t133.5 17.5t98.5 42t38 86
q0 52 -40.5 88.5t-93 50.5t-108.5 14q-235 0 -256 -186zM760 367v190q-113 -70 -363 -106q-75 -11 -125.5 -59.5t-50.5 -121.5q0 -92 62.5 -144t158.5 -52q128 0 223 87t95 206zM537 1116h-127l139 293h203z" />
    <glyph glyph-name="acircumflex" unicode="&#xe2;" horiz-adv-x="1024" 
d="M262 686h-147q14 72 42 125t64.5 86t89 52.5t107.5 26.5t127 7q198 0 280 -87t82 -282v-426q0 -122 43 -188h-157q-19 56 -33 141q-72 -90 -155 -134t-193 -44q-91 0 -166 30t-123.5 95t-48.5 154q0 102 38 169t98.5 96.5t133.5 44.5t146 21.5t133.5 17.5t98.5 42t38 86
q0 52 -40.5 88.5t-93 50.5t-108.5 14q-235 0 -256 -186zM760 367v190q-113 -70 -363 -106q-75 -11 -125.5 -59.5t-50.5 -121.5q0 -92 62.5 -144t158.5 -52q128 0 223 87t95 206zM592 1409l203 -293h-162l-125 182l-127 -182h-152l205 293h158z" />
    <glyph glyph-name="atilde" unicode="&#xe3;" horiz-adv-x="1024" 
d="M262 686h-147q14 72 42 125t64.5 86t89 52.5t107.5 26.5t127 7q198 0 280 -87t82 -282v-426q0 -122 43 -188h-157q-19 56 -33 141q-72 -90 -155 -134t-193 -44q-91 0 -166 30t-123.5 95t-48.5 154q0 102 38 169t98.5 96.5t133.5 44.5t146 21.5t133.5 17.5t98.5 42t38 86
q0 52 -40.5 88.5t-93 50.5t-108.5 14q-235 0 -256 -186zM760 367v190q-113 -70 -363 -106q-75 -11 -125.5 -59.5t-50.5 -121.5q0 -92 62.5 -144t158.5 -52q128 0 223 87t95 206zM317 1139h-102q2 83 52 154t128 71q54 0 137 -36t105 -36q28 0 45 26.5t23 57.5h104
q-7 -46 -17.5 -80.5t-30 -69t-53.5 -53t-81 -18.5q-40 0 -123.5 37t-110.5 37q-28 0 -54 -31t-22 -59z" />
    <glyph glyph-name="adieresis" unicode="&#xe4;" horiz-adv-x="1024" 
d="M262 686h-147q14 72 42 125t64.5 86t89 52.5t107.5 26.5t127 7q198 0 280 -87t82 -282v-426q0 -122 43 -188h-157q-19 56 -33 141q-72 -90 -155 -134t-193 -44q-91 0 -166 30t-123.5 95t-48.5 154q0 102 38 169t98.5 96.5t133.5 44.5t146 21.5t133.5 17.5t98.5 42t38 86
q0 52 -40.5 88.5t-93 50.5t-108.5 14q-235 0 -256 -186zM760 367v190q-113 -70 -363 -106q-75 -11 -125.5 -59.5t-50.5 -121.5q0 -92 62.5 -144t158.5 -52q128 0 223 87t95 206zM293 1147v168h160v-168h-160zM571 1147v168h160v-168h-160z" />
    <glyph glyph-name="aring" unicode="&#xe5;" horiz-adv-x="1024" 
d="M262 686h-147q14 72 42 125t64.5 86t89 52.5t107.5 26.5t127 7q198 0 280 -87t82 -282v-426q0 -122 43 -188h-157q-19 56 -33 141q-72 -90 -155 -134t-193 -44q-91 0 -166 30t-123.5 95t-48.5 154q0 102 38 169t98.5 96.5t133.5 44.5t146 21.5t133.5 17.5t98.5 42t38 86
q0 52 -40.5 88.5t-93 50.5t-108.5 14q-235 0 -256 -186zM760 367v190q-113 -70 -363 -106q-75 -11 -125.5 -59.5t-50.5 -121.5q0 -92 62.5 -144t158.5 -52q128 0 223 87t95 206zM721 1282q0 -86 -61.5 -147.5t-147.5 -61.5t-147.5 61.5t-61.5 147.5t61.5 147.5t147.5 61.5
t147.5 -61.5t61.5 -147.5zM631 1282q0 50 -34.5 84.5t-84.5 34.5t-84.5 -34.5t-34.5 -84.5t34.5 -84.5t84.5 -34.5t84.5 34.5t34.5 84.5z" />
    <glyph glyph-name="ae" unicode="&#xe6;" horiz-adv-x="1744" 
d="M1679 449h-780q3 -165 96.5 -270t237.5 -105q108 0 178 42t109 136h151q-39 -148 -157.5 -218.5t-288.5 -70.5q-280 0 -410 250q-57 -118 -166 -184t-246 -66q-91 0 -165.5 30t-123 95t-48.5 154q0 102 38 169t98.5 96.5t133.5 44.5t146 21.5t133.5 17.5t98.5 42t38 86
q0 52 -40.5 88.5t-93 50.5t-108.5 14q-235 0 -256 -186h-148q17 90 54.5 150t95.5 91.5t124 43.5t157 12q47 0 81.5 -4t85 -18.5t92.5 -51t70 -92.5q120 166 359 166q124 0 210.5 -34.5t138 -105t76 -166t29.5 -228.5zM752 367v190q-21 -13 -44.5 -24.5t-41 -19.5t-47.5 -17
t-42.5 -13t-48.5 -12t-44 -10t-49.5 -10t-45.5 -9q-77 -15 -126.5 -58t-49.5 -114q0 -92 62.5 -144t158.5 -52q128 0 223 87t95 206zM899 559h621q0 146 -80 229.5t-215 83.5q-136 0 -221.5 -85t-104.5 -228z" />
    <glyph glyph-name="ccedilla" unicode="&#xe7;" horiz-adv-x="1024" 
d="M930 645h-148q-6 107 -75.5 167t-178.5 60q-62 0 -113 -21t-85.5 -57.5t-58 -87.5t-34 -109t-10.5 -124t10.5 -124t34 -109t58 -87.5t85.5 -57.5t113 -21q119 0 181.5 61.5t89.5 175.5h143q-34 -165 -115.5 -248t-228.5 -96l-80 -117q44 7 74 7q71 0 116.5 -43t45.5 -101
q0 -47 -22.5 -82.5t-59 -55t-75 -29t-77.5 -9.5q-126 0 -190 37l26 68q66 -27 136 -27q43 0 76.5 20t33.5 60q0 43 -25.5 63.5t-68.5 20.5q-51 0 -82 -15l-31 37l111 164q-86 4 -156.5 32.5t-120 75.5t-83.5 110.5t-50 136.5t-16 153q0 104 27.5 194.5t81 162t140.5 112.5
t199 41q163 0 276.5 -89t125.5 -249z" />
    <glyph glyph-name="egrave" unicode="&#xe8;" horiz-adv-x="1099" 
d="M1028 449h-790q3 -169 88 -272t239 -103q120 0 192 42t111 136h152q-27 -100 -93 -166t-153 -94.5t-196 -28.5q-227 0 -357.5 127.5t-130.5 384.5q0 108 27.5 198t84 160.5t151.5 110t220 39.5q437 0 455 -534zM238 559h630q-18 160 -86 236.5t-209 76.5
q-147 0 -236 -90.5t-99 -222.5zM688 1116h-127l-215 293h203z" />
    <glyph glyph-name="eacute" unicode="&#xe9;" horiz-adv-x="1099" 
d="M1028 449h-790q3 -169 88 -272t239 -103q120 0 192 42t111 136h152q-27 -100 -93 -166t-153 -94.5t-196 -28.5q-227 0 -357.5 127.5t-130.5 384.5q0 108 27.5 198t84 160.5t151.5 110t220 39.5q437 0 455 -534zM238 559h630q-18 160 -86 236.5t-209 76.5
q-147 0 -236 -90.5t-99 -222.5zM610 1116h-127l140 293h202z" />
    <glyph glyph-name="ecircumflex" unicode="&#xea;" horiz-adv-x="1099" 
d="M1028 449h-790q3 -169 88 -272t239 -103q120 0 192 42t111 136h152q-27 -100 -93 -166t-153 -94.5t-196 -28.5q-227 0 -357.5 127.5t-130.5 384.5q0 108 27.5 198t84 160.5t151.5 110t220 39.5q437 0 455 -534zM238 559h630q-18 160 -86 236.5t-209 76.5
q-147 0 -236 -90.5t-99 -222.5zM666 1409l202 -293h-161l-125 182l-127 -182h-152l205 293h158z" />
    <glyph glyph-name="edieresis" unicode="&#xeb;" horiz-adv-x="1099" 
d="M1028 449h-790q3 -169 88 -272t239 -103q120 0 192 42t111 136h152q-27 -100 -93 -166t-153 -94.5t-196 -28.5q-227 0 -357.5 127.5t-130.5 384.5q0 108 27.5 198t84 160.5t151.5 110t220 39.5q437 0 455 -534zM238 559h630q-18 160 -86 236.5t-209 76.5
q-147 0 -236 -90.5t-99 -222.5zM367 1147v168h159v-168h-159zM645 1147v168h160v-168h-160z" />
    <glyph glyph-name="igrave" unicode="&#xec;" horiz-adv-x="417" 
d="M135 0v946h148v-946h-148zM311 1116h-127l-215 293h203z" />
    <glyph glyph-name="iacute" unicode="&#xed;" horiz-adv-x="417" 
d="M135 0v946h148v-946h-148zM233 1116h-127l140 293h203z" />
    <glyph glyph-name="icircumflex" unicode="&#xee;" horiz-adv-x="417" 
d="M135 0v946h148v-946h-148zM289 1409l203 -293h-162l-125 182l-127 -182h-152l205 293h158z" />
    <glyph glyph-name="idieresis" unicode="&#xef;" horiz-adv-x="417" 
d="M135 0v946h148v-946h-148zM-10 1147v168h160v-168h-160zM268 1147v168h160v-168h-160z" />
    <glyph glyph-name="eth" unicode="&#xf0;" 
d="M569 74q158 0 250 107t92 292t-92 292t-250 107t-250 -107t-92 -292t92 -292t250 -107zM283 1405l102 57q113 -61 221 -149l199 131l53 -78l-178 -117q172 -156 275.5 -346.5t103.5 -398.5q0 -113 -27.5 -205t-74 -153.5t-110 -103.5t-133 -60.5t-145.5 -18.5
q-100 0 -188 33t-155.5 95t-106.5 160.5t-39 221.5t39 221.5t106.5 160.5t155.5 95t188 33q106 0 213 -43q-52 105 -202 244l-195 -127l-51 78l172 112q-126 107 -223 158z" />
    <glyph glyph-name="ntilde" unicode="&#xf1;" horiz-adv-x="1062" 
d="M924 0h-148v655q0 93 -49.5 155t-144.5 62q-126 0 -211.5 -95.5t-85.5 -268.5v-508h-148v946h148v-162h4q111 199 321 199q142 0 228 -95t86 -249v-639zM338 1139h-102q2 83 52 154t128 71q54 0 136.5 -36t104.5 -36q28 0 45 26.5t23 57.5h104q-7 -46 -17.5 -80.5
t-30 -69t-53.5 -53t-81 -18.5q-40 0 -123 37t-110 37q-28 0 -54 -31t-22 -59z" />
    <glyph glyph-name="ograve" unicode="&#xf2;" 
d="M569 74q158 0 250 107t92 292t-92 292t-250 107t-250 -107t-92 -292t92 -292t250 -107zM569 -37q-100 0 -188 33t-155.5 95t-106.5 160.5t-39 221.5t39 221.5t106.5 160.5t155.5 95t188 33t188 -33t156 -95t107 -160.5t39 -221.5t-39 -221.5t-107 -160.5t-156 -95
t-188 -33zM672 1116h-127l-215 293h202z" />
    <glyph glyph-name="oacute" unicode="&#xf3;" 
d="M569 74q158 0 250 107t92 292t-92 292t-250 107t-250 -107t-92 -292t92 -292t250 -107zM569 -37q-100 0 -188 33t-155.5 95t-106.5 160.5t-39 221.5t39 221.5t106.5 160.5t155.5 95t188 33t188 -33t156 -95t107 -160.5t39 -221.5t-39 -221.5t-107 -160.5t-156 -95
t-188 -33zM594 1116h-127l139 293h203z" />
    <glyph glyph-name="ocircumflex" unicode="&#xf4;" 
d="M569 74q158 0 250 107t92 292t-92 292t-250 107t-250 -107t-92 -292t92 -292t250 -107zM569 -37q-100 0 -188 33t-155.5 95t-106.5 160.5t-39 221.5t39 221.5t106.5 160.5t155.5 95t188 33t188 -33t156 -95t107 -160.5t39 -221.5t-39 -221.5t-107 -160.5t-156 -95
t-188 -33zM649 1409l203 -293h-162l-125 182l-127 -182h-151l205 293h157z" />
    <glyph glyph-name="otilde" unicode="&#xf5;" 
d="M569 74q158 0 250 107t92 292t-92 292t-250 107t-250 -107t-92 -292t92 -292t250 -107zM569 -37q-100 0 -188 33t-155.5 95t-106.5 160.5t-39 221.5t39 221.5t106.5 160.5t155.5 95t188 33t188 -33t156 -95t107 -160.5t39 -221.5t-39 -221.5t-107 -160.5t-156 -95
t-188 -33zM375 1139h-103q2 83 52.5 154t128.5 71q54 0 136.5 -36t104.5 -36q28 0 45 26.5t23 57.5h104q-7 -46 -17.5 -80.5t-30 -69t-53.5 -53t-81 -18.5q-40 0 -123 37t-110 37q-28 0 -54 -31t-22 -59z" />
    <glyph glyph-name="odieresis" unicode="&#xf6;" 
d="M569 74q158 0 250 107t92 292t-92 292t-250 107t-250 -107t-92 -292t92 -292t250 -107zM569 -37q-100 0 -188 33t-155.5 95t-106.5 160.5t-39 221.5t39 221.5t106.5 160.5t155.5 95t188 33t188 -33t156 -95t107 -160.5t39 -221.5t-39 -221.5t-107 -160.5t-156 -95
t-188 -33zM350 1147v168h160v-168h-160zM629 1147v168h159v-168h-159z" />
    <glyph glyph-name="divide" unicode="&#xf7;" horiz-adv-x="1228" 
d="M1087 418h-946v110h946v-110zM614 973q44 0 78.5 -34.5t34.5 -78.5t-34.5 -78t-78.5 -34t-78 34t-34 78t34 78.5t78 34.5zM614 199q44 0 78.5 -34.5t34.5 -78.5t-34.5 -78.5t-78.5 -34.5t-78 34.5t-34 78.5t34 78.5t78 34.5z" />
    <glyph glyph-name="oslash" unicode="&#xf8;" 
d="M856 713l-504 -563q85 -76 217 -76q158 0 250 107t92 292q0 146 -55 240zM268 57l-106 -120l-88 69l114 127q-108 133 -108 340q0 123 39 221.5t106.5 160.5t155.5 95t188 33q169 0 297 -90l111 123l88 -70l-117 -129q111 -131 111 -344q0 -123 -39 -221.5t-107 -160.5
t-156 -95t-188 -33q-178 0 -301 94zM281 238l503 563q-86 71 -215 71q-158 0 -250 -107t-92 -292q0 -141 54 -235z" />
    <glyph glyph-name="ugrave" unicode="&#xf9;" horiz-adv-x="1062" 
d="M137 946h148v-655q0 -93 49.5 -155t144.5 -62q126 0 211.5 95.5t85.5 268.5v508h148v-946h-148v162h-4q-111 -199 -321 -199q-142 0 -228 95t-86 249v639zM635 1116h-127l-215 293h203z" />
    <glyph glyph-name="uacute" unicode="&#xfa;" horiz-adv-x="1062" 
d="M137 946h148v-655q0 -93 49.5 -155t144.5 -62q126 0 211.5 95.5t85.5 268.5v508h148v-946h-148v162h-4q-111 -199 -321 -199q-142 0 -228 95t-86 249v639zM557 1116h-127l139 293h203z" />
    <glyph glyph-name="ucircumflex" unicode="&#xfb;" horiz-adv-x="1062" 
d="M137 946h148v-655q0 -93 49.5 -155t144.5 -62q126 0 211.5 95.5t85.5 268.5v508h148v-946h-148v162h-4q-111 -199 -321 -199q-142 0 -228 95t-86 249v639zM612 1409l203 -293h-162l-125 182l-127 -182h-151l205 293h157z" />
    <glyph glyph-name="udieresis" unicode="&#xfc;" horiz-adv-x="1062" 
d="M137 946h148v-655q0 -93 49.5 -155t144.5 -62q126 0 211.5 95.5t85.5 268.5v508h148v-946h-148v162h-4q-111 -199 -321 -199q-142 0 -228 95t-86 249v639zM313 1147v168h160v-168h-160zM592 1147v168h160v-168h-160z" />
    <glyph glyph-name="yacute" unicode="&#xfd;" horiz-adv-x="985" 
d="M150 946l352 -780l350 780h154l-461 -1005q-8 -17 -26.5 -60t-29 -66t-31.5 -63t-38 -63t-43 -52.5t-52 -45t-60 -26.5t-72 -11q-76 0 -164 30v164q62 -55 131 -55q67 0 120 59.5t142 247.5l-426 946h154zM518 1116h-127l139 293h203z" />
    <glyph glyph-name="thorn" unicode="&#xfe;" horiz-adv-x="1099" 
d="M123 -512v1974h147v-655h4q126 176 334 176q98 0 177.5 -41t130 -112t77.5 -162.5t27 -194.5t-27 -194.5t-77.5 -162.5t-130 -112t-177.5 -41q-114 0 -193 42.5t-141 129.5h-4v-647h-147zM270 473q0 -66 10.5 -124t34 -109t58 -87.5t85.5 -57.5t113 -21t113 21t85.5 57.5
t58 87.5t34 109t10.5 124t-10.5 124t-34 109t-58 87.5t-85.5 57.5t-113 21t-113 -21t-85.5 -57.5t-58 -87.5t-34 -109t-10.5 -124z" />
    <glyph glyph-name="ydieresis" unicode="&#xff;" horiz-adv-x="985" 
d="M150 946l352 -780l350 780h154l-461 -1005q-8 -17 -26.5 -60t-29 -66t-31.5 -63t-38 -63t-43 -52.5t-52 -45t-60 -26.5t-72 -11q-76 0 -164 30v164q62 -55 131 -55q67 0 120 59.5t142 247.5l-426 946h154zM274 1147v168h160v-168h-160zM553 1147v168h160v-168h-160z" />
    <glyph glyph-name="dotlessi" unicode="&#x131;" horiz-adv-x="417" 
d="M135 0v946h148v-946h-148z" />
    <glyph glyph-name="Lslash" unicode="&#x141;" horiz-adv-x="1099" 
d="M1081 0h-925v621l-160 -101v148l160 100v694h159v-594l328 205v-147l-328 -205v-574h766v-147z" />
    <glyph glyph-name="lslash" unicode="&#x142;" horiz-adv-x="417" 
d="M283 786v-786h-148v694l-127 -80v125l127 80v643h148v-551l127 80v-127z" />
    <glyph glyph-name="OE" unicode="&#x152;" horiz-adv-x="2048" 
d="M1987 1315h-719v-459h616v-147h-616v-562h735v-147h-873q-24 0 -110 -12q-89 -13 -160 -13q-231 0 -408.5 94.5t-274.5 266.5t-97 395t97 395t274.5 266.5t408.5 94.5q65 0 191 -12q136 -13 206 -13h730v-147zM827 1348q-117 0 -220.5 -42.5t-181.5 -120t-123.5 -195.5
t-45.5 -259t45.5 -258.5t123.5 -195t181.5 -120t220.5 -42.5q40 0 75 1t66.5 4t49.5 4.5t49 5.5t41 5v1192q-8 1 -51 6.5t-65 7.5t-69 4.5t-96 2.5z" />
    <glyph glyph-name="oe" unicode="&#x153;" horiz-adv-x="1896" 
d="M1819 449h-781q5 -162 92 -268.5t242 -106.5q108 0 178 42t109 136h151q-27 -100 -93 -166.5t-152 -94.5t-193 -28q-150 0 -250 55t-166 172q-114 -227 -391 -227q-100 0 -188 33t-155.5 95t-106.5 160.5t-39 221.5t39 221.5t106.5 160.5t155.5 95t188 33q270 0 398 -238
q66 116 169.5 177t235.5 61q433 0 451 -534zM223 473q0 -185 92 -292t250 -107q150 0 238 112t88 287t-88 287t-238 112q-158 0 -250 -107t-92 -292zM1038 559h621q-8 127 -87 220t-204 93q-136 0 -229 -90.5t-101 -222.5z" />
    <glyph glyph-name="Scaron" unicode="&#x160;" horiz-adv-x="1366" 
d="M1233 1073h-160q-9 147 -118 221t-271 74q-203 0 -309.5 -70.5t-106.5 -203.5q0 -67 33.5 -112.5t90.5 -70t131 -40t155.5 -27.5t162.5 -27t155 -44t131 -72t90.5 -118t33.5 -177q0 -90 -38 -170.5t-110 -143.5t-186.5 -100t-257.5 -37q-118 0 -218 30t-177 88.5
t-123.5 153t-52.5 215.5h160q13 -186 127 -267t315 -81q180 0 291 88t111 213q0 76 -33.5 129.5t-90.5 82.5t-131 47t-155.5 30.5t-162.5 26t-155 39t-131 64.5t-90.5 107.5t-33.5 163.5q0 110 45 193.5t124.5 132.5t177 72.5t212.5 23.5q266 0 405.5 -108t159.5 -326z
M967 1862l-203 -293h-158l-205 293h152l127 -183l125 183h162z" />
    <glyph glyph-name="scaron" unicode="&#x161;" horiz-adv-x="1024" 
d="M102 301h144q15 -117 83 -172t191 -55q105 0 186.5 48t81.5 126q0 57 -36.5 93.5t-94.5 52.5t-128.5 27.5t-140.5 27t-128 41.5t-94.5 81t-36.5 136q0 60 23.5 108t61.5 79t89 51.5t103.5 29t107.5 8.5q181 0 286.5 -81t112.5 -234h-131q-1 96 -72.5 150t-193.5 54
q-117 0 -178.5 -43t-61.5 -114q0 -56 35.5 -90t92.5 -49t125.5 -25.5t137 -25.5t125.5 -41.5t92.5 -82.5t35.5 -139q0 -69 -25 -122.5t-65 -86t-96 -53.5t-112.5 -29t-119.5 -8q-174 0 -278 84t-122 254zM795 1409l-203 -293h-158l-205 293h152l127 -182l125 182h162z" />
    <glyph glyph-name="Ydieresis" unicode="&#x178;" horiz-adv-x="1290" 
d="M561 0v532l-557 930h186l455 -766l457 766h186l-567 -930v-532h-160zM426 1599v168h160v-168h-160zM705 1599v168h159v-168h-159z" />
    <glyph glyph-name="Zcaron" unicode="&#x17d;" horiz-adv-x="1251" 
d="M90 1315v147h1098v-147l-967 -1168h959v-147h-1147v156l950 1159h-893zM909 1862l-202 -293h-158l-205 293h152l127 -183l125 183h161z" />
    <glyph glyph-name="zcaron" unicode="&#x17e;" horiz-adv-x="909" 
d="M94 827v119h744v-139l-598 -688h598v-119h-772v137l596 690h-568zM737 1409l-202 -293h-158l-205 293h152l127 -182l124 182h162z" />
    <glyph glyph-name="florin" unicode="&#x192;" 
d="M854 629h-205l-84 -758q-19 -161 -92.5 -237t-216.5 -76q-54 0 -131 34l14 138q80 -41 121 -41q58 0 89 23t50.5 88t34.5 198l68 631h-211l12 119h211l33 309q12 110 39.5 187t67 118t83.5 58.5t97 17.5q96 0 180 -37l-15 -133q-10 4 -36.5 15.5t-46.5 17.5t-39 6
q-90 0 -130 -74.5t-61 -259.5l-24 -225h206z" />
    <glyph glyph-name="circumflex" unicode="&#x2c6;" horiz-adv-x="417" 
d="M289 1409l203 -293h-162l-125 182l-127 -182h-152l205 293h158z" />
    <glyph glyph-name="caron" unicode="&#x2c7;" horiz-adv-x="417" 
d="M492 1409l-203 -293h-158l-205 293h152l127 -182l125 182h162z" />
    <glyph glyph-name="uni02C9" unicode="&#x2c9;" horiz-adv-x="417" 
d="M-61 1167v111h540v-111h-540z" />
    <glyph glyph-name="breve" unicode="&#x2d8;" horiz-adv-x="417" 
d="M362 1389h103q-28 -259 -256 -259t-256 259h102q31 -140 154 -140q122 0 153 140z" />
    <glyph glyph-name="dotaccent" unicode="&#x2d9;" horiz-adv-x="417" 
d="M129 1147v168h160v-168h-160z" />
    <glyph glyph-name="ring" unicode="&#x2da;" horiz-adv-x="417" 
d="M418 1282q0 -86 -61.5 -147.5t-147.5 -61.5t-147.5 61.5t-61.5 147.5t61.5 147.5t147.5 61.5t147.5 -61.5t61.5 -147.5zM328 1282q0 50 -35 84.5t-84 34.5t-84 -34.5t-35 -84.5t35 -84.5t84 -34.5t84 34.5t35 84.5z" />
    <glyph glyph-name="ogonek" unicode="&#x2db;" horiz-adv-x="417" 
d="M541 -254l28 -61q-183 -115 -290 -115q-99 0 -154 49t-55 123q0 107 108.5 178.5t343.5 118.5v-19q-158 -52 -229.5 -117.5t-71.5 -146.5q0 -39 32.5 -67.5t80.5 -28.5q54 0 207 86z" />
    <glyph glyph-name="tilde" unicode="&#x2dc;" horiz-adv-x="417" 
d="M14 1139h-102q2 83 52 154t128 71q54 0 137 -36t105 -36q28 0 44.5 26t22.5 58h105q-7 -46 -17.5 -80.5t-30 -69t-53.5 -53t-81 -18.5q-40 0 -123.5 37t-110.5 37q-28 0 -54 -31t-22 -59z" />
    <glyph glyph-name="hungarumlaut" unicode="&#x2dd;" horiz-adv-x="417" 
d="M88 1116h-127l84 293h205zM322 1116h-127l139 293h205z" />
    <glyph glyph-name="uni03A9" unicode="&#x3a9;" horiz-adv-x="1480" 
d="M414 113v6q-122 104 -201.5 264t-79.5 358q0 145 47.5 270.5t129.5 213t194.5 137t240.5 49.5q177 0 316.5 -92.5t213 -242.5t73.5 -326q0 -205 -83.5 -370t-203.5 -261v-6h313v-113h-485v82q135 85 227 252.5t92 392.5q0 80 -18.5 160.5t-57 154.5t-92.5 131t-130.5 91
t-164.5 34q-141 0 -250.5 -78t-167 -208t-57.5 -289q0 -213 94.5 -387t225.5 -254v-82h-486v113h310z" />
    <glyph glyph-name="uni03BC" unicode="&#x3bc;" horiz-adv-x="1062" 
d="M924 946v-946h-148v162h-4q-111 -199 -321 -199q-102 0 -166 45v-520h-148v1458h148v-655q0 -93 49.5 -155t144.5 -62q126 0 211.5 95.5t85.5 268.5v508h148z" />
    <glyph glyph-name="pi" unicode="&#x3c0;" horiz-adv-x="1157" 
d="M1102 915h-168v-618q0 -194 31 -297h-134q-34 53 -34 281v634h-385q-10 -218 -54.5 -502t-97.5 -413h-135q56 151 98.5 424t50.5 491q-161 0 -231 -26l-23 90q87 53 287 53h809z" />
    <glyph glyph-name="endash" unicode="&#x2013;" horiz-adv-x="1024" 
d="M0 528h1024v-110h-1024v110z" />
    <glyph glyph-name="emdash" unicode="&#x2014;" horiz-adv-x="2048" 
d="M0 418v110h2048v-110h-2048z" />
    <glyph glyph-name="quoteleft" unicode="&#x2018;" horiz-adv-x="569" 
d="M373 1266v-176h-176v81q0 159 63 291h109q-55 -83 -68 -196h72z" />
    <glyph glyph-name="quoteright" unicode="&#x2019;" horiz-adv-x="569" 
d="M197 1286v176h176v-82q0 -156 -64 -290h-108q54 82 67 196h-71z" />
    <glyph glyph-name="quotesinglbase" unicode="&#x201a;" horiz-adv-x="569" 
d="M197 0v176h176v-82q0 -157 -64 -291h-108q54 81 67 197h-71z" />
    <glyph glyph-name="quotedblleft" unicode="&#x201c;" horiz-adv-x="1099" 
d="M485 1266v-176h-176v81q0 157 64 291h108q-54 -82 -67 -196h71zM791 1266v-176h-177v81q0 157 64 291h108q-54 -82 -67 -196h72z" />
    <glyph glyph-name="quotedblright" unicode="&#x201d;" horiz-adv-x="1099" 
d="M614 1286v176h177v-82q0 -156 -64 -290h-109q55 83 68 196h-72zM309 1286v176h176v-82q0 -158 -63 -290h-109q55 83 68 196h-72z" />
    <glyph glyph-name="quotedblbase" unicode="&#x201e;" horiz-adv-x="1099" 
d="M614 0v176h177v-82q0 -157 -64 -291h-109q55 83 68 197h-72zM309 0v176h176v-82q0 -159 -63 -291h-109q55 83 68 197h-72z" />
    <glyph glyph-name="dagger" unicode="&#x2020;" 
d="M494 987v389h151v-389h316v-131h-316v-856h-151v856h-316v131h316z" />
    <glyph glyph-name="daggerdbl" unicode="&#x2021;" 
d="M494 1077v299h151v-299h316v-131h-316v-516h309v-131h-309v-299h-151v299h-316v131h316v516h-316v131h316z" />
    <glyph glyph-name="bullet" unicode="&#x2022;" horiz-adv-x="1024" 
d="M147 731q0 152 106.5 258.5t258.5 106.5t259.5 -106.5t107.5 -258.5t-107.5 -259t-259.5 -107t-258.5 107t-106.5 259z" />
    <glyph glyph-name="ellipsis" unicode="&#x2026;" horiz-adv-x="2048" 
d="M254 0v176h176v-176h-176zM936 0v176h176v-176h-176zM1618 0v176h176v-176h-176z" />
    <glyph glyph-name="perthousand" unicode="&#x2030;" horiz-adv-x="2048" 
d="M1755 70q79 0 120.5 68t41.5 202q0 133 -41.5 201.5t-120.5 68.5q-77 0 -119.5 -69t-42.5 -201q0 -133 42 -201.5t120 -68.5zM1112 1358l-797 -1391l-84 51l797 1391zM293 766q79 0 120.5 68t41.5 202q0 133 -42 202t-120 69q-77 0 -119.5 -69.5t-42.5 -201.5
q0 -133 42 -201.5t120 -68.5zM1755 -33q-126 0 -199 109t-73 264q0 99 30.5 182.5t93.5 137t148 53.5q127 0 200 -109.5t73 -263.5q0 -100 -30.5 -183.5t-93.5 -136.5t-149 -53zM293 664q-126 0 -199.5 108.5t-73.5 263.5q0 99 30.5 182.5t94 137t148.5 53.5
q127 0 199.5 -109.5t72.5 -263.5q0 -155 -72.5 -263.5t-199.5 -108.5zM1085 -33q-126 0 -199 109t-73 264q0 99 30.5 182.5t93.5 137t148 53.5q127 0 200 -109.5t73 -263.5q0 -100 -30.5 -183.5t-93.5 -136.5t-149 -53zM1085 70q79 0 120.5 68t41.5 202q0 133 -41.5 201.5
t-120.5 68.5q-77 0 -119 -69t-42 -201q0 -133 42 -201.5t119 -68.5z" />
    <glyph glyph-name="guilsinglleft" unicode="&#x2039;" horiz-adv-x="530" 
d="M287 227l-213 246l213 246h139l-213 -246l213 -246h-139z" />
    <glyph glyph-name="guilsinglright" unicode="&#x203a;" horiz-adv-x="530" 
d="M244 719l213 -246l-213 -246h-140l213 246l-213 246h140z" />
    <glyph glyph-name="fraction" unicode="&#x2044;" horiz-adv-x="342" 
d="M-342 -33l895 1442h131l-895 -1442h-131z" />
    <glyph glyph-name="Euro" unicode="&#x20ac;" 
d="M1049 1311v-148q-117 113 -316 113q-88 0 -158 -30.5t-116.5 -85.5t-74.5 -124.5t-38 -154.5h610l-41 -115h-583q-2 -20 -2 -76q0 -58 2 -78h528l-41 -112h-471q23 -193 122.5 -297.5t262.5 -104.5q189 0 316 111v-148q-43 -38 -130.5 -65t-201.5 -27q-217 0 -348 132
t-166 399h-148l39 112h96q-4 36 -4 78q0 36 4 76h-135l39 115h107q16 116 53 209t97.5 165.5t153.5 112t212 39.5q109 0 196.5 -28t135.5 -68z" />
    <glyph glyph-name="afii61289" unicode="&#x2113;" horiz-adv-x="980" 
d="M864 285l68 -58q-133 -250 -375 -250q-83 0 -147 30t-103 82t-60 117.5t-24 141.5v27q-15 -11 -55.5 -45t-63.5 -51l-43 79q18 16 53 45t61 51.5t48 43.5v551q0 106 18 189.5t47 136t69.5 87t82.5 48.5t88 14q122 0 186 -90.5t64 -229.5q0 -181 -110 -362t-316 -377v-62
q1 -82 20 -144.5t52 -99.5t73.5 -55t86.5 -18q90 0 163.5 59t116.5 140zM352 1061v-461q156 169 242 313.5t86 284.5q0 221 -154 221q-69 0 -121.5 -86.5t-52.5 -271.5z" />
    <glyph glyph-name="trademark" unicode="&#x2122;" horiz-adv-x="2027" 
d="M821 1462v-102h-268v-742h-123v742h-268v102h659zM1075 1352v-734h-123v844h199l262 -661l254 661h199v-844h-123v734h-4l-293 -734h-74l-293 734h-4z" />
    <glyph glyph-name="Omega" unicode="&#x2126;" horiz-adv-x="1480" 
d="M414 113v6q-122 104 -201.5 264t-79.5 358q0 145 47.5 270.5t129.5 213t194.5 137t240.5 49.5q177 0 316.5 -92.5t213 -242.5t73.5 -326q0 -205 -83.5 -370t-203.5 -261v-6h313v-113h-485v82q135 85 227 252.5t92 392.5q0 80 -18.5 160.5t-57 154.5t-92.5 131t-130.5 91
t-164.5 34q-141 0 -250.5 -78t-167 -208t-57.5 -289q0 -213 94.5 -387t225.5 -254v-82h-486v113h310z" />
    <glyph glyph-name="estimated" unicode="&#x212e;" horiz-adv-x="1738" 
d="M1669 668h-1296q-11 0 -11 -9v-393q0 -21 17 -45q96 -99 223 -156t266 -57q152 0 286 64t230 176h117q-109 -128 -277 -203.5t-358 -75.5q-162 0 -310 57t-254.5 153t-170 229.5t-63.5 279.5t63.5 279.5t170 230t254.5 154t310 57.5q218 0 403 -97t292.5 -263t107.5 -361
v-20zM1374 719v395q0 26 -18 47q-99 96 -224.5 150.5t-263.5 54.5q-137 0 -263.5 -56.5t-223.5 -154.5q-19 -22 -19 -49v-387q0 -3 3.5 -7.5t7.5 -4.5h993q8 0 8 12z" />
    <glyph glyph-name="partialdiff" unicode="&#x2202;" horiz-adv-x="1105" 
d="M207 1339l-49 97q139 112 336 112q100 0 189.5 -47t161 -137t114 -237t42.5 -332q0 -172 -33.5 -319.5t-97.5 -260t-165 -176.5t-228 -64q-96 0 -172.5 40t-122.5 106.5t-70 146.5t-24 166q0 113 35.5 209t95.5 159.5t138 99.5t163 36q68 0 129.5 -22t103.5 -56t69 -65
t42 -58h2q2 25 2 92q0 268 -114 437.5t-275 169.5q-149 0 -272 -97zM487 88h2q97 0 175 73t123.5 187t60.5 252q-28 82 -112 155.5t-195 73.5q-131 0 -224.5 -115.5t-93.5 -277.5q0 -151 73 -249.5t191 -98.5z" />
    <glyph glyph-name="Delta" unicode="&#x2206;" horiz-adv-x="1323" 
d="M63 0v96l523 1331h157l514 -1329v-98h-1194zM203 111h907l-309 788q-11 32 -67 176t-72 197h-9q-8 -32 -30.5 -92t-51.5 -135t-43 -113z" />
    <glyph glyph-name="product" unicode="&#x220f;" horiz-adv-x="1423" 
d="M1368 1266h-227v-1459h-135v1459h-592v-1459h-133v1459h-228v123h1315v-123z" />
    <glyph glyph-name="summation" unicode="&#x2211;" horiz-adv-x="1128" 
d="M1081 -193h-1036v93l557 696l-530 698v95h979v-119h-789v-6l498 -650l-535 -671v-6h856v-130z" />
    <glyph glyph-name="minus" unicode="&#x2212;" horiz-adv-x="1228" 
d="M141 418v110h946v-110h-946z" />
    <glyph glyph-name="uni2215" unicode="&#x2215;" horiz-adv-x="342" 
d="M-342 -33l895 1442h131l-895 -1442h-131z" />
    <glyph glyph-name="uni2219" unicode="&#x2219;" horiz-adv-x="569" 
d="M178 473q0 43 31.5 75t75.5 32t75 -32t31 -75t-31 -74.5t-75 -31.5t-75.5 31.5t-31.5 74.5z" />
    <glyph glyph-name="radical" unicode="&#x221a;" horiz-adv-x="1155" 
d="M1157 1649l-452 -1948h-125l-330 928l-152 -58l-28 86l266 103l268 -760q33 -129 35 -139h2q3 18 13 65.5t14 71.5l385 1651h104z" />
    <glyph glyph-name="infinity" unicode="&#x221e;" horiz-adv-x="1572" 
d="M1468 578v-3q0 -140 -91 -228.5t-216 -88.5q-92 0 -174.5 57.5t-198.5 186.5q-49 -57 -83.5 -92t-84.5 -74.5t-104 -58.5t-113 -19q-122 0 -210.5 90.5t-88.5 220.5q0 136 89.5 226t224.5 90q55 0 107.5 -19t100.5 -57t85.5 -75.5t83.5 -92.5q98 107 138 142
q118 102 243 102q131 0 211.5 -85.5t80.5 -221.5zM418 346h2q31 0 64 11t57 25t56.5 41.5t49 44.5t49 51.5t43.5 45.5q-91 109 -134 148q-99 88 -202 88q-93 0 -148.5 -68.5t-55.5 -165.5q0 -93 61 -157t158 -64zM1165 801h-2q-39 0 -77.5 -15.5t-74.5 -44.5t-62 -54.5
t-59.5 -61.5t-47.5 -50q117 -128 183.5 -178.5t143.5 -50.5q93 0 149 67.5t56 155.5q0 106 -59 169t-150 63z" />
    <glyph glyph-name="integral" unicode="&#x222b;" horiz-adv-x="712" 
d="M682 1665l-25 -94q-33 22 -75 22q-64 0 -105 -47q-38 -45 -53.5 -129t-15.5 -229q0 -153 13 -499t13 -507q0 -268 -88 -401q-31 -48 -82 -73t-110 -25q-36 0 -73 10.5t-58 23.5l26 99q50 -25 94 -25q62 0 95 45q71 88 71 348q0 162 -13 512t-13 504q0 165 24 262.5
t82 155.5q70 76 182 76q63 0 111 -29z" />
    <glyph glyph-name="approxequal" unicode="&#x2248;" horiz-adv-x="1153" 
d="M997 856l58 -51q-100 -189 -260 -189q-58 0 -106 19t-136 67q-41 23 -64.5 34.5t-59.5 22.5t-69 11q-65 0 -111 -39t-93 -110l-60 49q46 89 119 138.5t160 49.5q28 0 54.5 -5t53.5 -16.5t42.5 -19t43.5 -23.5l35 -20q4 -2 25 -13.5t25.5 -14t22 -11t24 -11t21.5 -8t25 -7
t24 -3t28 -1.5q61 0 106.5 36.5t91.5 114.5zM997 514l58 -51q-101 -187 -260 -187q-40 0 -82 12.5t-67.5 25t-92.5 48.5q-45 25 -65.5 35.5t-57.5 22.5t-70 12q-65 0 -111 -40t-93 -113l-60 49q46 90 118.5 140t158.5 50q36 0 73.5 -10t57 -19t57 -29.5t43.5 -23.5
q7 -4 27.5 -15.5t28 -15t25 -12.5t28 -12t26.5 -8t31 -6.5t31 -1.5q60 0 104.5 35.5t91.5 113.5z" />
    <glyph glyph-name="notequal" unicode="&#x2260;" horiz-adv-x="1153" 
d="M813 1008l-94 -203h328v-90h-365l-139 -301h504v-88h-543l-111 -244l-74 35l97 209h-312v88h351l139 301h-490v90h527l110 237z" />
    <glyph glyph-name="lessequal" unicode="&#x2264;" horiz-adv-x="1153" 
d="M1040 186l-923 455v96l923 455v-109l-823 -391v-4l823 -393v-109zM1047 10h-943v92h943v-92z" />
    <glyph glyph-name="greaterequal" unicode="&#x2265;" horiz-adv-x="1153" 
d="M119 1192l923 -457v-94l-923 -455v109l823 391v4l-823 393v109zM1044 10h-938v92h938v-92z" />
    <glyph glyph-name="lozenge" unicode="&#x25ca;" horiz-adv-x="1157" 
d="M1044 694l-413 -786h-109l-409 786l411 787h111zM920 690l-302 574q-28 65 -38 100h-5q-21 -61 -40 -100l-297 -568l303 -577q30 -73 34 -99h7q21 64 36 99z" />
    </font>
</defs>
</svg>
